<svg width="20" height="20" viewBox="0 0 20 20" fill="none" xmlns="http://www.w3.org/2000/svg">
<g id="leading-icon">
<path id="Icon" fill-rule="evenodd" clip-rule="evenodd" d="M12.6409 4.40352C11.094 3.17669 8.90598 3.17669 7.35909 4.40352C7.07312 4.63032 6.76015 5.00751 6.32744 5.68676C5.89726 6.36204 5.38782 7.27117 4.68808 8.5207C4.01526 9.72217 3.52645 10.5956 3.18832 11.2888C2.84869 11.9852 2.69452 12.4349 2.64868 12.7913C2.40183 14.7104 3.4824 16.554 5.27743 17.2763C5.61076 17.4104 6.07851 17.4956 6.85198 17.5395C7.62204 17.5832 8.62296 17.5835 10 17.5835C11.377 17.5835 12.378 17.5832 13.148 17.5395C13.9215 17.4956 14.3892 17.4104 14.7226 17.2763C16.5176 16.554 17.5982 14.7104 17.3513 12.7913C17.3055 12.4349 17.1513 11.9852 16.8117 11.2889C16.4735 10.5956 15.9847 9.72217 15.3119 8.5207C14.6122 7.27117 14.1027 6.36204 13.6726 5.68676C13.2399 5.00751 12.9269 4.63032 12.6409 4.40352ZM10 19.0835H10.0247H10.0247H10.0248C11.3719 19.0835 12.4154 19.0835 13.233 19.0371C14.0522 18.9906 14.7176 18.8951 15.2825 18.6678C17.7111 17.6906 19.173 15.1963 18.8391 12.5999C18.7614 11.996 18.5196 11.3687 18.1598 10.6313C17.8008 9.89522 17.291 8.98479 16.6327 7.80935L16.6207 7.7878L16.6085 7.766C15.9234 6.54272 15.3935 5.59633 14.9377 4.88084C14.4817 4.16509 14.0603 3.61478 13.573 3.22826C11.4801 1.56844 8.51985 1.56844 6.42701 3.22826C5.93965 3.61478 5.5183 4.16509 5.06233 4.88084C4.60654 5.59633 4.07656 6.54273 3.39153 7.766L3.37932 7.78779L3.36721 7.80943C2.70898 8.98483 2.19916 9.89523 1.84015 10.6313C1.48044 11.3687 1.23862 11.996 1.16094 12.5999C0.826967 15.1963 2.28892 17.6906 4.71748 18.6678C5.2824 18.8951 5.94783 18.9906 6.76701 19.0371C7.58462 19.0835 8.62806 19.0835 9.97523 19.0835H9.97527H9.9753H10ZM10 6.75015C10.4142 6.75015 10.75 7.08593 10.75 7.50015V10.8335C10.75 11.2477 10.4142 11.5835 10 11.5835C9.58579 11.5835 9.25 11.2477 9.25 10.8335V7.50015C9.25 7.08593 9.58579 6.75015 10 6.75015ZM10 14.1668C10.4602 14.1668 10.8333 13.7937 10.8333 13.3335C10.8333 12.8732 10.4602 12.5001 10 12.5001C9.53976 12.5001 9.16667 12.8732 9.16667 13.3335C9.16667 13.7937 9.53976 14.1668 10 14.1668Z" fill="#6D6D6D"/>
</g>
</svg>
