<svg width="22" height="22" viewBox="0 0 22 22" fill="none" xmlns="http://www.w3.org/2000/svg">
<path d="M18.6437 15.3068C18.3385 15.9706 17.9772 16.5816 17.5586 17.1434C16.9881 17.9092 16.5209 18.4393 16.1609 18.7337C15.6027 19.2169 15.0048 19.4644 14.3644 19.4784C13.9047 19.4784 13.3504 19.3553 12.705 19.1055C12.0576 18.8568 11.4626 18.7337 10.9186 18.7337C10.348 18.7337 9.73608 18.8568 9.08155 19.1055C8.42602 19.3553 7.89793 19.4855 7.49417 19.4984C6.88012 19.523 6.26806 19.2685 5.65713 18.7337C5.2672 18.4135 4.77947 17.8647 4.1952 17.0871C3.56832 16.2567 3.05294 15.2939 2.64918 14.1961C2.21677 13.0104 2 11.8622 2 10.7507C2 9.47735 2.29226 8.37913 2.87766 7.45883C3.33773 6.71961 3.94978 6.1365 4.71581 5.70842C5.48185 5.28035 6.30955 5.06221 7.20091 5.04825C7.68863 5.04825 8.32822 5.19028 9.12303 5.4694C9.9156 5.74947 10.4245 5.8915 10.6476 5.8915C10.8144 5.8915 11.3798 5.72543 12.3382 5.39435C13.2445 5.08731 14.0094 4.96017 14.636 5.01025C16.334 5.13926 17.6097 5.76941 18.4581 6.90468C16.9395 7.77092 16.1883 8.98418 16.2032 10.5406C16.2169 11.7529 16.6841 12.7618 17.6022 13.5628C18.0183 13.9346 18.483 14.2219 19 14.426C18.8879 14.7321 18.7695 15.0253 18.6437 15.3068ZM14.7494 0.880106C14.7494 1.83032 14.3806 2.71754 13.6456 3.53874C12.7586 4.51498 11.6857 5.0791 10.5223 4.99008C10.5075 4.87608 10.4989 4.75611 10.4989 4.63003C10.4989 3.71782 10.9207 2.74158 11.6698 1.94337C12.0438 1.53922 12.5194 1.20318 13.0962 0.93511C13.6718 0.671042 14.2162 0.525004 14.7282 0.5C14.7431 0.627026 14.7494 0.754076 14.7494 0.880106Z" fill="white"/>
</svg>
