<svg width="24" height="24" viewBox="0 0 24 24" fill="none" xmlns="http://www.w3.org/2000/svg">
<g id="inactive.icon">
<path id="Icon" fill-rule="evenodd" clip-rule="evenodd" d="M10 2.25C4.61522 2.25 0.25 6.61522 0.25 12C0.25 17.3848 4.61522 21.75 10 21.75H14C19.3848 21.75 23.75 17.3848 23.75 12C23.75 6.61522 19.3848 2.25 14 2.25H10ZM1.75 12C1.75 7.44365 5.44365 3.75 10 3.75H14C18.5563 3.75 22.25 7.44365 22.25 12C22.25 16.5563 18.5563 20.25 14 20.25H10C5.44365 20.25 1.75 16.5563 1.75 12ZM10.75 12C10.75 10.2051 12.2051 8.75 14 8.75C15.7949 8.75 17.25 10.2051 17.25 12C17.25 13.7949 15.7949 15.25 14 15.25C12.2051 15.25 10.75 13.7949 10.75 12ZM14 7.25C11.3766 7.25 9.25 9.37665 9.25 12C9.25 14.6234 11.3766 16.75 14 16.75C16.6234 16.75 18.75 14.6234 18.75 12C18.75 9.37665 16.6234 7.25 14 7.25Z" fill="white"/>
</g>
</svg>
