<svg width="24" height="24" viewBox="0 0 24 24" fill="none" xmlns="http://www.w3.org/2000/svg">
<g id="chevron-left">
<path id="Icon" fill-rule="evenodd" clip-rule="evenodd" d="M14.5305 5.46967C14.8234 5.76256 14.8234 6.23744 14.5305 6.53033L10.7933 10.2676C10.3885 10.6724 10.1172 10.9444 9.9251 11.1708C9.73866 11.3904 9.6712 11.5171 9.63979 11.6137C9.55822 11.8648 9.55822 12.1352 9.63979 12.3863C9.6712 12.4829 9.73866 12.6096 9.9251 12.8292C10.1172 13.0556 10.3885 13.3276 10.7933 13.7324L14.5305 17.4697C14.8234 17.7626 14.8234 18.2374 14.5305 18.5303C14.2376 18.8232 13.7627 18.8232 13.4699 18.5303L9.7326 14.7931L9.71107 14.7715C9.33336 14.3939 9.0181 14.0786 8.78159 13.8C8.53492 13.5094 8.33018 13.2098 8.21321 12.8498C8.03375 12.2975 8.03375 11.7025 8.21321 11.1502C8.33018 10.7902 8.53492 10.4906 8.78159 10.2C9.0181 9.9214 9.33336 9.60615 9.71107 9.22845L9.7326 9.20693L13.4699 5.46967C13.7627 5.17678 14.2376 5.17678 14.5305 5.46967Z" fill="#FFFFFF"/>
</g>
</svg>
