<svg width="32" height="32" viewBox="0 0 32 32" fill="none" xmlns="http://www.w3.org/2000/svg">
<path fill-rule="evenodd" clip-rule="evenodd" d="M13.8359 1.91663L13.8663 1.91663H18.133L18.1634 1.91663C18.6976 1.91662 19.1434 1.91661 19.5077 1.94637C19.8876 1.9774 20.2442 2.04451 20.5815 2.21636C21.0989 2.48001 21.5196 2.90071 21.7833 3.41815C21.9551 3.75542 22.0222 4.11207 22.0533 4.49196C22.083 4.85614 22.083 5.30192 22.083 5.83599V5.83617V5.86663V9.00395C25.2876 11.0257 27.4163 14.5976 27.4163 18.6666C27.4163 24.9719 22.3049 30.0833 15.9997 30.0833C9.69442 30.0833 4.58301 24.9719 4.58301 18.6666C4.58301 14.5976 6.71176 11.0257 9.91634 9.00395V5.86663L9.91634 5.83619V5.83617C9.91633 5.30203 9.91632 4.85619 9.94608 4.49196C9.97712 4.11207 10.0442 3.75542 10.2161 3.41815C10.4797 2.90071 10.9004 2.48001 11.4179 2.21636C11.7551 2.04451 12.1118 1.9774 12.4917 1.94637C12.8559 1.91661 13.3018 1.91662 13.8359 1.91663ZM20.583 5.86663V8.20723C19.1802 7.59162 17.6298 7.24996 15.9997 7.24996C14.3695 7.24996 12.8192 7.59162 11.4163 8.20722V5.86663C11.4163 5.2942 11.4169 4.90998 11.4411 4.6141C11.4646 4.32698 11.5064 4.1897 11.5526 4.09914C11.6724 3.86394 11.8637 3.67271 12.0989 3.55287C12.1894 3.50673 12.3267 3.46484 12.6138 3.44138C12.9097 3.41721 13.2939 3.41663 13.8663 3.41663H18.133C18.7054 3.41663 19.0897 3.41721 19.3855 3.44138C19.6727 3.46484 19.8099 3.50673 19.9005 3.55287C20.1357 3.67271 20.3269 3.86394 20.4468 4.09914C20.4929 4.1897 20.5348 4.32698 20.5583 4.6141C20.5824 4.90998 20.583 5.2942 20.583 5.86663ZM15.9997 28.5833C21.4765 28.5833 25.9163 24.1434 25.9163 18.6666C25.9163 13.1898 21.4765 8.74996 15.9997 8.74996C10.5229 8.74996 6.08301 13.1898 6.08301 18.6666C6.08301 24.1434 10.5229 28.5833 15.9997 28.5833ZM16.7497 17.3333C16.7497 16.9191 16.4139 16.5833 15.9997 16.5833C15.5855 16.5833 15.2497 16.9191 15.2497 17.3333V20C15.2497 20.4142 15.5855 20.75 15.9997 20.75C16.4139 20.75 16.7497 20.4142 16.7497 20V17.3333Z" fill="#DD0000"/>
</svg>
