<svg width="24" height="24" viewBox="0 0 24 24" fill="none" xmlns="http://www.w3.org/2000/svg">
<path fill-rule="evenodd" clip-rule="evenodd" d="M1.46967 1.46967C1.76256 1.17678 2.23744 1.17678 2.53033 1.46967L4.90155 3.84089L19.1897 18.1291L21.5303 20.4697C21.8232 20.7626 21.8232 21.2374 21.5303 21.5303C21.2374 21.8232 20.7626 21.8232 20.4697 21.5303L18.6273 19.688C17.6809 20.4481 16.5377 21.0197 15.0364 21.7704L14.95 21.8136C13.9296 22.3239 12.8525 22.75 12 22.75C11.1475 22.75 10.0704 22.3239 9.05002 21.8136L8.96007 21.7687C6.46626 20.5217 5.01672 19.7969 3.72897 17.8734C3.62957 17.7249 3.48251 17.4869 3.39417 17.3316C2.24944 15.319 2.24964 13.2152 2.24999 9.57382C2.25 9.50988 2.25 9.44548 2.25 9.38059C2.25 9.31804 2.24998 9.25618 2.24995 9.19499C2.24923 7.26943 2.24875 6.0068 2.98302 4.84328C3.04182 4.75011 3.13034 4.62144 3.19632 4.53322C3.23609 4.48006 3.27641 4.42835 3.31736 4.37802L1.46967 2.53033C1.17678 2.23744 1.17678 1.76257 1.46967 1.46967ZM4.38623 5.44689C4.34421 5.50422 4.28599 5.58924 4.25154 5.64382C3.77458 6.3996 3.75 7.19952 3.75 9.38059C3.75 13.2745 3.77066 14.9595 4.69803 16.59C4.76837 16.7137 4.89628 16.9207 4.97543 17.0389C6.02649 18.6089 7.12843 19.1756 9.72094 20.4721C10.7426 20.983 11.5362 21.25 12 21.25C12.4638 21.25 13.2574 20.983 14.2791 20.4721C15.7944 19.7142 16.7837 19.2144 17.5595 18.6201L4.38623 5.44689ZM12 2.75C10.8144 2.75 9.49752 3.04033 8.23318 3.45391C7.83949 3.58269 7.41595 3.36794 7.28717 2.97426C7.15839 2.58057 7.37314 2.15703 7.76682 2.02825C9.10689 1.58989 10.5929 1.25 12 1.25C13.7896 1.25 15.7155 1.80035 17.3195 2.41445C17.36 2.42994 17.4001 2.44529 17.4399 2.4605C18.9684 3.04515 19.9801 3.4321 20.8037 4.53322C20.8697 4.62144 20.9582 4.75011 21.017 4.84328C21.7512 6.00679 21.7508 7.26943 21.75 9.19499C21.75 9.25618 21.75 9.31804 21.75 9.38059V9.47156C21.7501 11.9254 21.7501 13.6905 21.4291 15.16C21.3407 15.5647 20.941 15.8211 20.5363 15.7327C20.1316 15.6443 19.8752 15.2446 19.9636 14.8399C20.246 13.5474 20.25 11.9476 20.25 9.38059C20.25 7.19952 20.2254 6.3996 19.7485 5.64381C19.7108 5.58416 19.6448 5.48815 19.6025 5.43167C19.062 4.70904 18.4657 4.45941 16.7832 3.8153C15.2435 3.22581 13.5189 2.75 12 2.75Z" fill="#AAB0C6"/>
</svg>
