<svg width="24" height="24" viewBox="0 0 24 24" fill="none" xmlns="http://www.w3.org/2000/svg">
<g id="inactive.icon">
<path id="Icon" fill-rule="evenodd" clip-rule="evenodd" d="M12 1.25C9.92896 1.25 8.25003 2.92893 8.25003 5V5.21604C6.9963 5.91056 5.95543 6.94252 5.25003 8.18934L3.93625 6.87556C3.39215 6.33146 3.20995 6.14244 3.08159 5.93298C2.95823 5.73167 2.86732 5.51219 2.8122 5.28261C2.75485 5.04374 2.75003 4.78125 2.75003 4.01177V3C2.75003 2.58579 2.41425 2.25 2.00003 2.25C1.58582 2.25 1.25003 2.58579 1.25003 3V4.01177L1.25002 4.09724C1.24983 4.7488 1.2497 5.1998 1.35364 5.63278C1.44551 6.01542 1.59702 6.38121 1.80263 6.71673C2.03529 7.09639 2.35429 7.41521 2.81514 7.87579L2.81515 7.8758L2.87559 7.93622L4.4697 9.53033C4.51426 9.57489 4.56304 9.61267 4.61474 9.64368C4.37787 10.3867 4.25003 11.1784 4.25003 12V15C4.25003 15.2228 4.25944 15.4434 4.27787 15.6615L2.87559 17.0638L2.81515 17.1242C2.35429 17.5848 2.03529 17.9036 1.80263 18.2833C1.59702 18.6188 1.44551 18.9846 1.35364 19.3672C1.2497 19.8002 1.24983 20.2512 1.25002 20.9028L1.25003 20.9882V22C1.25003 22.4142 1.58582 22.75 2.00003 22.75C2.41425 22.75 2.75003 22.4142 2.75003 22V20.9882C2.75003 20.2188 2.75485 19.9563 2.8122 19.7174C2.86732 19.4878 2.95823 19.2683 3.08159 19.067C3.20995 18.8576 3.39215 18.6685 3.93625 18.1244L4.63667 17.424C5.6543 20.517 8.5664 22.75 12 22.75C15.4337 22.75 18.3458 20.517 19.3634 17.424L20.0638 18.1244C20.6079 18.6685 20.7901 18.8576 20.9185 19.067C21.0418 19.2683 21.1327 19.4878 21.1879 19.7174C21.2452 19.9563 21.25 20.2188 21.25 20.9882V22C21.25 22.4142 21.5858 22.75 22 22.75C22.4142 22.75 22.75 22.4142 22.75 22V20.9882L22.75 20.9028V20.9027C22.7502 20.2512 22.7504 19.8002 22.6464 19.3672C22.5546 18.9846 22.403 18.6188 22.1974 18.2833C21.9648 17.9036 21.6458 17.5848 21.1849 17.1242L21.1245 17.0638L19.7222 15.6615C19.7406 15.4434 19.75 15.2228 19.75 15V12C19.75 11.1784 19.6222 10.3867 19.3853 9.64368C19.437 9.61267 19.4858 9.57489 19.5304 9.53033L21.1245 7.93622L21.1849 7.8758C21.6458 7.41521 21.9648 7.09639 22.1974 6.71673C22.403 6.38121 22.5546 6.01542 22.6464 5.63278C22.7504 5.19981 22.7502 4.74882 22.75 4.09728V4.09724L22.75 4.01177V3C22.75 2.58579 22.4142 2.25 22 2.25C21.5858 2.25 21.25 2.58579 21.25 3V4.01177C21.25 4.78125 21.2452 5.04374 21.1879 5.28261C21.1327 5.51219 21.0418 5.73167 20.9185 5.93298C20.7901 6.14244 20.6079 6.33146 20.0638 6.87556L18.75 8.18934C18.0446 6.94252 17.0038 5.91056 15.75 5.21604V5C15.75 2.92893 14.0711 1.25 12 1.25ZM14.2089 4.56931C14.0079 3.5327 13.0954 2.75 12 2.75C10.9047 2.75 9.99215 3.5327 9.79121 4.56931C10.4912 4.36155 11.2326 4.25 12 4.25C12.7675 4.25 13.5089 4.36155 14.2089 4.56931ZM11.25 21C11.25 21.0725 11.2603 21.1426 11.2795 21.2089C8.16711 20.8517 5.75003 18.2081 5.75003 15V12C5.75003 8.54822 8.54825 5.75 12 5.75C15.4518 5.75 18.25 8.54822 18.25 12V15C18.25 18.2081 15.833 20.8517 12.7205 21.2089C12.7397 21.1426 12.75 21.0725 12.75 21V15C12.75 14.5858 12.4142 14.25 12 14.25C11.5858 14.25 11.25 14.5858 11.25 15V21Z" fill="#AAB0C6"/>
</g>
</svg>
