<svg width="21" height="21" viewBox="0 0 21 21" fill="none" xmlns="http://www.w3.org/2000/svg">
<g id="bulb">
<path id="Icon" fill-rule="evenodd" clip-rule="evenodd" d="M10.5 2.5C7.04822 2.5 4.25 5.29822 4.25 8.75C4.25 10.9682 5.95128 12.8318 7.22557 13.898C7.6105 14.22 7.94698 14.6183 8.19349 15.071L8.20391 15.076L8.21663 15.0817C8.23196 15.0884 8.26055 15.1004 8.3024 15.1161C8.38609 15.1475 8.52298 15.1936 8.71315 15.2411C8.96442 15.304 9.30991 15.3696 9.75 15.4068L9.75 12.25C9.75 11.8358 10.0858 11.5 10.5 11.5C10.9142 11.5 11.25 11.8358 11.25 12.25V15.4068C11.6901 15.3696 12.0356 15.304 12.2868 15.2411C12.477 15.1936 12.6139 15.1475 12.6976 15.1161C12.7395 15.1004 12.768 15.0884 12.7834 15.0817L12.7961 15.076C12.8008 15.0736 12.8056 15.0714 12.8104 15.0692C12.8129 15.068 12.8155 15.0668 12.8181 15.0657C13.0682 14.6137 13.4081 14.217 13.7948 13.897C15.0628 12.8479 16.75 11.006 16.75 8.75C16.75 5.29822 13.9518 2.5 10.5 2.5ZM10.4017 18.5C9.43249 18.5 8.64452 17.7239 8.62536 16.7593C9.0985 16.8571 9.72362 16.9375 10.5 16.9375C11.2765 16.9375 11.9017 16.8571 12.3748 16.7592C12.3624 17.7228 11.5774 18.5 10.6109 18.5H10.4017ZM13.875 16.7359C13.875 16.1224 14.2038 15.5054 14.751 15.0527C16.0755 13.9569 18.25 11.7257 18.25 8.75C18.25 4.46979 14.7802 1 10.5 1C6.21979 1 2.75 4.46979 2.75 8.75C2.75 11.6912 4.94475 13.9455 6.26304 15.0484C6.80215 15.4995 7.125 16.1126 7.125 16.7233C7.125 18.533 8.59204 20 10.4017 20H10.6109C12.4136 20 13.875 18.5386 13.875 16.7359Z" fill="white"/>
</g>
</svg>
