<svg width="16" height="16" viewBox="0 0 16 16" fill="none" xmlns="http://www.w3.org/2000/svg">
<g id="comment-text">
<path id="Icon" fill-rule="evenodd" clip-rule="evenodd" d="M10.7668 2.22809C10.2504 2.08972 9.59841 2.08328 8.00017 2.08328H7.3335C6.37584 2.08328 5.98433 2.0856 5.66866 2.1356C3.85011 2.42363 2.42386 3.84989 2.13583 5.66843C2.08583 5.9841 2.0835 6.37561 2.0835 7.33328C2.0835 8.29094 2.08583 8.68245 2.13583 8.99812C2.42386 10.8167 3.85011 12.2429 5.66866 12.531C5.98433 12.5809 6.37584 12.5833 7.3335 12.5833H9.99902C11.0082 12.5833 11.9984 12.8575 12.8637 13.3767C13.3272 13.6548 13.9168 13.321 13.9168 12.7805V7.99994C13.9168 6.4017 13.9104 5.74971 13.772 5.23329C13.379 3.76665 12.2335 2.62108 10.7668 2.22809ZM12.0919 14.663C11.4597 14.2837 10.7363 14.0833 9.99902 14.0833H7.3335L7.25267 14.0833C6.40066 14.0833 5.88168 14.0834 5.43401 14.0125C2.97362 13.6228 1.04398 11.6932 0.654296 9.23277C0.583391 8.7851 0.583433 8.26611 0.5835 7.4141L0.583504 7.33328L0.5835 7.25246C0.583433 6.40044 0.583391 5.88145 0.654296 5.43378C1.04398 2.97339 2.97362 1.04375 5.43401 0.654067C5.88168 0.583162 6.40067 0.583203 7.25268 0.583271L7.3335 0.583275H8.00017L8.13497 0.583263C9.5561 0.583076 10.4227 0.582962 11.155 0.779202C13.1393 1.31089 14.6892 2.86079 15.2209 4.84506C15.4172 5.57744 15.417 6.44401 15.4169 7.86514L15.4168 7.99994V12.7805C15.4168 14.4869 13.5552 15.5409 12.0919 14.663ZM3.91684 5.33328C3.91684 4.91906 4.25262 4.58328 4.66684 4.58328H10.0002C10.4144 4.58328 10.7502 4.91906 10.7502 5.33328C10.7502 5.74749 10.4144 6.08328 10.0002 6.08328H4.66684C4.25262 6.08328 3.91684 5.74749 3.91684 5.33328ZM4.66684 7.24994C4.25262 7.24994 3.91684 7.58573 3.91684 7.99994C3.91684 8.41415 4.25262 8.74994 4.66684 8.74994H7.3335C7.74772 8.74994 8.0835 8.41415 8.0835 7.99994C8.0835 7.58573 7.74772 7.24994 7.3335 7.24994H4.66684Z" fill="#AAB0C6"/>
</g>
</svg>
