<svg width="20" height="21" viewBox="0 0 20 21" fill="none" xmlns="http://www.w3.org/2000/svg">
<g id="checkbox-rec">
<path id="Icon" fill-rule="evenodd" clip-rule="evenodd" d="M9.99998 1.41665L9.83611 1.41664C7.82134 1.41642 6.62887 1.41629 5.63689 1.72906C3.53653 2.3913 1.8913 4.03653 1.22906 6.13689C0.916287 7.12887 0.916417 8.32134 0.916637 10.3361L0.916649 10.5L0.916637 10.6639C0.916417 12.6786 0.916287 13.8711 1.22906 14.8631C1.8913 16.9634 3.53653 18.6087 5.63689 19.2709C6.62888 19.5837 7.82135 19.5835 9.83612 19.5833L9.99998 19.5833L10.1638 19.5833C12.1786 19.5835 13.3711 19.5837 14.3631 19.2709C16.4634 18.6087 18.1087 16.9634 18.7709 14.8631C19.0837 13.8711 19.0835 12.6786 19.0833 10.6638L19.0833 10.5V9.57406C19.0833 9.15984 18.7475 8.82406 18.3333 8.82406C17.9191 8.82406 17.5833 9.15984 17.5833 9.57406V10.5C17.5833 12.7279 17.5746 13.6691 17.3403 14.412C16.8253 16.0456 15.5456 17.3253 13.912 17.8403C13.1691 18.0746 12.2279 18.0833 9.99998 18.0833C7.77209 18.0833 6.83085 18.0746 6.08794 17.8403C4.45433 17.3253 3.17471 16.0456 2.65964 14.412C2.4254 13.6691 2.41665 12.7279 2.41665 10.5C2.41665 8.27209 2.4254 7.33085 2.65964 6.58794C3.17471 4.95433 4.45433 3.67471 6.08794 3.15964C6.83085 2.9254 7.77209 2.91665 9.99998 2.91665H13.7037C14.1179 2.91665 14.4537 2.58086 14.4537 2.16665C14.4537 1.75244 14.1179 1.41665 13.7037 1.41665H9.99998ZM18.8636 4.36365C19.1565 4.07075 19.1565 3.59588 18.8636 3.30299C18.5708 3.01009 18.0959 3.01009 17.803 3.30299L9.99998 11.106L8.03031 9.13632C7.73742 8.84343 7.26255 8.84343 6.96965 9.13632C6.67676 9.42921 6.67676 9.90409 6.96965 10.197L9.46965 12.697C9.76255 12.9899 10.2374 12.9899 10.5303 12.697L18.8636 4.36365Z" fill="#DD0000"/>
</g>
</svg>
