<svg width="32" height="32" viewBox="0 0 32 32" fill="none" xmlns="http://www.w3.org/2000/svg">
    <path fill-rule="evenodd" clip-rule="evenodd" d="M12.2665 1.91663H12.2326C10.5811 1.91662 9.29573 1.91662 8.26464 2.00086C7.21775 2.0864 6.36715 2.2625 5.60207 2.65233C4.33197 3.29948 3.29936 4.3321 2.65221 5.60219C2.26238 6.36728 2.08627 7.21787 2.00074 8.26476C1.9165 9.29585 1.9165 10.5812 1.9165 12.2327V12.2666V19.7333V19.7672C1.9165 21.4187 1.9165 22.7041 2.00074 23.7352C2.08627 24.782 2.26238 25.6326 2.65221 26.3977C3.29936 27.6678 4.33197 28.7004 5.60207 29.3476C6.36715 29.7374 7.21775 29.9135 8.26464 29.9991C9.29571 30.0833 10.5811 30.0833 12.2325 30.0833H12.2325H12.2665H19.7332H19.7671H19.7672C21.4186 30.0833 22.704 30.0833 23.735 29.9991C24.7819 29.9135 25.6325 29.7374 26.3976 29.3476C27.6677 28.7004 28.7003 27.6678 29.3475 26.3977C29.7373 25.6326 29.9134 24.782 29.9989 23.7352C30.0832 22.7041 30.0832 21.4187 30.0832 19.7673V19.7673V19.7333V12.2666V12.2327V12.2326C30.0832 10.5812 30.0832 9.29583 29.9989 8.26476C29.9134 7.21787 29.7373 6.36728 29.3475 5.60219C28.7003 4.3321 27.6677 3.29948 26.3976 2.65233C25.6325 2.2625 24.7819 2.0864 23.735 2.00086C22.704 1.91662 21.4186 1.91662 19.7671 1.91663H19.7332H12.2665ZM6.28305 3.98884C6.80144 3.72471 7.43266 3.57384 8.38679 3.49588C9.34968 3.41721 10.574 3.41663 12.2665 3.41663H19.7332C21.4257 3.41663 22.65 3.41721 23.6129 3.49588C24.567 3.57384 25.1982 3.72471 25.7166 3.98884C26.7045 4.49218 27.5076 5.29532 28.011 6.28318C28.2751 6.80156 28.426 7.43278 28.5039 8.38691C28.5826 9.3498 28.5832 10.5741 28.5832 12.2666V19.7333C28.5832 21.4258 28.5826 22.6501 28.5039 23.613C28.426 24.5671 28.2751 25.1984 28.011 25.7167C27.5076 26.7046 26.7045 27.5077 25.7166 28.0111C25.1982 28.2752 24.567 28.4261 23.6129 28.504C22.65 28.5827 21.4257 28.5833 19.7332 28.5833H12.2665C10.574 28.5833 9.34967 28.5827 8.38679 28.504C7.43266 28.4261 6.80144 28.2752 6.28305 28.0111C5.2952 27.5077 4.49205 26.7046 3.98872 25.7167C3.72459 25.1984 3.57371 24.5671 3.49576 23.613C3.41709 22.6501 3.4165 21.4258 3.4165 19.7333V12.2666C3.4165 10.5741 3.41709 9.3498 3.49576 8.38691C3.57371 7.43278 3.72459 6.80156 3.98872 6.28318C4.49205 5.29532 5.2952 4.49218 6.28305 3.98884ZM23.1968 12.5303C23.4897 12.2374 23.4897 11.7625 23.1968 11.4696C22.9039 11.1767 22.4291 11.1767 22.1362 11.4696L14.6665 18.9393L11.8635 16.1363C11.5706 15.8434 11.0957 15.8434 10.8028 16.1363C10.5099 16.4292 10.5099 16.9041 10.8028 17.197L14.1362 20.5303C14.2768 20.6709 14.4676 20.75 14.6665 20.75C14.8654 20.75 15.0562 20.6709 15.1968 20.5303L23.1968 12.5303Z" fill="#00B012"/>
</svg>
