<svg width="24" height="24" viewBox="0 0 24 24" fill="none" xmlns="http://www.w3.org/2000/svg">
<path fill-rule="evenodd" clip-rule="evenodd" d="M10.7298 1.25021L10.621 1.25011C10.1084 1.24934 9.65851 1.24867 9.25762 1.40634C8.90709 1.5442 8.59677 1.76786 8.35513 2.05682C8.07878 2.38727 7.93715 2.8143 7.77577 3.30085L7.74147 3.4041L7.45943 4.25021H4H2C1.58579 4.25021 1.25 4.586 1.25 5.00021C1.25 5.41443 1.58579 5.75021 2 5.75021H3.29282L3.89693 16.0201L3.89881 16.052C3.95958 17.0851 4.0078 17.9051 4.09968 18.5654C4.19376 19.2415 4.34057 19.8115 4.63159 20.3289C5.10467 21.1699 5.8227 21.847 6.6901 22.2698C7.22368 22.53 7.80125 22.6431 8.48175 22.6973C9.14635 22.7502 9.9677 22.7502 11.0027 22.7502H11.0346H12.9654H12.9973C14.0323 22.7502 14.8537 22.7502 15.5182 22.6973C16.1987 22.6431 16.7763 22.53 17.3099 22.2698C18.1773 21.847 18.8953 21.1699 19.3684 20.3289C19.6594 19.8115 19.8062 19.2415 19.9003 18.5654C19.9922 17.9051 20.0404 17.0853 20.1012 16.0522V16.0522L20.1012 16.0521L20.1031 16.0201L20.7072 5.75021H22C22.4142 5.75021 22.75 5.41443 22.75 5.00021C22.75 4.586 22.4142 4.25021 22 4.25021H20H16.5406L16.2585 3.4041L16.2242 3.30084C16.0629 2.8143 15.9212 2.38727 15.6449 2.05682C15.4032 1.76786 15.0929 1.5442 14.7424 1.40634C14.3415 1.24867 13.8916 1.24934 13.379 1.25011L13.2702 1.25021H10.7298ZM15.9825 5.75021C15.9941 5.75048 16.0057 5.75048 16.0173 5.75021H19.2046L18.6057 15.932C18.5426 17.0042 18.4973 17.7645 18.4146 18.3587C18.3332 18.9439 18.2226 19.3063 18.061 19.5935C17.7373 20.169 17.2461 20.6322 16.6526 20.9215C16.3564 21.0659 15.9881 21.1551 15.3991 21.202C14.8011 21.2497 14.0394 21.2502 12.9654 21.2502H11.0346C9.96057 21.2502 9.19893 21.2497 8.60087 21.202C8.01191 21.1551 7.6436 21.0659 7.34742 20.9215C6.75394 20.6322 6.26265 20.169 5.93897 19.5935C5.77743 19.3063 5.66679 18.9439 5.58537 18.3587C5.50269 17.7645 5.45741 17.0042 5.39434 15.932L4.79541 5.75021H7.9827C7.99433 5.75048 8.00594 5.75048 8.01751 5.75021H15.9825ZM14.9594 4.25021L14.8355 3.87844C14.6186 3.22761 14.5633 3.10174 14.4942 3.01908C14.4137 2.92276 14.3102 2.84821 14.1934 2.80225C14.0931 2.76282 13.9562 2.75021 13.2702 2.75021H10.7298C10.0438 2.75021 9.90691 2.76282 9.80663 2.80225C9.68979 2.84821 9.58635 2.92276 9.5058 3.01908C9.43668 3.10174 9.38144 3.22761 9.16449 3.87844L9.04057 4.25021H14.9594ZM10.75 10.0002C10.75 9.586 10.4142 9.25021 10 9.25021C9.58579 9.25021 9.25 9.586 9.25 10.0002V17.0002C9.25 17.4144 9.58579 17.7502 10 17.7502C10.4142 17.7502 10.75 17.4144 10.75 17.0002V10.0002ZM14 9.25021C14.4142 9.25021 14.75 9.586 14.75 10.0002V14.0002C14.75 14.4144 14.4142 14.7502 14 14.7502C13.5858 14.7502 13.25 14.4144 13.25 14.0002V10.0002C13.25 9.586 13.5858 9.25021 14 9.25021Z" fill="#AAB0C6"/>
</svg>
