<svg width="20" height="20" viewBox="0 0 20 20" fill="none" xmlns="http://www.w3.org/2000/svg">
<g id="droplet">
<path id="Icon" fill-rule="evenodd" clip-rule="evenodd" d="M9.99974 2.88037C9.83597 2.88037 9.71199 2.89818 9.66109 2.9125C9.43053 2.9774 9.32725 3.05088 8.88405 3.41362C7.92976 4.19468 6.71785 5.33862 5.74931 6.74469C4.78035 8.15138 4.08325 9.77845 4.08325 11.5432C4.08325 13.6078 4.83644 15.0988 5.91995 16.0798C7.01623 17.0723 8.49682 17.5833 9.99992 17.5833C11.503 17.5833 12.9836 17.0723 14.0799 16.0798C15.1634 15.0988 15.9166 13.6078 15.9166 11.5432C15.9166 9.77845 15.2194 8.15137 14.2504 6.74467C13.2818 5.33859 12.0698 4.19464 11.1155 3.41359C10.6723 3.05086 10.569 2.97738 10.3384 2.91249C10.2875 2.89817 10.1635 2.88037 9.99974 2.88037ZM9.99972 1.38037C10.2353 1.38037 10.5106 1.40268 10.7448 1.46859C11.2985 1.62444 11.6235 1.89072 12.0233 2.21827C12.0373 2.2297 12.0513 2.24121 12.0655 2.25279C13.0832 3.08568 14.4092 4.3311 15.4857 5.89372C16.5617 7.45571 17.4166 9.37665 17.4166 11.5432C17.4166 14.0053 16.5031 15.9094 15.0866 17.1918C13.6829 18.4626 11.8302 19.0833 9.99992 19.0833C8.16968 19.0833 6.31694 18.4626 4.91322 17.1918C3.49673 15.9093 2.58325 14.0053 2.58325 11.5432C2.58325 9.37668 3.43808 7.45577 4.51402 5.89378C5.59039 4.33117 6.91636 3.08575 7.934 2.25285C7.94814 2.24127 7.96219 2.22976 7.97614 2.21833C8.37592 1.89076 8.70092 1.62448 9.25468 1.46861C9.48886 1.4027 9.76419 1.38037 9.99972 1.38037Z" fill="#6D6D6D"/>
</g>
</svg>
