<svg width="20" height="20" viewBox="0 0 20 20" fill="none" xmlns="http://www.w3.org/2000/svg">
<path fill-rule="evenodd" clip-rule="evenodd" d="M7.81571 0.916754L7.91676 0.916761H9.58343H10.0001C10.4143 0.916761 10.7501 1.25255 10.7501 1.66676C10.7501 2.08097 10.4143 2.41676 10.0001 2.41676H9.58343H7.91676C6.71917 2.41676 6.22991 2.42039 5.83763 2.49842C4.15169 2.83378 2.83378 4.15169 2.49842 5.83763C2.42039 6.22991 2.41676 6.71917 2.41676 7.91676V8.33343C2.41676 8.74764 2.08097 9.08343 1.66676 9.08343C1.25255 9.08343 0.916761 8.74764 0.916761 8.33343V7.91676L0.916754 7.81571C0.916649 6.75043 0.916585 6.10132 1.02725 5.54499C1.48096 3.26402 3.26402 1.48096 5.54499 1.02725C6.10132 0.916585 6.75043 0.916649 7.81571 0.916754ZM18.3334 9.2501C18.7476 9.2501 19.0834 9.58588 19.0834 10.0001V10.4168V10.4493V10.4494V10.4494C19.0834 11.7826 19.0834 12.8279 19.0166 13.6688C18.9486 14.5249 18.8078 15.2331 18.4904 15.8766C17.9306 17.0118 17.0118 17.9306 15.8766 18.4904C15.2331 18.8078 14.5249 18.9486 13.6688 19.0166C12.8279 19.0834 11.7826 19.0834 10.4494 19.0834H10.4494H10.4493H10.4168H7.91676L7.81574 19.0834C6.75044 19.0835 6.10133 19.0836 5.54499 18.9729C3.26402 18.5192 1.48096 16.7362 1.02725 14.4552C0.916585 13.8989 0.916649 13.2498 0.916754 12.1845L0.916761 12.0834V11.6668C0.916761 11.2525 1.25255 10.9168 1.66676 10.9168C2.08097 10.9168 2.41676 11.2525 2.41676 11.6668V12.0834C2.41676 13.281 2.42039 13.7703 2.49842 14.1626C2.83378 15.8485 4.15169 17.1664 5.83763 17.5018C6.22991 17.5798 6.71918 17.5834 7.91676 17.5834H10.4168C11.7896 17.5834 12.7754 17.5829 13.5499 17.5213C14.3161 17.4605 14.8111 17.3434 15.2132 17.1451C16.0522 16.7313 16.7313 16.0522 17.1451 15.2132C17.3434 14.8111 17.4605 14.3161 17.5213 13.5499C17.5829 12.7754 17.5834 11.7896 17.5834 10.4168V10.0001C17.5834 9.58588 17.9192 9.2501 18.3334 9.2501ZM16.5531 3.44709C16.1556 3.04963 15.5112 3.04963 15.1138 3.44709L14.8943 3.66659C14.9031 4.4537 15.5465 5.09705 16.3336 5.10593L16.5531 4.88643C16.9506 4.48897 16.9506 3.84455 16.5531 3.44709ZM15.1075 6.33201L14.8864 6.5531C14.5935 6.84599 14.5935 7.32086 14.8864 7.61376C15.1793 7.90665 15.6542 7.90665 15.9471 7.61376L17.6138 5.94709C18.597 4.96384 18.597 3.36968 17.6138 2.38643C16.6305 1.40318 15.0363 1.40318 14.0531 2.38643L10.7232 5.71628L10.6792 5.76036C10.2546 6.18485 9.98077 6.45859 9.75508 6.77254C9.55511 7.05072 9.38581 7.34972 9.25016 7.66432C9.09707 8.01937 9.00321 8.39499 8.85766 8.97747L8.84254 9.03796L8.43915 10.6515C8.37526 10.9071 8.45015 11.1775 8.63643 11.3638C8.82272 11.55 9.09308 11.6249 9.34866 11.561L12.1103 10.8706C12.6163 10.7441 13.0783 10.4825 13.4471 10.1138L13.8638 9.69709C14.1567 9.4042 14.1567 8.92933 13.8638 8.63643C13.5709 8.34354 13.096 8.34354 12.8031 8.63643L12.3864 9.0531C12.2099 9.22962 11.9887 9.35486 11.7465 9.4154L10.1975 9.80265L10.2978 9.40177C10.4635 8.73879 10.5286 8.48786 10.6276 8.25825C10.7204 8.043 10.8362 7.83842 10.973 7.64808C11.119 7.44505 11.3007 7.26016 11.7839 6.77694L13.6682 4.89267C13.963 5.52463 14.4756 6.03716 15.1075 6.33201Z" fill="#DEDEDE"/>
</svg>
