<svg width="32" height="32" viewBox="0 0 32 32" fill="none" xmlns="http://www.w3.org/2000/svg">
    <path fill-rule="evenodd" clip-rule="evenodd" d="M10.6665 3.25L10.6329 3.25C9.26122 3.25 8.18579 3.24999 7.32144 3.32061C6.4413 3.39252 5.71419 3.54138 5.05606 3.87671C3.97413 4.42798 3.09449 5.30762 2.54322 6.38955C2.20788 7.04768 2.05903 7.77479 1.98712 8.65494C1.9165 9.51929 1.9165 10.5947 1.9165 11.9664L1.9165 12V20L1.9165 20.0336C1.9165 21.4053 1.9165 22.4807 1.98712 23.3451C2.05903 24.2252 2.20788 24.9523 2.54322 25.6104C3.09449 26.6924 3.97413 27.572 5.05606 28.1233C5.71419 28.4586 6.4413 28.6075 7.32144 28.6794C8.18577 28.75 9.26119 28.75 10.6329 28.75H10.6329H10.6665H21.3332H21.3668H21.3668C22.7385 28.75 23.8139 28.75 24.6782 28.6794C25.5584 28.6075 26.2855 28.4586 26.9436 28.1233C28.0255 27.572 28.9052 26.6924 29.4565 25.6104C29.7918 24.9523 29.9406 24.2252 30.0126 23.3451C30.0832 22.4807 30.0832 21.4053 30.0832 20.0336V20.0336V20V12V11.9664V11.9664C30.0832 10.5947 30.0832 9.51927 30.0126 8.65494C29.9406 7.77479 29.7918 7.04768 29.4565 6.38955C28.9052 5.30762 28.0255 4.42798 26.9436 3.87671C26.2855 3.54138 25.5584 3.39252 24.6782 3.32061C23.8139 3.24999 22.7385 3.25 21.3667 3.25L21.3332 3.25H10.6665ZM5.73704 5.21322C6.14847 5.00359 6.65621 4.87996 7.44359 4.81563C8.23972 4.75058 9.254 4.75 10.6665 4.75H21.3332C22.7457 4.75 23.76 4.75058 24.5561 4.81563C25.3435 4.87996 25.8512 5.00359 26.2626 5.21322C27.0623 5.62068 27.7125 6.27085 28.12 7.07054C28.3296 7.48197 28.4532 7.9897 28.5175 8.77708C28.5826 9.57322 28.5832 10.5875 28.5832 12V20C28.5832 21.4125 28.5826 22.4268 28.5175 23.2229C28.4532 24.0103 28.3296 24.518 28.12 24.9295C27.7125 25.7291 27.0623 26.3793 26.2626 26.7868C25.8512 26.9964 25.3435 27.12 24.5561 27.1844C23.76 27.2494 22.7457 27.25 21.3332 27.25H10.6665C9.25399 27.25 8.23972 27.2494 7.44359 27.1844C6.65621 27.12 6.14847 26.9964 5.73704 26.7868C4.93736 26.3793 4.28719 25.7291 3.87973 24.9295C3.67009 24.518 3.54647 24.0103 3.48213 23.2229C3.41709 22.4268 3.4165 21.4125 3.4165 20V12C3.4165 10.5875 3.41709 9.57322 3.48213 8.77708C3.54647 7.9897 3.67009 7.48197 3.87973 7.07054C4.28719 6.27085 4.93736 5.62068 5.73704 5.21322ZM8.41586 10.0426C8.07122 9.81286 7.60556 9.90599 7.3758 10.2506C7.14604 10.5953 7.23917 11.0609 7.58381 11.2907L8.91715 12.1796L10.2587 13.074L10.3978 13.1667C12.1888 14.361 13.2555 15.0724 14.4268 15.3531C15.4609 15.6008 16.5388 15.6008 17.5728 15.3531C18.7442 15.0724 19.8109 14.361 21.6019 13.1667L21.741 13.074L23.0825 12.1796L24.4159 11.2907C24.7605 11.0609 24.8536 10.5953 24.6239 10.2506C24.3941 9.90599 23.9285 9.81286 23.5838 10.0426L22.2505 10.9315L20.9089 11.8259C18.9354 13.1416 18.1021 13.6838 17.2233 13.8944C16.419 14.0871 15.5806 14.0871 14.7764 13.8944C13.8976 13.6838 13.0643 13.1416 11.0907 11.8259L9.7492 10.9315L8.41586 10.0426Z" fill="#ffffff"/>
</svg>
