<svg width="24" height="24" viewBox="0 0 24 24" fill="none" xmlns="http://www.w3.org/2000/svg">
<path fill-rule="evenodd" clip-rule="evenodd" d="M10 2.25H9.96644C8.59472 2.25 7.51929 2.24999 6.65494 2.32061C5.77479 2.39252 5.04769 2.54138 4.38955 2.87671C3.30762 3.42798 2.42798 4.30762 1.87671 5.38955C1.54138 6.04769 1.39252 6.77479 1.32061 7.65494C1.24999 8.51929 1.25 9.59472 1.25 10.9664V11V13V13.0336C1.25 14.4053 1.24999 15.4807 1.32061 16.3451C1.39252 17.2252 1.54138 17.9523 1.87671 18.6104C2.42798 19.6924 3.30762 20.572 4.38955 21.1233C5.04769 21.4586 5.77479 21.6075 6.65494 21.6794C7.51927 21.75 8.59469 21.75 9.96637 21.75H9.96642H10H14H14.0336H14.0336C15.4053 21.75 16.4807 21.75 17.3451 21.6794C18.2252 21.6075 18.9523 21.4586 19.6104 21.1233C20.6924 20.572 21.572 19.6924 22.1233 18.6104C22.4586 17.9523 22.6075 17.2252 22.6794 16.3451C22.75 15.4807 22.75 14.4053 22.75 13.0336V13.0336V13V11V10.9664V10.9664C22.75 9.59469 22.75 8.51927 22.6794 7.65494C22.6075 6.77479 22.4586 6.04769 22.1233 5.38955C21.572 4.30762 20.6924 3.42798 19.6104 2.87671C18.9523 2.54138 18.2252 2.39252 17.3451 2.32061C16.4807 2.24999 15.4053 2.25 14.0336 2.25H14H10ZM5.07054 4.21322C5.48197 4.00359 5.9897 3.87996 6.77708 3.81563C7.57322 3.75058 8.58749 3.75 10 3.75H14C15.4125 3.75 16.4268 3.75058 17.2229 3.81563C18.0103 3.87996 18.518 4.00359 18.9295 4.21322C19.7291 4.62068 20.3793 5.27085 20.7868 6.07054C20.9964 6.48197 21.12 6.9897 21.1844 7.77708C21.2494 8.57322 21.25 9.58749 21.25 11V13C21.25 14.4125 21.2494 15.4268 21.1844 16.2229C21.12 17.0103 20.9964 17.518 20.7868 17.9295C20.3793 18.7291 19.7291 19.3793 18.9295 19.7868C18.518 19.9964 18.0103 20.12 17.2229 20.1844C16.4268 20.2494 15.4125 20.25 14 20.25H10C8.58749 20.25 7.57322 20.2494 6.77708 20.1844C5.9897 20.12 5.48197 19.9964 5.07054 19.7868C4.27085 19.3793 3.62068 18.7291 3.21322 17.9295C3.00359 17.518 2.87996 17.0103 2.81563 16.2229C2.75058 15.4268 2.75 14.4125 2.75 13V11C2.75 9.58749 2.75058 8.57322 2.81563 7.77708C2.87996 6.9897 3.00359 6.48197 3.21322 6.07054C3.62068 5.27085 4.27085 4.62068 5.07054 4.21322ZM6.41603 7.37596C6.07138 7.1462 5.60573 7.23933 5.37596 7.58397C5.1462 7.92862 5.23933 8.39427 5.58398 8.62404L6.58398 9.2907L6.70034 9.36829L6.70035 9.3683C8.19864 10.3674 9.09026 10.9619 10.0527 11.2519C11.3227 11.6346 12.6773 11.6346 13.9473 11.2519C14.9097 10.9619 15.8014 10.3674 17.2997 9.36829L17.416 9.2907L18.416 8.62404C18.7607 8.39427 18.8538 7.92862 18.624 7.58397C18.3943 7.23933 17.9286 7.1462 17.584 7.37596L16.584 8.04263C14.9337 9.14281 14.2367 9.59812 13.5145 9.81569C12.5268 10.1133 11.4732 10.1133 10.4855 9.81569C9.76334 9.59812 9.0663 9.14281 7.41603 8.04263L7.41597 8.04259L6.41603 7.37596Z" fill="#AAB0C6"/>
</svg>
