<svg width="32" height="32" viewBox="0 0 32 32" fill="none" xmlns="http://www.w3.org/2000/svg">
<path fill-rule="evenodd" clip-rule="evenodd" d="M6.66602 1.91663C7.08023 1.91663 7.41602 2.25241 7.41602 2.66663V4.37271L8.24346 4.16585C10.7248 3.54551 13.351 3.93629 15.5442 5.25223C17.5828 6.4754 20.0541 6.74668 22.3095 5.99488L26.4288 4.62178C26.6576 4.54554 26.909 4.5839 27.1045 4.72486C27.3001 4.86582 27.416 5.09221 27.416 5.33329V20C27.416 20.3228 27.2094 20.6094 26.9032 20.7115L22.7839 22.0846C20.1131 22.9748 17.1866 22.6536 14.7725 21.2051C12.9204 20.0939 10.7027 19.7639 8.60727 20.2877L7.41602 20.5855V29.3333C7.41602 29.7475 7.08023 30.0833 6.66602 30.0833C6.2518 30.0833 5.91602 29.7475 5.91602 29.3333V20V5.33329V2.66663C5.91602 2.25241 6.2518 1.91663 6.66602 1.91663ZM7.41602 19.0394L8.24346 18.8325C10.7248 18.2122 13.351 18.603 15.5442 19.9189C17.5828 21.1421 20.0541 21.4133 22.3095 20.6615L25.916 19.4594V6.37386L22.7839 7.4179C20.1131 8.30818 17.1866 7.98693 14.7725 6.53847C12.9204 5.42721 10.7027 5.09721 8.60726 5.62106L7.41602 5.91887V19.0394Z" fill="#111111"/>
</svg>
