<svg width="32" height="32" viewBox="0 0 32 32" fill="none" xmlns="http://www.w3.org/2000/svg">
    <path fill-rule="evenodd" clip-rule="evenodd" d="M15.9998 3.41663C9.05025 3.41663 3.4165 9.05038 3.4165 16C3.4165 22.9495 9.05025 28.5833 15.9998 28.5833C22.9494 28.5833 28.5832 22.9495 28.5832 16C28.5832 9.05038 22.9494 3.41663 15.9998 3.41663ZM1.9165 16C1.9165 8.22195 8.22183 1.91663 15.9998 1.91663C23.7778 1.91663 30.0832 8.22195 30.0832 16C30.0832 23.778 23.7778 30.0833 15.9998 30.0833C8.22183 30.0833 1.9165 23.778 1.9165 16ZM17.3332 21.3333C17.3332 22.0697 16.7362 22.6666 15.9998 22.6666C15.2635 22.6666 14.6665 22.0697 14.6665 21.3333C14.6665 20.5969 15.2635 20 15.9998 20C16.7362 20 17.3332 20.5969 17.3332 21.3333ZM14.0832 13.3333C14.0832 12.2747 14.9413 11.4166 15.9998 11.4166C17.0584 11.4166 17.9165 12.2747 17.9165 13.3333V13.4951C17.9165 14.0463 17.6975 14.5749 17.3077 14.9647L15.4695 16.803C15.1766 17.0959 15.1766 17.5707 15.4695 17.8636C15.7624 18.1565 16.2373 18.1565 16.5302 17.8636L18.3684 16.0254C19.0395 15.3543 19.4165 14.4441 19.4165 13.4951V13.3333C19.4165 11.4463 17.8868 9.91663 15.9998 9.91663C14.1129 9.91663 12.5832 11.4463 12.5832 13.3333V14C12.5832 14.4142 12.919 14.75 13.3332 14.75C13.7474 14.75 14.0832 14.4142 14.0832 14V13.3333Z" fill="#111111"/>
</svg>