<svg width="20" height="20" viewBox="0 0 20 20" fill="none" xmlns="http://www.w3.org/2000/svg">
<path fill-rule="evenodd" clip-rule="evenodd" d="M12.6904 2.31301C13.2672 2.31301 13.7349 2.78064 13.7349 3.35749C13.7349 3.9294 13.2752 4.39396 12.7052 4.40187H11.1862L11.5772 3.0984C11.717 2.63224 12.1461 2.31301 12.6328 2.31301H12.6904ZM15.2349 3.35749C15.2349 3.72969 15.1549 4.08323 15.0113 4.40187H15.9203C17.1274 4.40187 18.1059 5.38039 18.1059 6.58746C18.1059 7.79453 17.1274 8.77305 15.9203 8.77305H10.9282V8.85202H17.3541C17.7683 8.85202 18.1041 9.18781 18.1041 9.60202V14.2769V14.309C18.1041 15.1219 18.1041 15.7775 18.0607 16.3084C18.0161 16.855 17.9217 17.3351 17.6954 17.7794C17.3359 18.485 16.7622 19.0586 16.0566 19.4182C15.6124 19.6445 15.1322 19.7389 14.5856 19.7835C14.0547 19.8269 13.3991 19.8269 12.5862 19.8269H12.5541H8.37246H8.34034C7.52751 19.8269 6.8719 19.8269 6.34099 19.7835C5.79436 19.7389 5.31422 19.6445 4.87 19.4182C4.16439 19.0586 3.59071 18.485 3.23119 17.7794C3.00485 17.3351 2.91049 16.855 2.86583 16.3084C2.82245 15.7775 2.82246 15.1218 2.82246 14.309L2.82246 14.2769V9.60202C2.82246 9.18781 3.15825 8.85202 3.57246 8.85202H9.42822V8.77305H4.43559C3.22852 8.77305 2.25 7.79453 2.25 6.58746C2.25 5.38039 3.22852 4.40187 4.43559 4.40187H5.34462C5.20101 4.08323 5.12109 3.72969 5.12109 3.35749C5.12109 1.95221 6.2603 0.813007 7.66558 0.813007H7.72317C8.83167 0.813007 9.81357 1.51444 10.178 2.55206C10.5424 1.51444 11.5243 0.813007 12.6328 0.813007H12.6904C14.0957 0.813007 15.2349 1.95221 15.2349 3.35749ZM9.42822 10.352H4.32246V14.2769C4.32246 15.1294 4.32305 15.7236 4.36085 16.1862C4.39793 16.6401 4.46706 16.9009 4.5677 17.0984C4.78341 17.5217 5.12762 17.8659 5.55098 18.0817C5.7485 18.1823 6.00927 18.2514 6.46314 18.2885C6.92577 18.3263 7.52001 18.3269 8.37246 18.3269H12.5541C13.4066 18.3269 14.0008 18.3263 14.4634 18.2885C14.9173 18.2514 15.1781 18.1823 15.3756 18.0817C15.799 17.8659 16.1432 17.5217 16.3589 17.0984C16.4595 16.9009 16.5286 16.6401 16.5657 16.1862C16.6035 15.7236 16.6041 15.1294 16.6041 14.2769V10.352H10.9282V15.9188C10.9282 16.333 10.5924 16.6688 10.1782 16.6688C9.76401 16.6688 9.42822 16.333 9.42822 15.9188V10.352ZM15.9203 7.27305H10.9282V5.90198H12.6904L12.7135 5.90187H15.9203C16.2989 5.90187 16.6059 6.20882 16.6059 6.58746C16.6059 6.9661 16.2989 7.27305 15.9203 7.27305ZM7.66558 5.90198H9.42822V7.27305H4.43559C4.05695 7.27305 3.75 6.9661 3.75 6.58746C3.75 6.20882 4.05695 5.90187 4.43559 5.90187H7.64244L7.66558 5.90198ZM7.65077 4.40187C7.08075 4.39396 6.62109 3.9294 6.62109 3.35749C6.62109 2.78064 7.08873 2.31301 7.66558 2.31301H7.72317C8.20985 2.31301 8.63891 2.63224 8.77876 3.0984L9.1698 4.40187H7.65077Z" fill="#AAB0C6"/>
</svg>
