<svg width="20" height="20" viewBox="0 0 20 20" fill="none" xmlns="http://www.w3.org/2000/svg">
<g id="leading-icon" clip-path="url(#clip0_3642_14253)">
<path id="Icon" fill-rule="evenodd" clip-rule="evenodd" d="M9.24743 2.83671C9.55787 2.50845 9.81244 2.4165 10 2.4165C10.1876 2.4165 10.4421 2.50845 10.7526 2.83671C11.0645 3.16656 11.38 3.6841 11.6607 4.38582C11.8534 4.86767 12.0228 5.41891 12.1621 6.02567C11.4677 5.95412 10.7432 5.9165 10 5.9165C9.2568 5.9165 8.53225 5.95412 7.8379 6.02567C7.97719 5.41891 8.1466 4.86767 8.33933 4.38582C8.62002 3.6841 8.93549 3.16656 9.24743 2.83671ZM6.25671 6.25655C6.42899 5.3593 6.66235 4.5394 6.94662 3.82874C7.08177 3.49087 7.23101 3.17117 7.39454 2.87595C5.30233 3.64136 3.64152 5.30217 2.87611 7.39438C3.17133 7.23085 3.49103 7.08161 3.8289 6.94646C4.53956 6.66219 5.35946 6.42883 6.25671 6.25655ZM2.41667 9.99984C2.41667 9.99997 2.41667 10.0001 2.41667 10.0002C2.41679 10.1877 2.50883 10.4422 2.83687 10.7524C3.16672 11.0643 3.68426 11.3798 4.38599 11.6605C4.86783 11.8532 5.41907 12.0226 6.02583 12.1619C5.95428 11.4676 5.91667 10.743 5.91667 9.99984C5.91667 9.25664 5.95428 8.53209 6.02583 7.83774C5.41907 7.97703 4.86783 8.14644 4.38599 8.33917C3.68426 8.61986 3.16672 8.93533 2.83687 9.24727C2.50861 9.55771 2.41667 9.81227 2.41667 9.99984ZM7.56679 12.433C7.46981 11.6706 7.41667 10.8532 7.41667 9.99984C7.41667 9.14645 7.46981 8.32904 7.56679 7.56663C8.3292 7.46965 9.14662 7.4165 10 7.4165C10.8534 7.4165 11.6708 7.46965 12.4332 7.56662C12.5302 8.32904 12.5833 9.14645 12.5833 9.99984C12.5833 10.8532 12.5302 11.6706 12.4332 12.433C11.6708 12.53 10.8534 12.5832 10 12.5832C9.14662 12.5832 8.3292 12.53 7.56679 12.433ZM6.25671 13.7431C5.35946 13.5708 4.53956 13.3375 3.8289 13.0532C3.49103 12.9181 3.17133 12.7688 2.87611 12.6053C3.64152 14.6975 5.30233 16.3583 7.39454 17.1237C7.23101 16.8285 7.08177 16.5088 6.94662 16.1709C6.66235 15.4603 6.42899 14.6404 6.25671 13.7431ZM0.916667 10.0041C0.916666 10.0027 0.916666 10.0013 0.916666 9.99984C0.916666 9.99841 0.916666 9.99697 0.916667 9.99554C0.918987 4.98093 4.98484 0.916504 10 0.916504C15.0166 0.916504 19.0833 4.98325 19.0833 9.99984C19.0833 15.0164 15.0166 19.0832 10 19.0832C4.98484 19.0832 0.918986 15.0187 0.916667 10.0041ZM17.1239 7.39438C16.3585 5.30216 14.6977 3.64135 12.6055 2.87595C12.769 3.17116 12.9182 3.49087 13.0534 3.82874C13.3376 4.5394 13.571 5.3593 13.7433 6.25655C14.6405 6.42883 15.4604 6.66219 16.1711 6.94646C16.509 7.0816 16.8287 7.23085 17.1239 7.39438ZM13.9742 7.83774C14.5809 7.97703 15.1322 8.14644 15.614 8.33917C16.3157 8.61986 16.8333 8.93533 17.1631 9.24727C17.4914 9.55771 17.5833 9.81227 17.5833 9.99984C17.5833 10.1874 17.4914 10.442 17.1631 10.7524C16.8333 11.0643 16.3157 11.3798 15.614 11.6605C15.1322 11.8532 14.5809 12.0226 13.9742 12.1619C14.0457 11.4676 14.0833 10.743 14.0833 9.99984C14.0833 9.25664 14.0457 8.53209 13.9742 7.83774ZM13.7433 13.7431C14.6405 13.5708 15.4604 13.3375 16.1711 13.0532C16.509 12.9181 16.8287 12.7688 17.1239 12.6053C16.3585 14.6975 14.6977 16.3583 12.6055 17.1237C12.769 16.8285 12.9182 16.5088 13.0534 16.1709C13.3376 15.4603 13.571 14.6404 13.7433 13.7431ZM12.1621 13.974C12.0228 14.5808 11.8534 15.132 11.6607 15.6139C11.38 16.3156 11.0645 16.8331 10.7526 17.163C10.4421 17.4912 10.1876 17.5832 10 17.5832C9.81244 17.5832 9.55787 17.4912 9.24743 17.163C8.93549 16.8331 8.62002 16.3156 8.33933 15.6139C8.1466 15.132 7.97719 14.5808 7.8379 13.974C8.53225 14.0456 9.2568 14.0832 10 14.0832C10.7432 14.0832 11.4677 14.0456 12.1621 13.974Z" fill="#6D6D6D"/>
</g>
<defs>
<clipPath id="clip0_3642_14253">
<rect width="20" height="20" fill="white"/>
</clipPath>
</defs>
</svg>
