<svg width="24" height="24" viewBox="0 0 24 24" fill="none" xmlns="http://www.w3.org/2000/svg">
    <path fill-rule="evenodd" clip-rule="evenodd" d="M2.46967 2.47065C2.76256 2.17775 3.23744 2.17775 3.53033 2.47065L6.35611 5.29642L10.409 9.34928L14.6516 13.5919L18.7046 17.6449L21.5303 20.4706C21.8232 20.7635 21.8232 21.2384 21.5303 21.5313C21.2374 21.8242 20.7626 21.8242 20.4697 21.5313L18.0737 19.1353C16.4783 20.1072 14.4611 20.751 12 20.751C8.28446 20.751 5.5928 19.2844 3.83476 17.4587C2.10654 15.664 1.25 13.4859 1.25 12.001C1.25 10.3107 2.36419 7.68043 4.68861 5.75025L2.46967 3.53131C2.17678 3.23841 2.17678 2.76354 2.46967 2.47065ZM5.75447 6.81611C3.65136 8.50639 2.75 10.7949 2.75 12.001C2.75 13.016 3.39346 14.8379 4.91524 16.4182C6.4072 17.9676 8.71554 19.251 12 19.251C14.0186 19.251 15.6642 18.7665 16.9768 18.0384L14.0679 15.1296C13.4752 15.522 12.7639 15.751 11.9999 15.751C9.92884 15.751 8.24991 14.072 8.24991 12.001C8.24991 11.237 8.47892 10.5257 8.87133 9.93296L5.75447 6.81611ZM9.96907 11.0307C9.82845 11.3244 9.74991 11.6533 9.74991 12.001C9.74991 13.2436 10.7573 14.251 11.9999 14.251C12.3476 14.251 12.6764 14.1724 12.9702 14.0318L9.96907 11.0307ZM12 4.75098C10.9651 4.75098 10.0305 4.87832 9.19036 5.0989C9.03236 5.14038 8.87761 5.18518 8.72609 5.23308C8.33114 5.35795 7.90975 5.13901 7.78489 4.74406C7.66002 4.34912 7.87897 3.92773 8.27391 3.80286C8.44903 3.7475 8.62754 3.69582 8.80946 3.64806C9.77804 3.39377 10.8409 3.25098 12 3.25098C15.7155 3.25098 18.4072 4.71759 20.1652 6.54325C21.8935 8.33793 22.75 10.516 22.75 12.001C22.75 13.0909 22.2895 14.5331 21.3966 15.9092C21.2795 16.0897 21.1545 16.2698 21.0215 16.4486C20.7743 16.781 20.3044 16.85 19.9721 16.6027C19.6397 16.3555 19.5707 15.8857 19.8179 15.5534C19.9317 15.4004 20.0385 15.2466 20.1383 15.0927C20.9206 13.887 21.25 12.7252 21.25 12.001C21.25 10.9859 20.6065 9.16402 19.0848 7.58371C17.5928 6.03436 15.2845 4.75098 12 4.75098Z" fill="#111111"/>
</svg>
