<!--<svg width="25" height="24" viewBox="0 0 25 24" fill="none" xmlns="http://www.w3.org/2000/svg">-->
<!--    <path fill-rule="evenodd" clip-rule="evenodd" d="M13.6332 2.30699C12.8917 2.10185 12.1084 2.10185 11.3668 2.30699C10.9834 2.41306 10.5909 2.61057 10.0571 2.97698C9.51543 3.34875 8.87127 3.86348 7.97098 4.58371L5.97098 6.18371C4.83583 7.09183 4.38235 7.46271 4.059 7.90876C3.76019 8.32098 3.53787 8.78353 3.40265 9.27438C3.25633 9.80551 3.25002 10.3913 3.25002 11.845V17C3.25002 19.3472 5.15281 21.25 7.50002 21.25C8.19038 21.25 8.75002 20.6904 8.75002 20V16C8.75002 13.9289 10.429 12.25 12.5 12.25C14.5711 12.25 16.25 13.9289 16.25 16V20C16.25 20.6904 16.8097 21.25 17.5 21.25C19.8472 21.25 21.75 19.3472 21.75 17V11.845C21.75 10.3913 21.7437 9.80551 21.5974 9.27438C21.4622 8.78353 21.2398 8.32098 20.941 7.90876C20.6177 7.46271 20.1642 7.09183 19.0291 6.18371L17.0291 4.58371C16.1288 3.86348 15.4846 3.34875 14.943 2.97698C14.4092 2.61057 14.0166 2.41306 13.6332 2.30699ZM17.5 22.75C15.9812 22.75 14.75 21.5188 14.75 20V16C14.75 14.7573 13.7427 13.75 12.5 13.75C11.2574 13.75 10.25 14.7573 10.25 16V20C10.25 21.5188 9.0188 22.75 7.50002 22.75C4.32438 22.75 1.75002 20.1756 1.75002 17V11.845C1.75002 11.8062 1.75001 11.7678 1.75001 11.7299C1.74984 10.428 1.74973 9.62665 1.95653 8.87599C2.13947 8.21191 2.44025 7.5861 2.84453 7.0284C3.30151 6.39799 3.9273 5.89749 4.94404 5.08432C4.97367 5.06062 5.00363 5.03665 5.03394 5.01241L7.03394 3.41241L7.05686 3.39407C7.92925 2.69616 8.61594 2.1468 9.20819 1.74028C9.81342 1.32485 10.3613 1.02883 10.9669 0.861296C11.9701 0.583751 13.0299 0.583751 14.0332 0.861296C14.6388 1.02883 15.1866 1.32485 15.7918 1.74028C16.3841 2.1468 17.0708 2.69616 17.9432 3.39409L17.9661 3.41241L19.9661 5.01241C19.9964 5.03665 20.0264 5.06061 20.056 5.08431C21.0727 5.89748 21.6985 6.39799 22.1555 7.0284C22.5598 7.5861 22.8606 8.21191 23.0435 8.87599C23.2503 9.62665 23.2502 10.428 23.25 11.7299C23.25 11.7678 23.25 11.8062 23.25 11.845V17C23.25 20.1756 20.6757 22.75 17.5 22.75Z" fill="#5F6989"/>-->
<!--</svg>-->

<!---->

<!--<svg width="24" height="24" viewBox="0 0 24 24" fill="none" xmlns="http://www.w3.org/2000/svg">-->
<!--<path d="M20.25 18.45C19.45 18.76 18.59 18.93 17.69 18.93C16.79 18.93 15.98 18.77 15.2 18.48C14.67 18.29 14.17 18.04 13.71 17.72C12.58 16.98 11.66 15.91 11.11 14.66C12.22 14.14 12.99 13.01 12.99 11.71C12.99 10.41 12.22 9.28002 11.11 8.76002C10.69 8.55002 10.22 8.44002 9.72 8.44002C9.68 8.44002 9.65 8.44002 9.61 8.45002C7.86 8.50002 6.45 9.95002 6.45 11.71C6.45 13.47 7.85 14.9 9.6 14.96C10.16 16.35 11.06 17.56 12.21 18.48C11.44 18.77 10.6 18.93 9.72 18.93C5.74 18.93 2.5 15.69 2.5 11.71C2.5 7.73002 5.74 4.49002 9.72 4.49002C10.6 4.49002 11.44 4.65002 12.21 4.94002C12.74 5.13002 13.25 5.39002 13.71 5.70002C14.84 6.45002 15.75 7.51002 16.3 8.76002C15.19 9.28002 14.43 10.41 14.43 11.71C14.43 13.01 15.19 14.14 16.3 14.66C16.72 14.86 17.19 14.97 17.69 14.97C17.73 14.97 17.77 14.97 17.81 14.97C19.56 14.91 20.96 13.48 20.96 11.72C20.96 9.96002 19.55 8.51002 17.8 8.46002C17.25 7.08002 16.35 5.87002 15.2 4.95002C15.98 4.66002 16.82 4.50002 17.69 4.50002C18.56 4.50002 19.45 4.67002 20.25 4.98002C20.78 5.17002 21.28 5.43002 21.73 5.75002C22.18 5.43002 22.68 5.17002 23.21 4.98002C22.75 4.61002 22.26 4.28002 21.73 4.00002C20.52 3.36002 19.15 3.00002 17.69 3.00002C16.23 3.00002 14.9 3.35002 13.71 3.97002C12.52 3.35002 11.16 3.00002 9.72 3.00002C4.91 2.99002 1 6.90002 1 11.71C1 16.52 4.91 20.43 9.72 20.43C11.16 20.43 12.52 20.08 13.71 19.46C14.9 20.08 16.26 20.43 17.69 20.43C19.12 20.43 20.52 20.07 21.73 19.43C22.26 19.15 22.75 18.82 23.21 18.45C22.68 18.26 22.18 18 21.73 17.68C21.28 18 20.78 18.26 20.25 18.45ZM9.13 13.36C8.45 13.12 7.95 12.47 7.95 11.71C7.95 10.95 8.45 10.29 9.13 10.05C9.31 9.98002 9.51 9.94002 9.72 9.94002C10.06 9.94002 10.37 10.03 10.64 10.2C11.15 10.51 11.49 11.07 11.49 11.71C11.49 12.35 11.14 12.91 10.63 13.21C10.36 13.38 10.05 13.47 9.72 13.47C9.51 13.47 9.31 13.43 9.13 13.36ZM18.28 10.05C18.96 10.29 19.46 10.94 19.46 11.71C19.46 12.48 18.96 13.12 18.28 13.36C18.1 13.43 17.9 13.47 17.69 13.47C17.36 13.47 17.05 13.38 16.78 13.21C16.27 12.91 15.93 12.35 15.93 11.71C15.93 11.07 16.27 10.5 16.78 10.2C17.05 10.03 17.36 9.94002 17.69 9.94002C17.9 9.94002 18.1 9.98002 18.28 10.05Z" fill="black"/>-->
<!--</svg>-->

<svg width="25" height="24" viewBox="0 0 25 24" fill="none" xmlns="http://www.w3.org/2000/svg">
    <path fill-rule="evenodd" clip-rule="evenodd" d="M10.867 1.25H10.9H14.1H14.133H14.133C15.2252 1.24999 16.0907 1.24999 16.7883 1.30699C17.5017 1.36527 18.1053 1.48688 18.6565 1.76772C19.5502 2.22312 20.2769 2.94978 20.7323 3.84355C21.0131 4.39472 21.1347 4.99835 21.193 5.71173C21.25 6.40935 21.25 7.27485 21.25 8.36698V8.4V17L21.25 17.0953C21.25 17.1559 21.25 17.2149 21.25 17.2723V17.5C21.25 17.5092 21.2498 17.5183 21.2495 17.5275C21.2471 18.1267 21.2334 18.5512 21.1587 18.9267C20.7839 20.811 19.311 22.2839 17.4267 22.6587C16.9668 22.7502 16.4334 22.7501 15.5953 22.75H15.5953L15.5 22.75H7C5.20508 22.75 3.75 21.2949 3.75 19.5V8.4V8.367V8.36697C3.75 7.27484 3.74999 6.40935 3.80699 5.71173C3.86527 4.99835 3.98688 4.39472 4.26772 3.84355C4.72312 2.94978 5.44978 2.22312 6.34355 1.76772C6.89472 1.48688 7.49835 1.36527 8.21173 1.30699C8.90935 1.24999 9.77484 1.24999 10.867 1.25H10.867ZM5.25 19.5C5.25 20.4665 6.0335 21.25 7 21.25H15.5C16.4653 21.25 16.8384 21.2464 17.134 21.1876C18.4233 20.9311 19.4311 19.9233 19.6876 18.634C19.7279 18.4312 19.7423 18.1919 19.7473 17.75H7C6.0335 17.75 5.25 18.5335 5.25 19.5ZM5.25 16.7609V8.4C5.25 7.26752 5.25058 6.46326 5.30201 5.83388C5.35271 5.21325 5.44909 4.829 5.60423 4.52453C5.91582 3.913 6.413 3.41582 7.02453 3.10423C7.329 2.94909 7.71325 2.85271 8.33388 2.80201C8.96327 2.75058 9.76752 2.75 10.9 2.75H14.1C15.2325 2.75 16.0367 2.75058 16.6661 2.80201C17.2867 2.85271 17.671 2.94909 17.9755 3.10423C18.587 3.41582 19.0842 3.913 19.3958 4.52453C19.5509 4.829 19.6473 5.21325 19.698 5.83388C19.7494 6.46327 19.75 7.26752 19.75 8.4V16.25H7C6.35568 16.25 5.75515 16.4375 5.25 16.7609ZM8.75 7C8.75 6.58579 9.08579 6.25 9.5 6.25H15.5C15.9142 6.25 16.25 6.58579 16.25 7C16.25 7.41421 15.9142 7.75 15.5 7.75H9.5C9.08579 7.75 8.75 7.41421 8.75 7Z" fill="#1855f4"/>
</svg>
