<svg width="20" height="20" viewBox="0 0 20 20" fill="none" xmlns="http://www.w3.org/2000/svg">
<g id="leading-icon">
<path id="Icon" fill-rule="evenodd" clip-rule="evenodd" d="M9.83623 0.916504L9.86667 0.916505H10.1333L10.1638 0.916504C10.6979 0.916494 11.1438 0.916485 11.508 0.946244C11.8879 0.977282 12.2445 1.04439 12.5818 1.21624C13.0993 1.47989 13.5199 1.90059 13.7836 2.41803C13.9554 2.75529 14.0226 3.11195 14.0536 3.49183C14.0834 3.85606 14.0833 4.3019 14.0833 4.83603V4.83608V4.86651V5.47413C16.0917 6.80117 17.4167 9.07911 17.4167 11.6665C17.4167 15.7626 14.0961 19.0832 10 19.0832C5.90389 19.0832 2.58333 15.7626 2.58333 11.6665C2.58333 9.07911 3.90826 6.80117 5.91667 5.47413V4.86651L5.91666 4.83607V4.83607V4.83606C5.91665 4.30191 5.91665 3.85607 5.9464 3.49183C5.97744 3.11195 6.04455 2.75529 6.2164 2.41803C6.48005 1.90059 6.90075 1.47989 7.41819 1.21624C7.75545 1.04439 8.11211 0.977282 8.492 0.946244C8.85623 0.916485 9.30208 0.916494 9.83623 0.916504ZM12.5586 3.61398C12.5805 3.88244 12.583 4.22362 12.5833 4.71213C11.7789 4.41319 10.9085 4.24984 10 4.24984C9.09149 4.24984 8.22113 4.41319 7.4167 4.71213C7.41698 4.22362 7.41949 3.88244 7.44142 3.61398C7.46488 3.32686 7.50676 3.18958 7.55291 3.09902C7.67275 2.86381 7.86397 2.67259 8.09918 2.55275C8.18974 2.5066 8.32702 2.46472 8.61414 2.44126C8.91002 2.41709 9.29424 2.4165 9.86667 2.4165H10.1333C10.7058 2.4165 11.09 2.41709 11.3859 2.44126C11.673 2.46472 11.8103 2.5066 11.9008 2.55275C12.136 2.67259 12.3272 2.86381 12.4471 3.09902C12.4932 3.18958 12.5351 3.32686 12.5586 3.61398ZM10 17.5832C13.2677 17.5832 15.9167 14.9342 15.9167 11.6665C15.9167 8.39882 13.2677 5.74984 10 5.74984C6.73231 5.74984 4.08333 8.39882 4.08333 11.6665C4.08333 14.9342 6.73231 17.5832 10 17.5832ZM10.75 10.8332C10.75 10.419 10.4142 10.0832 10 10.0832C9.58578 10.0832 9.25 10.419 9.25 10.8332V12.4998C9.25 12.9141 9.58578 13.2498 10 13.2498C10.4142 13.2498 10.75 12.9141 10.75 12.4998V10.8332Z" fill="#6D6D6D"/>
</g>
</svg>
