<svg width="20" height="20" viewBox="0 0 20 20" fill="none" xmlns="http://www.w3.org/2000/svg">
<path fill-rule="evenodd" clip-rule="evenodd" d="M9.86634 0.916673L9.83591 0.916672C9.30175 0.916661 8.8559 0.916653 8.49167 0.946412C8.11179 0.97745 7.75513 1.04456 7.41787 1.2164C6.90042 1.48006 6.47972 1.90075 6.21607 2.4182C6.04423 2.75546 5.97712 3.11212 5.94608 3.492C5.91632 3.85624 5.91633 4.30208 5.91634 4.83624V4.83624L5.91634 4.86667V5.4743C3.90793 6.80134 2.58301 9.07928 2.58301 11.6667C2.58301 15.7628 5.90356 19.0833 9.99967 19.0833C14.0958 19.0833 17.4163 15.7628 17.4163 11.6667C17.4163 9.07928 16.0914 6.80134 14.083 5.4743V4.86667V4.83624V4.8362C14.083 4.30206 14.083 3.85623 14.0533 3.492C14.0222 3.11212 13.9551 2.75546 13.7833 2.4182C13.5196 1.90075 13.0989 1.48006 12.5815 1.2164C12.2442 1.04456 11.8876 0.97745 11.5077 0.946412C11.1434 0.916653 10.6976 0.916661 10.1634 0.916672L10.133 0.916673H9.86634ZM12.583 4.7123C12.5827 4.22379 12.5802 3.88261 12.5583 3.61415C12.5348 3.32703 12.4929 3.18975 12.4468 3.09918C12.3269 2.86398 12.1357 2.67276 11.9005 2.55291C11.8099 2.50677 11.6727 2.46489 11.3855 2.44143C11.0897 2.41726 10.7054 2.41667 10.133 2.41667H9.86634C9.29391 2.41667 8.9097 2.41726 8.61382 2.44143C8.3267 2.46489 8.18941 2.50677 8.09885 2.55291C7.86365 2.67276 7.67242 2.86398 7.55258 3.09918C7.50644 3.18975 7.46456 3.32703 7.4411 3.61415C7.41916 3.88261 7.41665 4.22379 7.41637 4.7123C8.22081 4.41336 9.09117 4.25001 9.99967 4.25001C10.9082 4.25001 11.7785 4.41336 12.583 4.7123ZM10.7497 10.8333C10.7497 10.4191 10.4139 10.0833 9.99967 10.0833C9.58546 10.0833 9.24967 10.4191 9.24967 10.8333V12.5C9.24967 12.9142 9.58546 13.25 9.99967 13.25C10.4139 13.25 10.7497 12.9142 10.7497 12.5V10.8333Z" fill="#DD0000"/>
</svg>
