<svg width="52" height="39" viewBox="0 0 52 39" fill="none" xmlns="http://www.w3.org/2000/svg">
<g clip-path="url(#clip0_4365_21415)">
<path d="M47.5198 32.0775C46.1657 32.9921 44.656 33.689 43.0388 34.117C41.8265 34.4389 40.5537 34.61 39.242 34.61C37.0029 34.61 34.8785 34.1115 32.972 33.218C31.6106 32.5796 30.3595 31.74 29.2575 30.7367C27.775 29.3876 26.5609 27.7432 25.7067 25.8939C27.3076 24.2458 28.2957 21.9868 28.2957 19.5C28.2957 17.0132 27.3076 14.7542 25.7067 13.1061C24.6852 12.0534 23.4141 11.2504 21.9913 10.7958C21.1334 10.5196 20.2204 10.3715 19.2739 10.3715C14.2984 10.3715 10.2512 14.467 10.2512 19.5C10.2512 24.533 14.2984 28.6285 19.2739 28.6285C20.2204 28.6285 21.1334 28.4804 21.9913 28.2042C22.9025 30.0544 24.0948 31.7363 25.5439 33.218C23.6374 34.1115 21.5131 34.61 19.2739 34.61C11.0259 34.61 4.33913 27.8447 4.33913 19.5C4.33913 11.1553 11.0259 4.39004 19.2739 4.39004C21.5131 4.39004 23.6374 4.88849 25.5439 5.78205C26.9053 6.42043 28.1556 7.26003 29.2575 8.26333C30.7401 9.61235 31.9541 11.2577 32.8093 13.107C32.6592 13.2616 32.5155 13.4207 32.3763 13.5853C32.3754 13.5863 32.3745 13.5881 32.3736 13.589C32.3293 13.6411 32.2868 13.6933 32.2434 13.7472C32.238 13.7545 32.2325 13.7609 32.2271 13.7683C32.1891 13.8158 32.1512 13.8643 32.1141 13.9128C32.1051 13.9247 32.0951 13.9375 32.0861 13.9503C32.0526 13.9942 32.0201 14.0381 31.9876 14.082C31.9749 14.0993 31.9622 14.1167 31.9496 14.1341C31.9207 14.1743 31.8917 14.2137 31.8637 14.2548C31.8483 14.2768 31.833 14.2996 31.8176 14.3216C31.7932 14.3582 31.7679 14.3938 31.7435 14.4313C31.7254 14.4579 31.7082 14.4853 31.6901 14.5127C31.6693 14.5457 31.6477 14.5786 31.6269 14.6115C31.607 14.6426 31.588 14.6746 31.5681 14.7066C31.55 14.7359 31.5319 14.7652 31.5139 14.7953C31.4922 14.831 31.4714 14.8667 31.4506 14.9024C31.4352 14.9289 31.4198 14.9545 31.4045 14.981C31.3819 15.0203 31.3602 15.0606 31.3385 15.0999C31.3258 15.1237 31.3123 15.1475 31.2996 15.1712C31.2761 15.2142 31.2535 15.2581 31.2318 15.302C31.221 15.3231 31.2101 15.3432 31.2002 15.3642C31.1767 15.4118 31.1532 15.4584 31.1306 15.5069C31.1215 15.5252 31.1134 15.5426 31.1044 15.5609C31.0799 15.6112 31.0574 15.6624 31.0338 15.7136C31.0266 15.7291 31.0194 15.7447 31.0131 15.7602C30.9886 15.8142 30.9651 15.8682 30.9425 15.923C30.9371 15.9358 30.9317 15.9486 30.9263 15.9614C30.9028 16.0182 30.8793 16.0758 30.8567 16.1343C30.8521 16.1453 30.8476 16.1553 30.844 16.1663C30.8205 16.2267 30.7979 16.288 30.7753 16.3492C30.7726 16.3575 30.769 16.3648 30.7663 16.373C30.7428 16.437 30.7202 16.502 30.6985 16.5669C30.6967 16.5724 30.6949 16.577 30.693 16.5825C30.6704 16.6501 30.6487 16.7178 30.628 16.7864C30.628 16.7892 30.6261 16.7919 30.6252 16.7946C30.3613 17.6516 30.2194 18.5616 30.2194 19.5046C30.2194 20.2902 30.3179 21.0539 30.5041 21.7819C30.5041 21.7846 30.5059 21.7874 30.5059 21.7901C30.524 21.8596 30.5421 21.9292 30.562 21.9977C30.5638 22.0042 30.5656 22.0106 30.5674 22.017C30.5855 22.0819 30.6045 22.1468 30.6243 22.2118C30.6271 22.2209 30.6307 22.231 30.6334 22.2401C30.6524 22.3014 30.6723 22.3627 30.6921 22.423C30.6958 22.4349 30.7003 22.4468 30.7048 22.4587C30.7247 22.5163 30.7446 22.5749 30.7654 22.6316C30.7708 22.6462 30.7762 22.6608 30.7816 22.6755C30.8015 22.7294 30.8214 22.7843 30.8431 22.8373C30.8494 22.8547 30.8567 22.8721 30.8639 22.8895C30.8838 22.9407 30.9046 22.991 30.9254 23.0422C30.9335 23.0614 30.9425 23.0815 30.9507 23.1007C30.9706 23.1483 30.9914 23.1959 31.0122 23.2434C31.0221 23.2654 31.0329 23.2882 31.0429 23.3102C31.0628 23.3541 31.0827 23.398 31.1035 23.4419C31.1152 23.4666 31.1279 23.4913 31.1396 23.516C31.1595 23.5562 31.1794 23.5974 31.1993 23.6376C31.2128 23.665 31.2273 23.6925 31.2418 23.7199C31.2607 23.7565 31.2797 23.7931 31.2987 23.8297C31.315 23.8599 31.3322 23.891 31.3484 23.9211C31.3665 23.9541 31.3846 23.987 31.4027 24.019C31.4217 24.0528 31.4406 24.0858 31.4605 24.1187C31.4777 24.148 31.494 24.1763 31.5112 24.2056C31.5328 24.2422 31.5554 24.2787 31.578 24.3153C31.5934 24.34 31.6079 24.3647 31.6232 24.3885C31.6486 24.4287 31.6739 24.4681 31.7001 24.5083C31.7127 24.5284 31.7263 24.5485 31.739 24.5677C31.7679 24.6117 31.7977 24.6546 31.8266 24.6976C31.8375 24.7132 31.8474 24.7287 31.8583 24.7434C31.8908 24.7909 31.9252 24.8376 31.9586 24.8842C31.9659 24.8943 31.974 24.9052 31.9812 24.9153C32.0183 24.9665 32.0572 25.0177 32.0951 25.068C32.0996 25.0735 32.1033 25.079 32.1078 25.0845C32.4929 25.5875 32.9286 26.0485 33.4077 26.46C33.4077 26.46 33.4095 26.461 33.4095 26.4619C33.4773 26.5195 33.5451 26.5771 33.6147 26.6329C33.6174 26.6347 33.6202 26.6375 33.6229 26.6393C33.7639 26.7527 33.9076 26.8625 34.055 26.9676C34.0586 26.9704 34.0622 26.9722 34.0658 26.975C34.1318 27.0216 34.1987 27.0682 34.2656 27.1131C34.2792 27.1222 34.2927 27.1313 34.3054 27.1396C34.3668 27.1807 34.4292 27.221 34.4916 27.2603C34.5033 27.2676 34.5142 27.2749 34.5259 27.2823C34.6742 27.3746 34.8261 27.4633 34.9797 27.5466C34.9924 27.5539 35.006 27.5603 35.0186 27.5676C35.0819 27.6015 35.1452 27.6344 35.2094 27.6673C35.2274 27.6764 35.2455 27.6856 35.2627 27.6947C35.3278 27.7267 35.3929 27.7588 35.458 27.7889C35.4706 27.7953 35.4833 27.8008 35.4959 27.8072C35.655 27.8813 35.8168 27.9499 35.9805 28.0148C35.9949 28.0203 36.0103 28.0267 36.0248 28.0322C36.0926 28.0587 36.1604 28.0834 36.2291 28.1081C36.2462 28.1145 36.2625 28.12 36.2797 28.1264C36.3547 28.1529 36.4306 28.1786 36.5066 28.2033C36.512 28.2051 36.5165 28.2069 36.521 28.2078C36.5229 28.2078 36.5238 28.2078 36.5256 28.2087C36.6241 28.2407 36.7244 28.27 36.8239 28.2984C36.842 28.3039 36.8609 28.3084 36.879 28.3139C36.9667 28.3377 37.0544 28.3606 37.1421 28.3816C37.1565 28.3853 37.171 28.3889 37.1855 28.3926C37.2804 28.4154 37.3771 28.4356 37.4729 28.4548C37.5001 28.4603 37.5272 28.4657 37.5543 28.4703C37.6366 28.4859 37.7197 28.5005 37.8029 28.5142C37.821 28.517 37.84 28.5206 37.858 28.5234C37.953 28.538 38.0488 28.5508 38.1455 28.5627C38.1762 28.5663 38.207 28.57 38.2377 28.5737C38.3227 28.5828 38.4077 28.592 38.4926 28.5984C38.5098 28.6002 38.527 28.602 38.5451 28.6029C38.6418 28.6102 38.7394 28.6157 38.8371 28.6203C38.8687 28.6221 38.9012 28.623 38.9338 28.624C39.0251 28.6267 39.1155 28.6294 39.2077 28.6294C39.2176 28.6294 39.2276 28.6294 39.2375 28.6294C40.918 28.6294 42.4919 28.1621 43.8406 27.349C44.9534 26.6786 45.9117 25.7732 46.6484 24.7004C47.6636 23.2242 48.2593 21.4316 48.2593 19.5009C48.2593 14.4679 44.2113 10.3724 39.2366 10.3724C39.2158 10.3724 39.1959 10.3733 39.1761 10.3733C39.0983 10.3733 39.0215 10.3751 38.9446 10.3779C38.9049 10.3788 38.8651 10.3806 38.8262 10.3824C38.7467 10.3861 38.6671 10.3907 38.5876 10.3962C38.5451 10.3989 38.5026 10.4026 38.4601 10.4062C38.3905 10.4126 38.3218 10.419 38.2531 10.4263C38.2124 10.4309 38.1717 10.4355 38.131 10.4401C38.0497 10.4501 37.9692 10.4611 37.8888 10.473C37.8472 10.4794 37.8056 10.4867 37.764 10.4931C37.7007 10.5041 37.6375 10.5151 37.5742 10.5269C37.5344 10.5343 37.4946 10.5425 37.4549 10.5498C37.369 10.5672 37.2831 10.5855 37.1972 10.6056C37.1647 10.6129 37.1321 10.6221 37.1005 10.6294C37.0345 10.6458 36.9694 10.6623 36.9043 10.6797C36.8709 10.6888 36.8365 10.698 36.8031 10.7071C36.7145 10.7318 36.6268 10.7583 36.5391 10.7858C36.5319 10.7876 36.5247 10.7903 36.5174 10.7922C35.6062 8.94196 34.4148 7.26094 32.9657 5.7793C34.8722 4.88575 36.9965 4.38729 39.2357 4.38729C40.5483 4.38729 41.8211 4.55832 43.0334 4.88026C44.6497 5.3092 46.1602 6.00521 47.5135 6.9198C48.8668 6.00521 50.3764 5.3092 51.9928 4.88026C50.6422 3.67025 49.1416 2.66695 47.5135 1.88406C47.2586 1.7615 47.0001 1.64352 46.7388 1.53194C44.3667 0.516744 41.8419 0 39.242 0C36.6422 0 34.1173 0.516744 31.739 1.53468C30.8775 1.90326 30.0494 2.33129 29.2575 2.81694C28.4656 2.33129 27.6376 1.90326 26.777 1.53468C24.3977 0.516744 21.8738 0 19.2739 0C16.674 0 14.1492 0.516744 11.7699 1.53468C9.47468 2.51696 7.41359 3.92268 5.64539 5.71162C3.87629 7.50148 2.48777 9.58583 1.51598 11.9089C0.509848 14.3152 0 16.8696 0 19.5C0 22.1304 0.509848 24.6848 1.51598 27.092C2.48777 29.4142 3.87629 31.4994 5.64539 33.2884C7.41359 35.0782 9.47468 36.483 11.7699 37.4653C14.1492 38.4833 16.6731 39 19.2739 39C21.8747 39 24.3977 38.4833 26.777 37.4653C27.6376 37.0967 28.4656 36.6687 29.2575 36.1831C30.0494 36.6687 30.8775 37.0967 31.739 37.4653C34.1173 38.4833 36.6422 39 39.242 39C41.8419 39 44.3667 38.4833 46.7451 37.4653C47.0064 37.3537 47.2649 37.2358 47.5198 37.1132C49.1488 36.3303 50.6485 35.327 52 34.117C50.3837 33.6881 48.8731 32.9921 47.5198 32.0775ZM20.5015 24.0739C20.1101 24.1809 19.6988 24.2385 19.2739 24.2385C16.6867 24.2385 14.5903 22.1166 14.5903 19.5C14.5903 16.8834 16.6867 14.7615 19.2739 14.7615C19.6988 14.7615 20.1101 14.8191 20.5015 14.9261C22.4921 15.4721 23.9565 17.3132 23.9565 19.5C23.9565 21.6868 22.4921 23.5279 20.5015 24.0739ZM36.0772 16.0081C36.0917 15.9944 36.1061 15.9816 36.1206 15.9688C36.1585 15.934 36.1974 15.9002 36.2372 15.8663C36.2535 15.8526 36.2688 15.8389 36.2851 15.8261C36.3258 15.7922 36.3674 15.7593 36.409 15.7273C36.4234 15.7163 36.4379 15.7054 36.4523 15.6944C36.5057 15.6541 36.559 15.6157 36.6142 15.5782C36.6178 15.5764 36.6205 15.5737 36.6241 15.5709C36.6838 15.5298 36.7452 15.4904 36.8076 15.452C36.8176 15.4456 36.8275 15.4401 36.8365 15.4346C36.8872 15.4035 36.9387 15.3743 36.9902 15.345C37.0074 15.335 37.0255 15.3258 37.0426 15.3167C37.0878 15.292 37.1339 15.2682 37.1801 15.2453C37.199 15.2353 37.2189 15.2261 37.2388 15.217C37.2858 15.1941 37.3337 15.1722 37.3816 15.1511C37.3988 15.1438 37.4169 15.1356 37.4341 15.1283C37.4937 15.1026 37.5543 15.0789 37.6149 15.056C37.6203 15.0542 37.6266 15.0514 37.632 15.0496C37.7017 15.024 37.7722 15.0002 37.8427 14.9773C37.8508 14.9746 37.858 14.9728 37.8662 14.97C37.9286 14.9508 37.9918 14.9325 38.056 14.9152C38.066 14.9124 38.0768 14.9097 38.0867 14.9069C38.1545 14.8895 38.2223 14.874 38.291 14.8594C38.2929 14.8594 38.2947 14.8594 38.2965 14.8585C38.367 14.8438 38.4384 14.831 38.5098 14.82C38.5207 14.8182 38.5324 14.8164 38.5433 14.8145C38.6888 14.7926 38.8362 14.7771 38.9862 14.7697C38.9934 14.7697 39.0016 14.7697 39.0088 14.7688C39.0847 14.7652 39.1616 14.7633 39.2384 14.7633C41.8247 14.7633 43.922 16.8843 43.922 19.5018C43.922 22.1194 41.8256 24.2403 39.2384 24.2403C39.1643 24.2403 39.0902 24.2385 39.0169 24.2348C39.0043 24.2348 38.9907 24.2339 38.9781 24.233C38.9049 24.2294 38.8325 24.2239 38.7602 24.2165C38.7593 24.2165 38.7575 24.2165 38.7566 24.2165C38.6879 24.2092 38.6201 24.2001 38.5523 24.19C38.536 24.1873 38.5189 24.1855 38.5026 24.1827C38.4348 24.1717 38.3679 24.1598 38.301 24.1461C38.292 24.1443 38.2829 24.1416 38.273 24.1397C38.2133 24.1269 38.1536 24.1132 38.0949 24.0986C38.0795 24.0949 38.0632 24.0903 38.0479 24.0867C37.9936 24.072 37.9403 24.0565 37.887 24.04C37.8707 24.0345 37.8535 24.0309 37.8372 24.0254C37.7694 24.0034 37.7016 23.9806 37.6357 23.9559C37.6203 23.9504 37.6058 23.944 37.5905 23.9385C37.5389 23.9193 37.4883 23.8992 37.4377 23.8772C37.4142 23.8672 37.3916 23.8571 37.369 23.8471C37.3265 23.8288 37.2849 23.8096 37.2433 23.7894C37.2189 23.7775 37.1954 23.7666 37.171 23.7538C37.1303 23.7336 37.0897 23.7126 37.0499 23.6907C37.0273 23.6788 37.0047 23.6669 36.983 23.6541C36.9387 23.6294 36.8944 23.6038 36.851 23.5772C36.8347 23.5672 36.8176 23.558 36.8013 23.548C36.7416 23.5114 36.6829 23.473 36.625 23.4337C36.6142 23.4263 36.6033 23.4181 36.5916 23.4099C36.5455 23.3779 36.4993 23.3449 36.4542 23.3111C36.4352 23.2974 36.4171 23.2818 36.3981 23.2681C36.361 23.2398 36.324 23.2105 36.2878 23.1803C36.2679 23.1639 36.2489 23.1474 36.2291 23.1309C36.1938 23.1007 36.1585 23.0706 36.1242 23.0395C36.1061 23.023 36.088 23.0075 36.0709 22.991C36.0329 22.9553 35.9949 22.9187 35.9579 22.8822C35.9452 22.8694 35.9325 22.8575 35.9199 22.8447C35.8702 22.7944 35.8214 22.7422 35.7744 22.6901C35.7698 22.6855 35.7653 22.68 35.7608 22.6745C35.7183 22.627 35.6767 22.5785 35.6369 22.5291C35.6243 22.5136 35.6116 22.4971 35.5981 22.4807C35.5664 22.4413 35.5357 22.4011 35.505 22.3608C35.4914 22.3426 35.4778 22.3243 35.4643 22.3051C35.4354 22.2648 35.4064 22.2246 35.3784 22.1834C35.3657 22.1651 35.354 22.1468 35.3413 22.1285C35.3106 22.0819 35.2808 22.0352 35.2518 21.9877C35.2437 21.9749 35.2356 21.9621 35.2283 21.9493C35.1542 21.8258 35.0864 21.6987 35.0231 21.5679C35.0159 21.5523 35.0087 21.5368 35.0014 21.5212C34.9779 21.4709 34.9553 21.4216 34.9336 21.3703C34.9255 21.3511 34.9174 21.3319 34.9101 21.3127C34.8903 21.2633 34.8704 21.2139 34.8523 21.1636C34.8451 21.1444 34.8378 21.1261 34.8315 21.1069C34.8116 21.0511 34.7926 20.9954 34.7754 20.9387C34.7718 20.9258 34.7673 20.913 34.7628 20.9002C34.7194 20.7585 34.6823 20.6131 34.6525 20.4658C34.6498 20.4521 34.6471 20.4375 34.6444 20.4237C34.6326 20.3652 34.6227 20.3058 34.6127 20.2463C34.61 20.2271 34.6073 20.2079 34.6046 20.1887C34.5965 20.132 34.5892 20.0762 34.5829 20.0186C34.5811 19.9994 34.5784 19.9802 34.5766 19.961C34.5702 19.8988 34.5657 19.8366 34.5621 19.7735C34.5621 19.7607 34.5603 19.7479 34.5594 19.7341C34.5558 19.6564 34.554 19.5787 34.554 19.5C34.554 19.4213 34.5558 19.3436 34.5594 19.2659C34.5594 19.2531 34.5612 19.2412 34.5621 19.2284C34.5657 19.1653 34.5702 19.1022 34.5766 19.039C34.5784 19.0208 34.5802 19.0015 34.582 18.9833C34.5883 18.9256 34.5956 18.868 34.6037 18.8113C34.6064 18.793 34.6091 18.7747 34.6118 18.7555C34.6218 18.6942 34.6317 18.6339 34.6435 18.5735C34.6462 18.5607 34.648 18.5479 34.6507 18.536C34.6814 18.3879 34.7185 18.2415 34.7619 18.0988C34.7646 18.0888 34.7682 18.0787 34.7718 18.0678C34.7908 18.0083 34.8098 17.9498 34.8306 17.8912C34.8369 17.8748 34.8432 17.8574 34.8496 17.8409C34.8686 17.7888 34.8893 17.7367 34.9101 17.6855C34.9174 17.6681 34.9246 17.6516 34.9318 17.6342C34.9544 17.5803 34.9788 17.5272 35.0033 17.4742C35.0096 17.4614 35.015 17.4486 35.0204 17.4358C35.0837 17.3032 35.1533 17.1742 35.2283 17.0489C35.2338 17.0397 35.2392 17.0306 35.2446 17.0224C35.2763 16.9702 35.3088 16.919 35.3422 16.8687C35.3522 16.8532 35.363 16.8385 35.373 16.823C35.4028 16.7782 35.4335 16.7343 35.4652 16.6913C35.4769 16.6757 35.4887 16.6593 35.4995 16.6437C35.533 16.5998 35.5664 16.5559 35.6008 16.5129C35.6107 16.5001 35.6207 16.4873 35.6306 16.4754C35.7219 16.3639 35.8177 16.2569 35.919 16.1544C35.9271 16.1462 35.9353 16.1389 35.9434 16.1306C35.985 16.0886 36.0275 16.0474 36.0709 16.0081H36.0772Z" fill="url(#paint0_linear_4365_21415)"/>
</g>
<defs>
<linearGradient id="paint0_linear_4365_21415" x1="1.17356" y1="2.98072" x2="29.7971" y2="45.4527" gradientUnits="userSpaceOnUse">
<stop stop-color="#DD0000"/>
<stop offset="1" stop-color="#DD0000" stop-opacity="0.46"/>
</linearGradient>
<clipPath id="clip0_4365_21415">
<rect width="52" height="39" fill="white"/>
</clipPath>
</defs>
</svg>
