<!--<svg width="16" height="17" viewBox="0 0 16 17" fill="none" xmlns="http://www.w3.org/2000/svg">-->
<!--<path fill-rule="evenodd" clip-rule="evenodd" d="M5.25 3.50004C5.25 2.16916 6.33579 1.08337 7.66667 1.08337C8.99755 1.08337 10.0833 2.16916 10.0833 3.50004C10.0833 4.83092 8.99755 5.91671 7.66667 5.91671C6.33579 5.91671 5.25 4.83092 5.25 3.50004ZM7.66667 2.58337C7.16421 2.58337 6.75 2.99759 6.75 3.50004C6.75 4.00249 7.16421 4.41671 7.66667 4.41671C8.16912 4.41671 8.58333 4.00249 8.58333 3.50004C8.58333 2.99759 8.16912 2.58337 7.66667 2.58337ZM5.25 8.50004C5.25 7.16916 6.33579 6.08337 7.66667 6.08337C8.99755 6.08337 10.0833 7.16916 10.0833 8.50004C10.0833 9.83092 8.99755 10.9167 7.66667 10.9167C6.33579 10.9167 5.25 9.83092 5.25 8.50004ZM7.66667 7.58337C7.16421 7.58337 6.75 7.99759 6.75 8.50004C6.75 9.00249 7.16421 9.41671 7.66667 9.41671C8.16912 9.41671 8.58333 9.00249 8.58333 8.50004C8.58333 7.99759 8.16912 7.58337 7.66667 7.58337ZM7.66667 11.0834C6.33579 11.0834 5.25 12.1692 5.25 13.5C5.25 14.8309 6.33579 15.9167 7.66667 15.9167C8.99755 15.9167 10.0833 14.8309 10.0833 13.5C10.0833 12.1692 8.99755 11.0834 7.66667 11.0834ZM6.75 13.5C6.75 12.9976 7.16421 12.5834 7.66667 12.5834C8.16912 12.5834 8.58333 12.9976 8.58333 13.5C8.58333 14.0025 8.16912 14.4167 7.66667 14.4167C7.16421 14.4167 6.75 14.0025 6.75 13.5Z" fill="#AAB0C6"/>-->
<!--</svg>-->
<svg width="16" height="17" viewBox="0 0 16 17" fill="none" xmlns="http://www.w3.org/2000/svg">
    <path fill-rule="evenodd" clip-rule="evenodd" d="M7.66667 5.16671C8.58333 5.16671 9.33333 4.41671 9.33333 3.50004C9.33333 2.58337 8.58333 1.83337 7.66667 1.83337C6.75 1.83337 6 2.58337 6 3.50004C6 4.41671 6.75 5.16671 7.66667 5.16671ZM7.66667 6.83337C6.75 6.83337 6 7.58337 6 8.50004C6 9.41671 6.75 10.1667 7.66667 10.1667C8.58333 10.1667 9.33333 9.41671 9.33333 8.50004C9.33333 7.58337 8.58333 6.83337 7.66667 6.83337ZM6 13.5C6 12.5834 6.75 11.8334 7.66667 11.8334C8.58333 11.8334 9.33333 12.5834 9.33333 13.5C9.33333 14.4167 8.58333 15.1667 7.66667 15.1667C6.75 15.1667 6 14.4167 6 13.5Z" fill="#6d6d6d"/>
</svg>
