<svg width="35" height="35" viewBox="0 0 35 35" fill="none" xmlns="http://www.w3.org/2000/svg">
<rect width="35" height="35" rx="10" fill="white"/>
<g clip-path="url(#clip0_3502_9714)">
<path d="M29.7756 17.5321C29.7756 17.5212 29.7756 17.5103 29.7756 17.4994C29.7756 10.7307 24.2682 5.22327 17.4995 5.22327C10.7308 5.22327 5.22339 10.7307 5.22339 17.4994C5.22339 24.2681 10.7308 29.7755 17.4995 29.7755C24.2682 29.7755 29.7073 24.3354 29.7736 17.6241C29.7736 17.5994 29.7756 17.5746 29.7756 17.5489C29.7756 17.5429 29.7756 17.538 29.7756 17.5321ZM17.4995 28.3895C11.4951 28.3895 6.6094 23.5038 6.6094 17.4994C6.6094 11.495 11.4951 6.60928 17.4995 6.60928C21.7724 6.60928 25.478 9.08331 27.261 12.6751C26.4264 12.0781 25.4334 11.69 24.3573 11.588C22.6951 9.66247 20.2369 8.44179 17.4995 8.44179C12.5049 8.44179 8.44092 12.5058 8.44092 17.5004C8.44092 22.495 12.5049 26.559 17.4995 26.559C22.4941 26.559 26.5581 22.495 26.5581 17.5004C26.5581 17.436 26.5571 17.3707 26.5561 17.3063L26.5512 17.3014C26.4492 15.8382 25.2265 14.6788 23.7376 14.6788C23.4297 14.6788 23.1337 14.7293 22.8565 14.8204C22.5901 14.2898 22.2466 13.8047 21.8417 13.379C22.4327 13.1018 23.0921 12.9463 23.7871 12.9463C26.3195 12.9463 28.3817 15.0026 28.3906 17.533C28.3906 17.5746 28.3896 17.6162 28.3886 17.6578C28.3847 17.8409 28.3688 18.0211 28.3441 18.1983L28.3678 18.1874C28.0124 23.8731 23.2742 28.3905 17.5005 28.3905L17.4995 28.3895ZM23.598 22.1485C21.8011 22.0762 20.2676 20.9684 19.5756 19.4081C20.0379 18.9052 20.321 18.235 20.321 17.4994C20.321 15.9441 19.0548 14.6779 17.4995 14.6779C15.9442 14.6779 14.678 15.9441 14.678 17.4994C14.678 19.0547 15.9442 20.3209 17.4995 20.3209C17.8163 20.3209 18.1202 20.2675 18.4044 20.1714C18.6747 20.7238 19.0271 21.2288 19.4459 21.6703C18.8538 21.9475 18.1945 22.1029 17.4995 22.1029C14.9611 22.1029 12.896 20.0378 12.896 17.4994C12.896 14.961 14.9611 12.8958 17.4995 12.8958C19.3498 12.8958 20.9477 13.9938 21.6783 15.5718C21.2051 16.0767 20.915 16.7549 20.915 17.4994C20.915 19.0547 22.1813 20.3209 23.7366 20.3209C24.0742 20.3209 24.3989 20.2615 24.6989 20.1516C24.4316 20.8743 24.0573 21.5465 23.597 22.1485H23.598ZM17.4995 18.9349C16.7075 18.9349 16.064 18.2914 16.064 17.4994C16.064 16.7074 16.7075 16.0639 17.4995 16.0639C18.2915 16.0639 18.935 16.7074 18.935 17.4994C18.935 18.2914 18.2915 18.9349 17.4995 18.9349ZM25.1721 17.4994C25.1721 18.2914 24.5286 18.9349 23.7366 18.9349C22.9446 18.9349 22.3011 18.2914 22.3011 17.4994C22.3011 16.7074 22.9446 16.0639 23.7366 16.0639C24.5286 16.0639 25.1721 16.7074 25.1721 17.4994ZM20.6834 12.4295C19.7607 11.8474 18.6687 11.5098 17.4995 11.5098C14.1968 11.5098 11.51 14.1967 11.51 17.4994C11.51 20.8021 14.1968 23.4889 17.4995 23.4889C18.635 23.4889 19.6973 23.1702 20.6032 22.6187C21.1556 22.9662 21.7684 23.2266 22.4218 23.3791C21.0883 24.4968 19.3716 25.172 17.4995 25.172C13.2692 25.172 9.82693 21.7297 9.82693 17.4994C9.82693 13.2691 13.2692 9.82681 17.4995 9.82681C19.4142 9.82681 21.1665 10.5327 22.5119 11.6969C21.8565 11.8395 21.2398 12.09 20.6834 12.4295Z" fill="#111111"/>
</g>
<defs>
<clipPath id="clip0_3502_9714">
<rect width="24.5522" height="24.5522" fill="white" transform="translate(5.22339 5.22327)"/>
</clipPath>
</defs>
</svg>
