<!--<svg width="25" height="24" viewBox="0 0 25 24" fill="none" xmlns="http://www.w3.org/2000/svg">-->
<!--<g id="inactive.icon">-->
<!--<path id="Icon" fill-rule="evenodd" clip-rule="evenodd" d="M12.4999 1.25C8.65365 1.25 5.34209 3.96483 4.58777 7.7364L3.33398 14.0054C2.93126 16.019 4.00016 18.0431 5.86748 18.873C6.5493 19.176 7.24912 19.4298 7.96108 19.6343L8.06484 19.8678C8.84382 21.6205 10.5819 22.75 12.4999 22.75C14.4179 22.75 16.156 21.6205 16.935 19.8678L17.0387 19.6343C17.7507 19.4298 18.4505 19.176 19.1323 18.873C20.9996 18.0431 22.0686 16.019 21.6658 14.0054L20.412 7.7364C19.6577 3.96483 16.3462 1.25 12.4999 1.25ZM16.3892 18.2581C16.3352 18.2662 16.2823 18.2802 16.2315 18.2997C13.791 18.9283 11.2088 18.9283 8.76833 18.2997C8.71754 18.2802 8.66464 18.2662 8.6106 18.2581C7.88357 18.0623 7.16975 17.8103 6.47668 17.5023C5.2415 16.9533 4.54174 15.6151 4.80485 14.2995L6.05864 8.03057C6.67273 4.96014 9.36867 2.75 12.4999 2.75C15.6311 2.75 18.3271 4.96014 18.9412 8.03057L20.195 14.2995C20.4581 15.6151 19.7583 16.9533 18.5231 17.5023C17.8301 17.8103 17.1162 18.0623 16.3892 18.2581ZM9.94866 20.0731C11.6374 20.3372 13.3624 20.3372 15.0511 20.0731C14.4241 20.808 13.4972 21.25 12.4999 21.25C11.5026 21.25 10.5757 20.808 9.94866 20.0731Z" fill="#AAB0C6"/>-->
<!--</g>-->
<!--</svg>-->

<svg width="25" height="24" viewBox="0 0 25 24" fill="none" xmlns="http://www.w3.org/2000/svg">
    <path fill-rule="evenodd" clip-rule="evenodd" d="M13.5 2.25C13.0858 2.25 12.75 2.58579 12.75 3C12.75 3.41422 13.0858 3.75 13.5 3.75L21.5 3.75C21.9142 3.75 22.25 3.41421 22.25 3C22.25 2.58579 21.9142 2.25 21.5 2.25L13.5 2.25ZM5.87109 2.25L5.9 2.25L7.1 2.25L7.12891 2.25C7.52427 2.24999 7.86534 2.24998 8.14627 2.27293C8.44278 2.29716 8.73769 2.35064 9.02148 2.49524C9.44484 2.71095 9.78905 3.05516 10.0048 3.47852C10.1494 3.76231 10.2028 4.05722 10.2271 4.35373C10.25 4.63466 10.25 4.97574 10.25 5.3711L10.25 5.4L10.25 6.6L10.25 6.62891C10.25 7.02427 10.25 7.36534 10.2271 7.64627C10.2028 7.94278 10.1494 8.2377 10.0048 8.52148C9.78905 8.94485 9.44485 9.28905 9.02148 9.50477C8.7377 9.64936 8.44278 9.70285 8.14627 9.72708C7.86534 9.75003 7.52427 9.75002 7.1289 9.75L7.1 9.75H5.9L5.8711 9.75C5.47574 9.75002 5.13466 9.75003 4.85373 9.72708C4.55722 9.70285 4.26231 9.64936 3.97852 9.50477C3.55516 9.28905 3.21095 8.94485 2.99524 8.52148C2.85064 8.2377 2.79715 7.94278 2.77293 7.64628C2.74998 7.36535 2.74999 7.02427 2.75 6.62891L2.75 6.6L2.75 5.4L2.75 5.3711C2.74999 4.97573 2.74998 4.63466 2.77293 4.35373C2.79715 4.05722 2.85064 3.76231 2.99524 3.47853C3.21095 3.05516 3.55516 2.71095 3.97852 2.49524C4.26231 2.35064 4.55722 2.29716 4.85373 2.27293C5.13466 2.24998 5.47573 2.24999 5.87109 2.25ZM4.97588 3.76795C4.77213 3.7846 4.69659 3.81285 4.65951 3.83175C4.51839 3.90365 4.40365 4.01839 4.33175 4.15951C4.31285 4.19659 4.28459 4.27213 4.26795 4.47588C4.25058 4.68838 4.25 4.96759 4.25 5.4L4.25 6.6C4.25 7.03242 4.25058 7.31162 4.26795 7.52413C4.28459 7.72787 4.31285 7.80341 4.33175 7.8405C4.40365 7.98162 4.51839 8.09635 4.65951 8.16826C4.69659 8.18715 4.77213 8.21541 4.97588 8.23206C5.18838 8.24942 5.46759 8.25 5.9 8.25H7.1C7.53242 8.25 7.81162 8.24942 8.02413 8.23206C8.22787 8.21541 8.30341 8.18715 8.34049 8.16826C8.48162 8.09635 8.59635 7.98162 8.66826 7.8405C8.68715 7.80341 8.71541 7.72787 8.73206 7.52413C8.74942 7.31162 8.75 7.03242 8.75 6.6L8.75 5.4C8.75 4.96759 8.74942 4.68838 8.73206 4.47588C8.71541 4.27213 8.68715 4.19659 8.66826 4.15951C8.59635 4.01839 8.48162 3.90365 8.34049 3.83175C8.30341 3.81285 8.22787 3.7846 8.02412 3.76795C7.81162 3.75059 7.53242 3.75 7.1 3.75L5.9 3.75C5.46759 3.75 5.18838 3.75059 4.97588 3.76795ZM2.75 21C2.75 20.5858 3.08579 20.25 3.5 20.25L21.5 20.25C21.9142 20.25 22.25 20.5858 22.25 21C22.25 21.4142 21.9142 21.75 21.5 21.75L3.5 21.75C3.08579 21.75 2.75 21.4142 2.75 21ZM12.75 9C12.75 8.58579 13.0858 8.25 13.5 8.25L21.5 8.25C21.9142 8.25 22.25 8.58579 22.25 9C22.25 9.41421 21.9142 9.75 21.5 9.75L13.5 9.75C13.0858 9.75 12.75 9.41422 12.75 9ZM3.5 14.25C3.08579 14.25 2.75 14.5858 2.75 15C2.75 15.4142 3.08579 15.75 3.5 15.75L21.5 15.75C21.9142 15.75 22.25 15.4142 22.25 15C22.25 14.5858 21.9142 14.25 21.5 14.25L3.5 14.25Z" fill="#FFFFFF"/>
</svg>
