<svg width="35" height="36" viewBox="0 0 35 36" fill="none" xmlns="http://www.w3.org/2000/svg">
<g clip-path="url(#clip0_3502_9748)">
<mask id="mask0_3502_9748" style="mask-type:luminance" maskUnits="userSpaceOnUse" x="0" y="0" width="35" height="36">
<path d="M35 0.5H0V35.5H35V0.5Z" fill="white"/>
</mask>
<g mask="url(#mask0_3502_9748)">
<path d="M35 0.5H0V35.5H35V0.5Z" fill="#242530"/>
<path d="M30.1759 32.7503C34.5638 24.1388 31.1397 13.6007 22.5282 9.2129C13.9166 4.82509 3.37852 8.24912 -1.00929 16.8607C-5.3971 25.4722 -1.97307 36.0103 6.63849 40.3981C15.2501 44.7859 25.7881 41.3619 30.1759 32.7503Z" fill="#DB00FF"/>
<path d="M9.87695 22.9602C9.99479 23.9199 10.6161 24.7779 11.6043 25.3455C12.5925 25.913 13.8665 26.1436 15.1461 25.9864C16.4258 25.8293 17.6062 25.2974 18.4277 24.5077C19.2492 23.7179 19.6445 22.7351 19.5267 21.7754" fill="white"/>
<path d="M9.88553 19.041C9.82009 18.5081 9.44302 18.1158 9.04331 18.1649C8.64361 18.214 8.37263 18.6858 8.43806 19.2188C8.5035 19.7517 8.88057 20.1439 9.28028 20.0949C9.67999 20.0458 9.95096 19.574 9.88553 19.041Z" fill="white"/>
<path d="M19.5352 17.8562C19.4697 17.3233 19.0927 16.931 18.693 16.9801C18.2933 17.0292 18.0223 17.501 18.0877 18.0339C18.1532 18.5669 18.5302 18.9591 18.9299 18.9101C19.3296 18.861 19.6006 18.3892 19.5352 17.8562Z" fill="white"/>
</g>
</g>
<defs>
<clipPath id="clip0_3502_9748">
<rect y="0.5" width="35" height="35" rx="10" fill="white"/>
</clipPath>
</defs>
</svg>
