<svg width="35" height="35" viewBox="0 0 35 35" fill="none" xmlns="http://www.w3.org/2000/svg">
<g id="Group 10814">
<rect id="Rectangle 2928" width="35" height="35" rx="10" fill="#111111"/>
<path id="Union" fill-rule="evenodd" clip-rule="evenodd" d="M18.7795 24.7453C16.1051 26.3364 12.4861 26.4988 8.98026 24.1587V24.1573C8.49894 23.8369 8.08479 23.4227 7.76438 22.9414C3.26882 16.189 8.04281 9 14.465 9C16.0877 9 17.6044 9.45899 18.8931 10.2539C20.1414 9.50182 21.5737 9.06996 23.21 9.06996C25.1549 9.06996 26.9472 9.73037 28.3772 10.8371C27.8595 11.2485 27.3908 11.72 26.9822 12.2391C25.9175 11.4779 24.6162 11.0288 23.21 11.0288C22.2658 11.0288 21.3681 11.2322 20.5577 11.5963C21.1564 12.218 21.6612 12.9309 22.0492 13.7117C25.718 12.6675 28.9449 16.7828 26.1259 20.4509C21.8766 23.7179 17.0285 18.8684 20.2942 14.6191L20.3095 14.6073C19.2499 12.4482 17.0285 10.9588 14.465 10.9588C9.46997 10.9588 5.77195 16.6157 9.44059 21.8598C9.60849 22.0991 9.81697 22.3076 10.0548 22.4755C12.5343 24.2203 15.0971 24.3137 17.1178 23.4057C16.5292 22.795 16.0313 22.0964 15.646 21.3317C11.9404 22.4697 8.63737 18.3171 11.4793 14.6191C15.7061 11.3694 20.5253 16.1502 17.3625 20.3831C18.42 22.5467 20.6431 24.0412 23.21 24.0412C24.6456 24.0412 25.9748 23.5724 27.0522 22.7805H27.0536C27.4691 23.294 27.9435 23.7585 28.4668 24.1629C27.0214 25.3116 25.1955 26 23.21 26C21.5867 26 20.0689 25.5407 18.7795 24.7453ZM12.9121 19.0181C15.0738 20.6803 17.5406 18.2136 15.8784 16.0519C13.7166 14.3896 11.2499 16.8564 12.9121 19.0181ZM21.7269 19.0181C23.8886 20.6803 26.3554 18.2136 24.6932 16.0519C22.5314 14.3896 20.0647 16.8564 21.7269 19.0181Z" fill="url(#paint0_linear_4075_22409)"/>
</g>
<defs>
<linearGradient id="paint0_linear_4075_22409" x1="6.50704" y1="10.2993" x2="19.0251" y2="28.7099" gradientUnits="userSpaceOnUse">
<stop stop-color="#DD0000"/>
<stop offset="1" stop-color="#DD0000" stop-opacity="0.46"/>
</linearGradient>
</defs>
</svg>
