<svg width="21" height="20" viewBox="0 0 21 20" fill="none" xmlns="http://www.w3.org/2000/svg">
<path fill-rule="evenodd" clip-rule="evenodd" d="M11.25 5.83336V2.31888C11.3078 2.37153 11.3732 2.43677 11.448 2.51798C11.7016 2.79344 12.0019 3.18267 12.4419 3.75463L14.8126 6.83655C15.4264 7.63452 15.8606 8.19978 16.1689 8.6715C16.472 9.13539 16.621 9.46168 16.6907 9.76847C16.83 10.3817 16.7884 11.0221 16.5709 11.6122C16.4621 11.9074 16.2722 12.2117 15.9116 12.6324C15.5449 13.0603 15.0413 13.5647 14.3294 14.2766L13.5226 15.0834H7.47729L6.6705 14.2766C5.95862 13.5647 5.45499 13.0603 5.0883 12.6324C4.7277 12.2117 4.53778 11.9074 4.42899 11.6122C4.21155 11.0221 4.16996 10.3817 4.30926 9.76847C4.37895 9.46168 4.52792 9.13539 4.83107 8.6715C5.13933 8.19978 5.5735 7.63452 6.18732 6.83655L8.55803 3.75463C8.998 3.18268 9.29829 2.79344 9.55196 2.51798C9.62674 2.43677 9.69217 2.37153 9.74996 2.31888V5.83336C9.74996 6.24758 10.0857 6.58336 10.5 6.58336C10.9142 6.58336 11.25 6.24758 11.25 5.83336ZM5.67142 15.3988L5.60983 15.3372L5.58819 15.3156C4.90279 14.6302 4.358 14.0854 3.94932 13.6085C3.53026 13.1195 3.21646 12.6598 3.02152 12.1309C2.70372 11.2685 2.64293 10.3324 2.84652 9.4362C2.9714 8.88643 3.22312 8.39003 3.57541 7.85094C3.91897 7.32521 4.38873 6.71453 4.97972 5.94625L4.97973 5.94623L4.99839 5.92199L7.3691 2.84006L7.39024 2.81257L7.39026 2.81255L7.39027 2.81254L7.39027 2.81253C7.8038 2.27494 8.14438 1.83217 8.44855 1.50186C8.76149 1.16203 9.0947 0.873824 9.51568 0.712456C10.1494 0.469546 10.8505 0.469546 11.4842 0.712456C11.9052 0.873824 12.2384 1.16203 12.5514 1.50186C12.8555 1.83214 13.1961 2.27487 13.6096 2.81242L13.6096 2.81249L13.6096 2.8125L13.6097 2.81255L13.6308 2.84006L16.0015 5.92199L16.0202 5.94624L16.0202 5.94627C16.6112 6.71454 17.081 7.32521 17.4245 7.85094C17.7768 8.39003 18.0285 8.88643 18.1534 9.4362C18.357 10.3324 18.2962 11.2685 17.9784 12.1309C17.7835 12.6598 17.4697 13.1195 17.0506 13.6085C16.6419 14.0854 16.0972 14.6302 15.4118 15.3155L15.4117 15.3156L15.4117 15.3156L15.3901 15.3372L15.3285 15.3988C15.8827 15.7544 16.25 16.376 16.25 17.0834C16.25 18.1879 15.3545 19.0834 14.25 19.0834H6.74996C5.64539 19.0834 4.74996 18.1879 4.74996 17.0834C4.74996 16.376 5.1172 15.7544 5.67142 15.3988ZM14.25 16.5834C14.5261 16.5834 14.75 16.8072 14.75 17.0834C14.75 17.3595 14.5261 17.5834 14.25 17.5834H6.74996C6.47382 17.5834 6.24996 17.3595 6.24996 17.0834C6.24996 16.8072 6.47382 16.5834 6.74996 16.5834H14.25ZM9.58329 10C9.58329 9.49377 9.9937 9.08336 10.5 9.08336C11.0062 9.08336 11.4166 9.49377 11.4166 10C11.4166 10.5063 11.0062 10.9167 10.5 10.9167C9.9937 10.9167 9.58329 10.5063 9.58329 10ZM10.5 7.58336C9.16527 7.58336 8.08329 8.66534 8.08329 10C8.08329 11.3347 9.16527 12.4167 10.5 12.4167C11.8346 12.4167 12.9166 11.3347 12.9166 10C12.9166 8.66534 11.8346 7.58336 10.5 7.58336Z" fill="white"/>
</svg>
