<svg width="32" height="32" viewBox="0 0 32 32" fill="none" xmlns="http://www.w3.org/2000/svg">
<path fill-rule="evenodd" clip-rule="evenodd" d="M11.9994 3.41663C9.46804 3.41663 7.41602 5.46865 7.41602 7.99996C7.41602 10.5313 9.46804 12.5833 11.9994 12.5833C14.5307 12.5833 16.5827 10.5313 16.5827 7.99996C16.5827 5.46865 14.5307 3.41663 11.9994 3.41663ZM5.91602 7.99996C5.91602 4.64023 8.63962 1.91663 11.9994 1.91663C15.3591 1.91663 18.0827 4.64023 18.0827 7.99996C18.0827 11.3597 15.3591 14.0833 11.9994 14.0833C8.63962 14.0833 5.91602 11.3597 5.91602 7.99996ZM31.1963 10.1363C31.4892 10.4292 31.4892 10.9041 31.1963 11.197L25.863 16.5303C25.5701 16.8232 25.0952 16.8232 24.8024 16.5303L22.1357 13.8636C21.8428 13.5707 21.8428 13.0959 22.1357 12.803C22.4286 12.5101 22.9035 12.5101 23.1963 12.803L25.3327 14.9393L30.1357 10.1363C30.4286 9.8434 30.9035 9.8434 31.1963 10.1363ZM9.06602 17.9166H9.03797C8.69316 17.9166 8.48947 17.9166 8.31275 17.9259C4.86271 18.1067 2.10608 20.8633 1.92527 24.3134C1.91601 24.4901 1.91601 24.6938 1.91602 25.0386L1.91602 25.0666L1.91602 25.092C1.91601 25.3154 1.916 25.4574 1.92253 25.5819C2.04976 28.0097 3.98961 29.9495 6.41742 30.0768C6.54192 30.0833 6.68393 30.0833 6.90726 30.0833H6.93268H17.066H17.0914C17.3148 30.0833 17.4568 30.0833 17.5813 30.0768C20.0091 29.9495 21.9489 28.0097 22.0762 25.5819C22.0827 25.4574 22.0827 25.3154 22.0827 25.092V25.0666V25.0385C22.0827 24.6938 22.0827 24.4901 22.0734 24.3134C21.8926 20.8633 19.136 18.1067 15.686 17.9259C15.5092 17.9166 15.3055 17.9166 14.9607 17.9166H14.9327H9.06602ZM3.42047 25.5034C3.41628 25.4233 3.41602 25.3237 3.41602 25.0666C3.41602 24.6857 3.41628 24.5242 3.42321 24.3919C3.56384 21.7085 5.70789 19.5644 8.39125 19.4238C8.5236 19.4169 8.6851 19.4166 9.06602 19.4166H14.9327C15.3136 19.4166 15.4751 19.4169 15.6074 19.4238C18.2908 19.5644 20.4349 21.7085 20.5755 24.3919C20.5824 24.5242 20.5827 24.6857 20.5827 25.0666C20.5827 25.3237 20.5824 25.4233 20.5782 25.5034C20.4912 27.1645 19.1639 28.4918 17.5028 28.5788C17.4227 28.583 17.3231 28.5833 17.066 28.5833H6.93268C6.67557 28.5833 6.57597 28.583 6.49592 28.5788C4.83479 28.4918 3.50753 27.1645 3.42047 25.5034Z" fill="#111111"/>
</svg>
