<svg width="20" height="20" viewBox="0 0 20 20" fill="none" xmlns="http://www.w3.org/2000/svg">
<g id="leading-icon">
<path id="Icon" fill-rule="evenodd" clip-rule="evenodd" d="M9.99996 3.25C6.27204 3.25 3.24996 6.27208 3.24996 10C3.24996 10.4758 3.29908 10.9393 3.39226 11.3861C3.66494 12.6933 4.31602 13.8618 5.22566 14.7717C6.94589 14.3721 9.08982 13.5084 11.2916 12.2372C13.4947 10.9653 15.315 9.5397 16.521 8.24965C16.1775 6.96645 15.4646 5.83284 14.5018 4.97036C13.3068 3.90002 11.7302 3.25 9.99996 3.25ZM16.7486 10.1346C15.4941 11.2945 13.8794 12.4752 12.0416 13.5363C10.203 14.5978 8.37254 15.4059 6.74061 15.9123C7.70699 16.4462 8.8181 16.75 9.99996 16.75C13.6829 16.75 16.677 13.8004 16.7486 10.1346ZM4.78214 16.3907C6.20367 17.5528 8.02019 18.25 9.99996 18.25C14.5563 18.25 18.25 14.5563 18.25 10C18.25 9.54962 18.2138 9.10721 18.1441 8.67563C18.6781 8.02953 19.0931 7.38521 19.3339 6.77184C19.606 6.07893 19.6998 5.30073 19.3097 4.625C18.9195 3.94906 18.1983 3.64124 17.4619 3.53049C16.8101 3.43246 16.0445 3.46978 15.2178 3.60934C13.7964 2.4476 11.9789 1.75 9.99996 1.75C5.44361 1.75 1.74996 5.44365 1.74996 10C1.74996 10.4504 1.78612 10.8928 1.85581 11.3243C1.32177 11.9704 0.906782 12.6148 0.665941 13.2281C0.39387 13.9211 0.300034 14.6993 0.690167 15.375C1.08444 16.0579 1.81615 16.365 2.56149 16.473C3.20744 16.5665 3.96443 16.5287 4.78214 16.3907ZM3.45493 15.0229C3.01867 14.4552 2.65459 13.8292 2.37641 13.1585C2.24089 13.3807 2.13635 13.5874 2.06217 13.7764C1.87056 14.2644 1.92393 14.512 1.9892 14.625C2.05517 14.7393 2.24658 14.9117 2.7765 14.9885C2.9742 15.0171 3.20089 15.0291 3.45493 15.0229ZM16.5451 4.9771C16.8059 4.97076 17.0377 4.98356 17.2388 5.0138C17.7575 5.09182 17.9454 5.26192 18.0107 5.375C18.0759 5.48805 18.1293 5.73565 17.9377 6.22363C17.8635 6.41253 17.759 6.61925 17.6235 6.84145C17.3453 6.17056 16.9812 5.54455 16.5451 4.9771Z" fill="#6D6D6D"/>
</g>
</svg>
