<svg width="24" height="24" viewBox="0 0 24 24" fill="none" xmlns="http://www.w3.org/2000/svg">
<path fill-rule="evenodd" clip-rule="evenodd" d="M13.25 2.77247C12.9109 2.75145 12.4656 2.75001 11.7782 2.75001C10.4711 2.75001 9.53262 2.75051 8.79411 2.80645C8.06343 2.86178 7.58979 2.96822 7.20363 3.14832C6.29825 3.57057 5.57056 4.29827 5.1483 5.20364C4.9682 5.58981 4.86177 6.06344 4.80643 6.79413C4.7505 7.53263 4.75 8.47115 4.75 9.77819V14C4.75 15.4125 4.75058 16.4268 4.81563 17.2229C4.87996 18.0103 5.00359 18.518 5.21322 18.9295C5.62068 19.7292 6.27085 20.3793 7.07054 20.7868C7.48197 20.9964 7.9897 21.1201 8.77708 21.1844C9.57322 21.2494 10.5875 21.25 12 21.25C13.4125 21.25 14.4268 21.2494 15.2229 21.1844C16.0103 21.1201 16.518 20.9964 16.9295 20.7868C17.7291 20.3793 18.3793 19.7292 18.7868 18.9295C18.9964 18.518 19.12 18.0103 19.1844 17.2229C19.2494 16.4268 19.25 15.4125 19.25 14V10.3137C19.25 9.58845 19.2484 9.11273 19.2255 8.75004H17.2H17.1696C16.6354 8.75005 16.1896 8.75006 15.8253 8.7203C15.4454 8.68927 15.0888 8.62215 14.7515 8.45031C14.2341 8.18666 13.8134 7.76596 13.5497 7.24852C13.3779 6.91125 13.3108 6.5546 13.2797 6.17471C13.25 5.81048 13.25 5.36463 13.25 4.83048V4.80004V2.77247ZM18.8401 7.25004C18.7752 7.11328 18.703 6.97988 18.6237 6.85046C18.3717 6.43917 18.0165 6.0772 17.1265 5.1872L16.7478 4.80852C15.9239 3.98455 15.5888 3.65537 15.2123 3.41553C15.0634 3.32066 14.909 3.23533 14.75 3.15993V4.80004C14.75 5.37247 14.7506 5.75669 14.7748 6.05256C14.7982 6.33969 14.8401 6.47697 14.8862 6.56753C15.0061 6.80273 15.1973 6.99396 15.4325 7.1138C15.5231 7.15994 15.6604 7.20183 15.9475 7.22529C16.2434 7.24946 16.6276 7.25004 17.2 7.25004H18.8401ZM14.1736 1.38635C13.5579 1.24983 12.9147 1.24989 11.8699 1.25001L11.7782 1.25001L11.7472 1.25001C10.4778 1.25001 9.4826 1.25001 8.68083 1.31073C7.86473 1.37254 7.18819 1.5004 6.56962 1.78889C5.3447 2.36018 4.36017 3.34471 3.78888 4.56963C3.50039 5.18821 3.37252 5.86474 3.31072 6.68085C3.24999 7.48261 3.25 8.47782 3.25 9.74718V9.77819V14V14.0336C3.25 15.4053 3.24999 16.4807 3.32061 17.3451C3.39252 18.2252 3.54138 18.9523 3.87671 19.6105C4.42798 20.6924 5.30762 21.572 6.38955 22.1233C7.04768 22.4586 7.77479 22.6075 8.65494 22.6794C9.51927 22.75 10.5947 22.75 11.9664 22.75H11.9664H12H12.0336H12.0336C13.4053 22.75 14.4807 22.75 15.3451 22.6794C16.2252 22.6075 16.9523 22.4586 17.6104 22.1233C18.6924 21.572 19.572 20.6924 20.1233 19.6105C20.4586 18.9523 20.6075 18.2252 20.6794 17.3451C20.75 16.4807 20.75 15.4053 20.75 14.0336V14.0336V14V10.3137L20.75 10.2147C20.7501 9.08624 20.7502 8.39143 20.5911 7.72877C20.4503 7.14206 20.2179 6.58118 19.9027 6.06671C19.5466 5.48565 19.0552 4.99441 18.2572 4.19657L18.2572 4.19655L18.1872 4.12654L17.8085 3.74786L17.7437 3.68301C17.0049 2.94412 16.5502 2.48926 16.0183 2.15042C15.4526 1.79011 14.8284 1.53152 14.1736 1.38635ZM9 11.25C8.58579 11.25 8.25 11.5858 8.25 12C8.25 12.4142 8.58579 12.75 9 12.75H15C15.4142 12.75 15.75 12.4142 15.75 12C15.75 11.5858 15.4142 11.25 15 11.25H9ZM9 15.25C8.58579 15.25 8.25 15.5858 8.25 16C8.25 16.4142 8.58579 16.75 9 16.75H13C13.4142 16.75 13.75 16.4142 13.75 16C13.75 15.5858 13.4142 15.25 13 15.25H9Z" fill="#AAB0C6"/>
</svg>
