<svg width="20" height="20" viewBox="0 0 20 20" fill="none" xmlns="http://www.w3.org/2000/svg">
<g id="leading-icon">
<path id="Icon" fill-rule="evenodd" clip-rule="evenodd" d="M9.86519 0.916515L9.99999 0.916527L10.1348 0.916515C11.5559 0.916328 12.4225 0.916214 13.1549 1.11245C15.1391 1.64414 16.689 3.19404 17.2207 5.17832C17.417 5.91069 17.4169 6.77726 17.4167 8.19839L17.4167 8.33319V11.6665L17.4167 11.8013C17.4169 13.2225 17.417 14.089 17.2207 14.8214C16.689 16.8057 15.1391 18.3556 13.1549 18.8873C12.4225 19.0835 11.5559 19.0834 10.1348 19.0832L9.99999 19.0832L9.86521 19.0832C8.44407 19.0834 7.57749 19.0835 6.84511 18.8873C4.86083 18.3556 3.31094 16.8057 2.77925 14.8214C2.71797 14.5927 2.67583 14.3509 2.64687 14.0832H1.66666C1.25244 14.0832 0.916656 13.7474 0.916656 13.3332C0.916656 12.919 1.25244 12.5832 1.66666 12.5832H2.58473C2.58324 12.3421 2.58327 12.0826 2.58331 11.8013L2.58332 11.6665V10.7499H1.66666C1.25244 10.7499 0.916656 10.4141 0.916656 9.99986C0.916656 9.58565 1.25244 9.24986 1.66666 9.24986H2.58332V8.3332L2.58331 8.1984C2.58327 7.91714 2.58324 7.6576 2.58473 7.41653H1.66666C1.25244 7.41653 0.916656 7.08074 0.916656 6.66653C0.916656 6.25231 1.25244 5.91653 1.66666 5.91653H2.64687C2.67583 5.64883 2.71797 5.40703 2.77925 5.17832C3.31094 3.19404 4.86083 1.64414 6.84511 1.11245C7.57749 0.916214 8.44406 0.916328 9.86519 0.916515ZM4.08553 7.41653H4.99999C5.4142 7.41653 5.74999 7.08074 5.74999 6.66653C5.74999 6.25231 5.4142 5.91653 4.99999 5.91653H4.15737C4.17594 5.78894 4.19914 5.67477 4.22814 5.56655C4.62112 4.0999 5.7667 2.95433 7.23334 2.56134C7.74976 2.42297 8.40175 2.41653 9.99999 2.41653C11.5982 2.41653 12.2502 2.42297 12.7666 2.56134C14.2333 2.95433 15.3789 4.0999 15.7718 5.56655C15.9102 6.08296 15.9167 6.73495 15.9167 8.33319V11.6665C15.9167 13.2648 15.9102 13.9168 15.7718 14.4332C15.3789 15.8998 14.2333 17.0454 12.7666 17.4384C12.2502 17.5768 11.5982 17.5832 9.99999 17.5832C8.40175 17.5832 7.74976 17.5768 7.23334 17.4384C5.7667 17.0454 4.62112 15.8998 4.22814 14.4332C4.19914 14.325 4.17594 14.2108 4.15737 14.0832H4.99999C5.4142 14.0832 5.74999 13.7474 5.74999 13.3332C5.74999 12.919 5.4142 12.5832 4.99999 12.5832H4.08553C4.08363 12.3168 4.08332 12.014 4.08332 11.6665V10.7499H4.99999C5.4142 10.7499 5.74999 10.4141 5.74999 9.99986C5.74999 9.58565 5.4142 9.24986 4.99999 9.24986H4.08332V8.3332C4.08332 7.98568 4.08363 7.6829 4.08553 7.41653ZM13.3333 5.08319C13.7475 5.08319 14.0833 5.41898 14.0833 5.83319V9.16653C14.0833 9.58074 13.7475 9.91653 13.3333 9.91653C12.9191 9.91653 12.5833 9.58074 12.5833 9.16653V5.83319C12.5833 5.41898 12.9191 5.08319 13.3333 5.08319Z" fill="#6D6D6D"/>
</g>
</svg>
