<svg width="23" height="18" viewBox="0 0 23 18" fill="none" xmlns="http://www.w3.org/2000/svg">
<g id="Layer 1">
<path id="Vector" d="M19.25 15.45C18.45 15.76 17.59 15.93 16.69 15.93C15.79 15.93 14.98 15.77 14.2 15.48C13.67 15.29 13.17 15.04 12.71 14.72C11.58 13.98 10.66 12.91 10.11 11.66C11.22 11.14 11.99 10.01 11.99 8.71002C11.99 7.41002 11.22 6.28002 10.11 5.76002C9.69 5.55002 9.22 5.44002 8.72 5.44002C8.68 5.44002 8.65 5.44002 8.61 5.45002C6.86 5.50002 5.45 6.95002 5.45 8.71002C5.45 10.47 6.85 11.9 8.6 11.96C9.16 13.35 10.06 14.56 11.21 15.48C10.44 15.77 9.6 15.93 8.72 15.93C4.74 15.93 1.5 12.69 1.5 8.71002C1.5 4.73002 4.74 1.49002 8.72 1.49002C9.6 1.49002 10.44 1.65002 11.21 1.94002C11.74 2.13002 12.25 2.39002 12.71 2.70002C13.84 3.45002 14.75 4.51002 15.3 5.76002C14.19 6.28002 13.43 7.41002 13.43 8.71002C13.43 10.01 14.19 11.14 15.3 11.66C15.72 11.86 16.19 11.97 16.69 11.97C16.73 11.97 16.77 11.97 16.81 11.97C18.56 11.91 19.96 10.48 19.96 8.72002C19.96 6.96002 18.55 5.51002 16.8 5.46002C16.25 4.08002 15.35 2.87002 14.2 1.95002C14.98 1.66002 15.82 1.50002 16.69 1.50002C17.56 1.50002 18.45 1.67002 19.25 1.98002C19.78 2.17002 20.28 2.43002 20.73 2.75002C21.18 2.43002 21.68 2.17002 22.21 1.98002C21.75 1.61002 21.26 1.28002 20.73 1.00002C19.52 0.360019 18.15 1.91389e-05 16.69 1.91389e-05C15.23 1.91389e-05 13.9 0.350019 12.71 0.970019C11.52 0.350019 10.16 1.91389e-05 8.72 1.91389e-05C3.91 -0.00998086 0 3.90002 0 8.71002C0 13.52 3.91 17.43 8.72 17.43C10.16 17.43 11.52 17.08 12.71 16.46C13.9 17.08 15.26 17.43 16.69 17.43C18.12 17.43 19.52 17.07 20.73 16.43C21.26 16.15 21.75 15.82 22.21 15.45C21.68 15.26 21.18 15 20.73 14.68C20.28 15 19.78 15.26 19.25 15.45ZM8.13 10.36C7.45 10.12 6.95 9.47002 6.95 8.71002C6.95 7.95002 7.45 7.29002 8.13 7.05002C8.31 6.98002 8.51 6.94002 8.72 6.94002C9.06 6.94002 9.37 7.03002 9.64 7.20002C10.15 7.51002 10.49 8.07002 10.49 8.71002C10.49 9.35002 10.14 9.91002 9.63 10.21C9.36 10.38 9.05 10.47 8.72 10.47C8.51 10.47 8.31 10.43 8.13 10.36ZM17.28 7.05002C17.96 7.29002 18.46 7.94002 18.46 8.71002C18.46 9.48002 17.96 10.12 17.28 10.36C17.1 10.43 16.9 10.47 16.69 10.47C16.36 10.47 16.05 10.38 15.78 10.21C15.27 9.91002 14.93 9.35002 14.93 8.71002C14.93 8.07002 15.27 7.50002 15.78 7.20002C16.05 7.03002 16.36 6.94002 16.69 6.94002C16.9 6.94002 17.1 6.98002 17.28 7.05002Z" fill="#DD0000"/>
</g>
</svg>
