<svg width="20" height="20" viewBox="0 0 20 20" fill="none" xmlns="http://www.w3.org/2000/svg">
<g id="quotes">
<path id="Icon" fill-rule="evenodd" clip-rule="evenodd" d="M4.86663 2.58333L4.83619 2.58333C4.30204 2.58332 3.85619 2.58331 3.49196 2.61307C3.11207 2.64411 2.75542 2.71122 2.41815 2.88306C1.90071 3.14672 1.48001 3.56741 1.21636 4.08486C1.04451 4.42212 0.977404 4.77878 0.946366 5.15866C0.916607 5.5229 0.916616 5.96874 0.916626 6.5029L0.916627 6.53333V6.8L0.916626 6.83043C0.916616 7.36459 0.916607 7.81044 0.946366 8.17467C0.977404 8.55455 1.04451 8.91121 1.21636 9.24847C1.48001 9.76592 1.90071 10.1866 2.41815 10.4503C2.75542 10.6221 3.11207 10.6892 3.49196 10.7203C3.85618 10.75 4.30202 10.75 4.83615 10.75H4.8362H4.86662H5.13329H5.16372H5.16376C5.6979 10.75 6.14374 10.75 6.50796 10.7203C6.88785 10.6892 7.2445 10.6221 7.58177 10.4503L7.58329 10.4495V11.0417C7.58329 11.1666 7.58326 11.2191 7.58231 11.2681C7.55177 12.849 6.81028 14.332 5.56384 15.305C5.52521 15.3352 5.48323 15.3667 5.38329 15.4417L4.54996 16.0667C4.21859 16.3152 4.15143 16.7853 4.39996 17.1167C4.64849 17.448 5.11859 17.5152 5.44996 17.2667L6.28329 16.6417L6.29017 16.6365L6.29028 16.6364L6.29069 16.6361C6.38142 16.5681 6.43549 16.5275 6.48685 16.4874C8.08942 15.2364 9.04276 13.3297 9.08203 11.2971C9.08329 11.2318 9.08329 11.1641 9.08329 11.0503V11.0417V6.83043V6.8V6.66667V6.66581V6.53333V6.5029C9.0833 5.96875 9.08331 5.5229 9.05355 5.15866C9.02252 4.77878 8.9554 4.42212 8.78356 4.08486C8.51991 3.56741 8.09921 3.14672 7.58177 2.88306C7.2445 2.71122 6.88785 2.64411 6.50796 2.61307C6.14373 2.58331 5.69788 2.58332 5.16373 2.58333L5.13329 2.58333H4.86663ZM7.58329 6.66667L7.58329 6.53333C7.58329 5.9609 7.58271 5.57669 7.55854 5.28081C7.53508 4.99369 7.49319 4.85641 7.44705 4.76584C7.32721 4.53064 7.13598 4.33942 6.90078 4.21957C6.81022 4.17343 6.67294 4.13155 6.38582 4.10809C6.08994 4.08392 5.70572 4.08333 5.13329 4.08333H4.86663C4.2942 4.08333 3.90998 4.08392 3.6141 4.10809C3.32698 4.13155 3.1897 4.17343 3.09914 4.21957C2.86394 4.33942 2.67271 4.53064 2.55287 4.76584C2.50673 4.85641 2.46484 4.99369 2.44138 5.28081C2.41721 5.57669 2.41663 5.9609 2.41663 6.53333V6.8C2.41663 7.37243 2.41721 7.75664 2.44138 8.05252C2.46484 8.33965 2.50673 8.47693 2.55287 8.56749C2.67271 8.80269 2.86394 8.99392 3.09914 9.11376C3.1897 9.1599 3.32698 9.20178 3.6141 9.22524C3.90998 9.24942 4.2942 9.25 4.86662 9.25H5.13329C5.70572 9.25 6.08994 9.24942 6.38581 9.22524C6.67294 9.20178 6.81022 9.1599 6.90078 9.11376C7.13598 8.99392 7.32721 8.80269 7.44705 8.56749C7.49319 8.47693 7.53508 8.33965 7.55854 8.05252C7.58271 7.75664 7.58329 7.37243 7.58329 6.8L7.58329 6.66667ZM17.5833 6.8C17.5833 7.37243 17.5827 7.75664 17.5585 8.05252C17.5351 8.33965 17.4932 8.47693 17.4471 8.56749C17.3272 8.80269 17.136 8.99392 16.9008 9.11376C16.8102 9.1599 16.6729 9.20178 16.3858 9.22524C16.0899 9.24942 15.7057 9.25 15.1333 9.25H14.8666C14.2942 9.25 13.91 9.24942 13.6141 9.22524C13.327 9.20178 13.1897 9.1599 13.0991 9.11376C12.8639 8.99392 12.6727 8.80269 12.5529 8.56749C12.5067 8.47693 12.4648 8.33965 12.4414 8.05252C12.4172 7.75664 12.4166 7.37243 12.4166 6.8V6.53333C12.4166 5.9609 12.4172 5.57669 12.4414 5.28081C12.4648 4.99369 12.5067 4.85641 12.5529 4.76584C12.6727 4.53064 12.8639 4.33942 13.0991 4.21957C13.1897 4.17343 13.327 4.13155 13.6141 4.10809C13.91 4.08392 14.2942 4.08333 14.8666 4.08333H15.1333C15.7057 4.08333 16.0899 4.08392 16.3858 4.10809C16.6729 4.13155 16.8102 4.17343 16.9008 4.21957C17.136 4.33942 17.3272 4.53064 17.4471 4.76584C17.4932 4.85641 17.5351 4.99369 17.5585 5.28081C17.5827 5.57669 17.5833 5.9609 17.5833 6.53333V6.66667V6.8ZM17.5833 11.0417V10.4495C17.5828 10.4497 17.5823 10.45 17.5818 10.4503C17.2445 10.6221 16.8878 10.6892 16.508 10.7203C16.1437 10.75 15.6979 10.75 15.1638 10.75H15.1637H15.1333H14.8666H14.8362H14.8362C14.302 10.75 13.8562 10.75 13.492 10.7203C13.1121 10.6892 12.7554 10.6221 12.4182 10.4503C11.9007 10.1866 11.48 9.76592 11.2164 9.24847C11.0445 8.91121 10.9774 8.55455 10.9464 8.17467C10.9166 7.81044 10.9166 7.36459 10.9166 6.83043V6.8V6.53333V6.5029C10.9166 5.96874 10.9166 5.5229 10.9464 5.15866C10.9774 4.77878 11.0445 4.42212 11.2164 4.08486C11.48 3.56741 11.9007 3.14672 12.4182 2.88306C12.7554 2.71122 13.1121 2.64411 13.492 2.61307C13.8562 2.58331 14.302 2.58332 14.8362 2.58333L14.8666 2.58333H15.1333L15.1637 2.58333C15.6979 2.58332 16.1437 2.58331 16.508 2.61307C16.8878 2.64411 17.2445 2.71122 17.5818 2.88306C18.0992 3.14672 18.5199 3.56741 18.7836 4.08486C18.9554 4.42212 19.0225 4.77878 19.0536 5.15866C19.0833 5.5229 19.0833 5.96875 19.0833 6.5029V6.53333V6.66667V6.8V6.83043C19.0833 6.84847 19.0833 6.86641 19.0833 6.88425V11.0417V11.0503V11.0508C19.0833 11.1643 19.0833 11.2319 19.082 11.2971C19.0428 13.3297 18.0894 15.2364 16.4869 16.4874C16.4355 16.5275 16.3813 16.5681 16.2905 16.6363L16.2903 16.6364L16.2902 16.6365L16.2833 16.6417L15.45 17.2667C15.1186 17.5152 14.6485 17.448 14.4 17.1167C14.1514 16.7853 14.2186 16.3152 14.55 16.0667L15.3833 15.4417C15.4832 15.3667 15.5252 15.3352 15.5638 15.305C16.8103 14.332 17.5518 12.849 17.5823 11.2681C17.5833 11.2191 17.5833 11.1666 17.5833 11.0417Z" fill="#5F6989"/>
</g>
</svg>
