<svg width="20" height="21" viewBox="0 0 20 21" fill="none" xmlns="http://www.w3.org/2000/svg">
<g id="refresh-cw">
<path id="Icon" fill-rule="evenodd" clip-rule="evenodd" d="M0.916748 10.5003C0.916748 5.48534 4.95464 1.41699 10.0001 1.41699C12.9981 1.41699 15.2445 2.65679 16.7274 3.88013C17.0472 4.14399 17.3325 4.4078 17.5834 4.65948V3.83366C17.5834 3.41945 17.9192 3.08366 18.3334 3.08366C18.7476 3.08366 19.0834 3.41945 19.0834 3.83366V6.75033C19.0834 7.16454 18.7476 7.50033 18.3334 7.50033H15.4167C15.0025 7.50033 14.6667 7.16454 14.6667 6.75033C14.6667 6.33611 15.0025 6.00033 15.4167 6.00033H16.7918C16.5148 5.70088 16.175 5.369 15.7728 5.03719C14.4778 3.96886 12.5576 2.91699 10.0001 2.91699C5.78626 2.91699 2.41675 6.31057 2.41675 10.5003C2.41675 10.9145 2.08096 11.2503 1.66675 11.2503C1.25253 11.2503 0.916748 10.9145 0.916748 10.5003ZM18.3334 9.75033C18.7476 9.75033 19.0834 10.0861 19.0834 10.5003C19.0834 15.5169 15.0167 19.5837 10.0001 19.5837C7.44315 19.5837 5.39777 18.312 4.02821 17.1046C3.74184 16.8521 3.48204 16.5999 3.25008 16.3587V17.167C3.25008 17.5812 2.91429 17.917 2.50008 17.917C2.08587 17.917 1.75008 17.5812 1.75008 17.167V14.2503C1.75008 13.8361 2.08587 13.5003 2.50008 13.5003H5.41675C5.83096 13.5003 6.16675 13.8361 6.16675 14.2503C6.16675 14.6645 5.83096 15.0003 5.41675 15.0003H4.03567C4.3082 15.3049 4.63798 15.6425 5.02017 15.9794C6.25002 17.0637 7.95464 18.0837 10.0001 18.0837C14.1882 18.0837 17.5834 14.6885 17.5834 10.5003C17.5834 10.0861 17.9192 9.75033 18.3334 9.75033Z" fill="white"/>
</g>
</svg>
