<svg width="20" height="20" viewBox="0 0 20 20" fill="none" xmlns="http://www.w3.org/2000/svg">
<path fill-rule="evenodd" clip-rule="evenodd" d="M12.641 4.40337C11.0941 3.17654 8.90608 3.17654 7.35919 4.40337C7.07322 4.63017 6.76025 5.00736 6.32754 5.68661C5.89736 6.3619 5.38792 7.27102 4.68819 8.52055C4.01536 9.72202 3.52655 10.5955 3.18842 11.2887C2.84879 11.985 2.69462 12.4348 2.64878 12.7911C2.40193 14.7102 3.48251 16.5538 5.27753 17.2761C5.61086 17.4102 6.07861 17.4955 6.85208 17.5394C7.62214 17.583 8.62306 17.5833 10.0001 17.5833C11.3771 17.5833 12.3781 17.583 13.1481 17.5394C13.9216 17.4955 14.3893 17.4102 14.7227 17.2761C16.5177 16.5538 17.5983 14.7102 17.3514 12.7911C17.3056 12.4348 17.1514 11.985 16.8118 11.2887C16.4736 10.5955 15.9848 9.72202 15.312 8.52055C14.6123 7.27103 14.1028 6.3619 13.6727 5.68661C13.24 5.00736 12.927 4.63017 12.641 4.40337ZM10.0001 19.0833H10.0248H10.0248H10.0249C11.372 19.0833 12.4155 19.0833 13.2331 19.0369C14.0523 18.9905 14.7177 18.895 15.2826 18.6677C17.7112 17.6904 19.1731 15.1962 18.8392 12.5998C18.7615 11.9958 18.5197 11.3686 18.1599 10.6311C17.8009 9.89507 17.2911 8.98464 16.6328 7.8092L16.6208 7.78765L16.6086 7.76585C15.9235 6.54258 15.3936 5.59618 14.9378 4.8807C14.4818 4.16494 14.0604 3.61463 13.5731 3.22812C11.4802 1.56829 8.51995 1.56829 6.42711 3.22812C5.93975 3.61463 5.5184 4.16494 5.06243 4.8807C4.60664 5.59618 4.07666 6.54258 3.39163 7.76585L3.37943 7.78764L3.36731 7.80928C2.70908 8.98468 2.19926 9.89509 1.84025 10.6311C1.48054 11.3686 1.23872 11.9958 1.16104 12.5998C0.827068 15.1962 2.28902 17.6904 4.71758 18.6677C5.2825 18.895 5.94793 18.9905 6.76711 19.0369C7.58472 19.0833 8.62816 19.0833 9.97533 19.0833H9.97537H9.97541H10.0001ZM10.0001 6.75C10.4143 6.75 10.7501 7.08579 10.7501 7.5V10.8333C10.7501 11.2475 10.4143 11.5833 10.0001 11.5833C9.58589 11.5833 9.2501 11.2475 9.2501 10.8333V7.5C9.2501 7.08579 9.58589 6.75 10.0001 6.75ZM10.0001 14.1667C10.4603 14.1667 10.8334 13.7936 10.8334 13.3333C10.8334 12.8731 10.4603 12.5 10.0001 12.5C9.53986 12.5 9.16677 12.8731 9.16677 13.3333C9.16677 13.7936 9.53986 14.1667 10.0001 14.1667Z" fill="#AAB0C6"/>
</svg>
