<svg width="20" height="20" viewBox="0 0 20 20" fill="none" xmlns="http://www.w3.org/2000/svg">
<path fill-rule="evenodd" clip-rule="evenodd" d="M9.99984 2.41667C5.81168 2.41667 2.4165 5.81184 2.4165 10C2.4165 14.1882 5.81168 17.5833 9.99984 17.5833C14.188 17.5833 17.5832 14.1882 17.5832 10C17.5832 5.81184 14.188 2.41667 9.99984 2.41667ZM0.916504 10C0.916504 4.98341 4.98325 0.916667 9.99984 0.916667C15.0164 0.916667 19.0832 4.98341 19.0832 10C19.0832 15.0166 15.0164 19.0833 9.99984 19.0833C4.98325 19.0833 0.916504 15.0166 0.916504 10ZM9.99984 5.91667C10.4141 5.91667 10.7498 6.25245 10.7498 6.66667V10.8333C10.7498 11.2475 10.4141 11.5833 9.99984 11.5833C9.58562 11.5833 9.24984 11.2475 9.24984 10.8333V6.66667C9.24984 6.25245 9.58562 5.91667 9.99984 5.91667ZM9.99984 14.1667C10.4601 14.1667 10.8332 13.7936 10.8332 13.3333C10.8332 12.8731 10.4601 12.5 9.99984 12.5C9.5396 12.5 9.1665 12.8731 9.1665 13.3333C9.1665 13.7936 9.5396 14.1667 9.99984 14.1667Z" fill="#AAB0C6"/>
</svg>
