<svg width="25" height="24" viewBox="0 0 25 24" fill="none" xmlns="http://www.w3.org/2000/svg">
<path fill-rule="evenodd" clip-rule="evenodd" d="M16.6953 3.10231C16.2434 2.95548 15.7566 2.95548 15.3047 3.10231C15.0939 3.17081 14.8606 3.30632 14.5135 3.60104C14.1596 3.90144 13.739 4.32121 13.1363 4.92399L5.42448 12.6358C4.8217 13.2385 4.40193 13.6591 4.10152 14.013C3.80681 14.3602 3.6713 14.5934 3.6028 14.8043C3.45597 15.2562 3.45597 15.7429 3.6028 16.1948C3.6713 16.4057 3.80681 16.6389 4.10152 16.9861C4.40193 17.34 4.8217 17.7606 5.42448 18.3633L6.13625 19.0751C6.73903 19.6779 7.15963 20.0977 7.51349 20.3981C7.86065 20.6928 8.09392 20.8283 8.30475 20.8968C8.75664 21.0436 9.24343 21.0436 9.69532 20.8968C9.90615 20.8283 10.1394 20.6928 10.4866 20.3981C10.5468 20.3469 10.609 20.2923 10.6737 20.2339L8.96964 18.5299C8.67675 18.237 8.67675 17.7621 8.96964 17.4692C9.26254 17.1763 9.73741 17.1763 10.0303 17.4692L11.75 19.1889L11.8638 19.0751L13.6893 17.2496L10.4696 14.0299C10.1768 13.737 10.1768 13.2621 10.4696 12.9692C10.7625 12.6763 11.2374 12.6763 11.5303 12.9692L14.75 16.1889L16.6893 14.2496L14.9696 12.5299C14.6768 12.237 14.6768 11.7621 14.9696 11.4692C15.2625 11.1763 15.7374 11.1763 16.0303 11.4692L17.75 13.1889L19.5756 11.3633L19.6893 11.2496L16.4696 8.02988C16.1768 7.73698 16.1768 7.26211 16.4696 6.96922C16.7625 6.67632 17.2374 6.67632 17.5303 6.96922L20.7344 10.1733C20.7928 10.1086 20.8474 10.0464 20.8985 9.9861C21.1933 9.63894 21.3288 9.40566 21.3973 9.19484C21.5441 8.74294 21.5441 8.25616 21.3973 7.80426C21.3288 7.59343 21.1933 7.36016 20.8985 7.013C20.5981 6.65914 20.1784 6.23854 19.5756 5.63576L18.8638 4.92399C18.261 4.32121 17.8404 3.90144 17.4866 3.60104C17.1394 3.30632 16.9062 3.17081 16.6953 3.10231ZM14.8412 1.67573C15.5944 1.43101 16.4057 1.43101 17.1588 1.67573C17.633 1.82979 18.0392 2.10258 18.4573 2.45753C18.8634 2.80227 19.327 3.26586 19.9018 3.84064L19.9245 3.86333L20.6363 4.5751L20.659 4.59784L20.659 4.59788C21.2338 5.17261 21.6973 5.63617 22.0421 6.04223C22.397 6.46034 22.6698 6.86658 22.8239 7.34073C23.0686 8.0939 23.0686 8.9052 22.8239 9.65836C22.6698 10.1325 22.397 10.5388 22.0421 10.9569C21.6973 11.363 21.2337 11.8266 20.6589 12.4014L20.6363 12.424L12.9245 20.1358L12.9018 20.1585L12.9017 20.1585C12.327 20.7333 11.8634 21.1968 11.4574 21.5416C11.0392 21.8965 10.633 22.1693 10.1588 22.3234C9.40569 22.5681 8.59438 22.5681 7.84122 22.3234C7.36706 22.1693 6.96083 21.8965 6.54272 21.5416C6.13666 21.1968 5.67311 20.7333 5.0984 20.1586L5.09829 20.1585L5.09823 20.1584L5.07559 20.1358L4.36382 19.424L4.34108 19.4013C3.76633 18.8265 3.30275 18.3629 2.95802 17.9569C2.60307 17.5387 2.33028 17.1325 2.17621 16.6584C1.9315 15.9052 1.9315 15.0939 2.17621 14.3407C2.33028 13.8666 2.60307 13.4603 2.95802 13.0422C3.30276 12.6361 3.76636 12.1725 4.34115 11.5978L4.36382 11.5751L12.0756 3.86333L12.0983 3.84062C12.6731 3.26585 13.1366 2.80226 13.5427 2.45753C13.9608 2.10258 14.3671 1.82979 14.8412 1.67573Z" fill="white"/>
</svg>
