<svg width="20" height="20" viewBox="0 0 20 20" fill="none" xmlns="http://www.w3.org/2000/svg">
<g id="diskette">
<path id="Icon" fill-rule="evenodd" clip-rule="evenodd" d="M13.2685 2.50657C12.9146 2.42159 12.5298 2.41677 11.5157 2.41677H8.06666C6.93418 2.41677 6.12993 2.41735 5.50055 2.46878C4.87992 2.51948 4.49567 2.61586 4.1912 2.771C3.57967 3.08259 3.08248 3.57978 2.77089 4.1913C2.61576 4.49577 2.51938 4.88003 2.46867 5.50065C2.41725 6.13004 2.41666 6.93429 2.41666 8.06677V11.9334C2.41666 13.0659 2.41725 13.8702 2.46867 14.4996C2.51938 15.1202 2.61576 15.5044 2.77089 15.8089C3.08248 16.4204 3.57967 16.9176 4.1912 17.2292C4.49567 17.3843 4.87992 17.4807 5.50055 17.5314C5.63125 17.5421 5.7695 17.5506 5.91666 17.5573V14.0334L5.91666 14.003V14.003C5.91665 13.4688 5.91665 13.023 5.9464 12.6588C5.97744 12.2789 6.04455 11.9222 6.2164 11.585C6.48005 11.0675 6.90074 10.6468 7.41819 10.3832C7.75545 10.2113 8.11211 10.1442 8.49199 10.1132C8.85623 10.0834 9.30208 10.0834 9.83623 10.0834H9.86666H10.1333H10.1638C10.6979 10.0834 11.1438 10.0834 11.508 10.1132C11.8879 10.1442 12.2445 10.2113 12.5818 10.3832C13.0993 10.6468 13.5199 11.0675 13.7836 11.585C13.9554 11.9222 14.0226 12.2789 14.0536 12.6588C14.0834 13.023 14.0833 13.4688 14.0833 14.003V14.003V14.0334V17.5573C14.2305 17.5506 14.3687 17.5421 14.4995 17.5314C15.1201 17.4807 15.5043 17.3843 15.8088 17.2292C16.4203 16.9176 16.9175 16.4204 17.2291 15.8089C17.3842 15.5044 17.4806 15.1202 17.5313 14.4996C17.5827 13.8702 17.5833 13.0659 17.5833 11.9334V8.48441C17.5833 7.47034 17.5785 7.08555 17.4935 6.7316C17.4139 6.39998 17.2826 6.08296 17.1044 5.79217C16.9142 5.4818 16.6455 5.2063 15.9285 4.48925L15.5109 4.07162C14.7938 3.35457 14.5183 3.08589 14.2079 2.89569C13.9171 2.7175 13.6001 2.58618 13.2685 2.50657ZM12.5833 17.5829V14.0334C12.5833 13.461 12.5827 13.0768 12.5586 12.7809C12.5351 12.4938 12.4932 12.3565 12.4471 12.2659C12.3272 12.0307 12.136 11.8395 11.9008 11.7197C11.8103 11.6735 11.673 11.6317 11.3859 11.6082C11.09 11.584 10.7058 11.5834 10.1333 11.5834H9.86666C9.29424 11.5834 8.91002 11.584 8.61414 11.6082C8.32702 11.6317 8.18974 11.6735 8.09918 11.7197C7.86397 11.8395 7.67275 12.0307 7.55291 12.2659C7.50676 12.3565 7.46488 12.4938 7.44142 12.7809C7.41725 13.0768 7.41666 13.461 7.41666 14.0334V17.5829C7.62068 17.5834 7.83692 17.5834 8.06667 17.5834H11.9333C12.1631 17.5834 12.3793 17.5834 12.5833 17.5829ZM11.6092 0.916761C12.4981 0.916607 13.0709 0.916507 13.6187 1.04801C14.1033 1.16437 14.5667 1.35629 14.9917 1.61673C15.472 1.91107 15.877 2.31619 16.5054 2.94481L16.5715 3.01096L16.9891 3.42859L17.0553 3.49473C17.6839 4.12313 18.089 4.52811 18.3834 5.00842C18.6438 5.43342 18.8357 5.89675 18.9521 6.38143C19.0836 6.92919 19.0835 7.50202 19.0833 8.39088L19.0833 8.48441V11.9334V11.9665C19.0833 13.0586 19.0833 13.9241 19.0263 14.6217C18.9681 15.3351 18.8465 15.9387 18.5656 16.4899C18.1102 17.3837 17.3836 18.1103 16.4898 18.5657C15.9386 18.8466 15.335 18.9682 14.6216 19.0265C13.924 19.0834 13.0585 19.0834 11.9664 19.0834H11.9333H8.06667H8.03365C6.94151 19.0834 6.07602 19.0834 5.3784 19.0265C4.66501 18.9682 4.06138 18.8466 3.51021 18.5657C2.61644 18.1103 1.88978 17.3837 1.43438 16.4899C1.15355 15.9387 1.03194 15.3351 0.973652 14.6217C0.916654 13.9241 0.916659 13.0586 0.916664 11.9664L0.916665 11.9334V8.06677L0.916664 8.03377C0.916659 6.94163 0.916654 6.07613 0.973652 5.37851C1.03194 4.66512 1.15355 4.06149 1.43438 3.51032C1.88978 2.61655 2.61644 1.88989 3.51021 1.43449C4.06138 1.15365 4.66501 1.03205 5.3784 0.973759C6.07602 0.916761 6.94152 0.916766 8.03366 0.916771L8.06666 0.916771H11.5157L11.6092 0.916761ZM5.91666 6.66677C5.91666 6.25256 6.25245 5.91677 6.66666 5.91677L13.3333 5.91677C13.7475 5.91677 14.0833 6.25256 14.0833 6.66677C14.0833 7.08099 13.7475 7.41677 13.3333 7.41677L6.66666 7.41677C6.25245 7.41677 5.91666 7.08099 5.91666 6.66677Z" fill="white"/>
</g>
</svg>
