<svg width="25" height="24" viewBox="0 0 25 24" fill="none" xmlns="http://www.w3.org/2000/svg">
<path fill-rule="evenodd" clip-rule="evenodd" d="M3.25 11C3.25 6.44365 6.94365 2.75 11.5 2.75C16.0563 2.75 19.75 6.44365 19.75 11C19.75 15.5563 16.0563 19.25 11.5 19.25C6.94365 19.25 3.25 15.5563 3.25 11ZM11.5 1.25C6.11522 1.25 1.75 5.61522 1.75 11C1.75 16.3848 6.11522 20.75 11.5 20.75C13.9224 20.75 16.1385 19.8666 17.8437 18.4043L20.9697 21.5303C21.2626 21.8232 21.7374 21.8232 22.0303 21.5303C22.3232 21.2374 22.3232 20.7626 22.0303 20.4697L18.9043 17.3437C20.3666 15.6385 21.25 13.4224 21.25 11C21.25 5.61522 16.8848 1.25 11.5 1.25Z" fill="#FFFFFF"/>
</svg>
