<svg width="24" height="24" viewBox="0 0 24 24" fill="none" xmlns="http://www.w3.org/2000/svg">
<g id="send">
<path id="Icon" fill-rule="evenodd" clip-rule="evenodd" d="M9.374 3.34849L9.34031 3.33165C7.87027 2.59662 6.72545 2.02421 5.85164 1.66987C5.40976 1.49069 5.00534 1.35379 4.64076 1.28207C4.27957 1.21103 3.89812 1.19168 3.53507 1.30885C2.61199 1.60676 1.91412 2.36892 1.6985 3.3146C1.61369 3.68655 1.66649 4.06482 1.76901 4.41838C1.87249 4.77524 2.04441 5.16606 2.26173 5.59048C2.6915 6.42976 3.36232 7.51983 4.2237 8.91956L4.24345 8.95166L5.32919 10.716C5.73229 11.371 5.83218 11.5519 5.87133 11.7264C5.91174 11.9066 5.91174 12.0935 5.87133 12.2736C5.83218 12.4482 5.73229 12.629 5.32919 13.2841L4.24345 15.0484L4.22371 15.0805L4.22365 15.0805C3.3623 16.4802 2.69149 17.5703 2.26173 18.4096C2.04441 18.834 1.87249 19.2248 1.76901 19.5817C1.66649 19.9352 1.61369 20.3135 1.6985 20.6854C1.91412 21.6311 2.61199 22.3933 3.53507 22.6912C3.89812 22.8084 4.27957 22.789 4.64076 22.718C5.00534 22.6463 5.40976 22.5094 5.85163 22.3302C6.72543 21.9758 7.87023 21.4034 9.34024 20.6684L9.37399 20.6515L19.6111 15.533L19.6459 15.5156C20.5375 15.0698 21.2535 14.7118 21.7803 14.3855C22.3042 14.061 22.7677 13.6948 23.0126 13.1785C23.3663 12.4326 23.3663 11.5674 23.0126 10.8216C22.7677 10.3053 22.3042 9.93907 21.7803 9.61455C21.2536 9.28825 20.5376 8.93027 19.6459 8.48447L19.6111 8.46704L9.374 3.34849ZM3.99577 2.73635C4.02158 2.72802 4.1191 2.7082 4.35126 2.75387C4.58004 2.79887 4.88338 2.89587 5.28796 3.05993C6.1004 3.38938 7.19248 3.93478 8.70318 4.69014L18.9403 9.80868C19.8748 10.276 20.5289 10.6038 20.9904 10.8897C21.4616 11.1816 21.6065 11.3574 21.6573 11.4644C21.8181 11.8034 21.8181 12.1967 21.6573 12.5357C21.6065 12.6427 21.4616 12.8184 20.9904 13.1103C20.5289 13.3962 19.8748 13.7241 18.9403 14.1914L8.70317 19.3099C7.19247 20.0653 6.10039 20.6107 5.28796 20.9401C4.88338 21.1042 4.58004 21.2012 4.35126 21.2462C4.1191 21.2918 4.02158 21.272 3.99577 21.2637C3.57619 21.1283 3.25898 20.7818 3.16097 20.352C3.15494 20.3255 3.14377 20.2267 3.20966 19.9994C3.2746 19.7755 3.39789 19.4818 3.59687 19.0932C3.99645 18.3129 4.63573 17.273 5.52094 15.8345L6.60667 14.0702L6.66329 13.9783C6.94753 13.5173 7.1775 13.1443 7.29605 12.75H11C11.4142 12.75 11.75 12.4142 11.75 12C11.75 11.5858 11.4142 11.25 11 11.25H7.29605C7.1775 10.8558 6.94753 10.4828 6.66329 10.0217L6.66328 10.0217L6.60667 9.92984L5.52094 8.16552C4.63573 6.72705 3.99645 5.68714 3.59687 4.9068C3.39789 4.51821 3.2746 4.22457 3.20966 4.00063C3.14377 3.77338 3.15494 3.6745 3.16097 3.64806C3.25898 3.2182 3.57619 2.87176 3.99577 2.73635Z" fill="#FFFFFF"/>
</g>
</svg>
