<svg width="25" height="24" viewBox="0 0 25 24" fill="none" xmlns="http://www.w3.org/2000/svg">
<g id="inactive.icon">
<path id="Icon" d="M5.86607 20.7615L6.42135 20.2573H6.42135L5.86607 20.7615ZM7 21.5262L6.625 22.1758H6.625L7 21.5262ZM5.35291 19.2612L6.10063 19.3196L5.35291 19.2612ZM5.78094 17.9621L5.08671 17.6783H5.08671L5.78094 17.9621ZM5.57824 16.0138L4.929 16.3893L4.92978 16.3906L5.57824 16.0138ZM5.56149 15.9848L4.91146 16.359L4.91225 16.3603L5.56149 15.9848ZM3.97707 14.8378L4.07841 14.0947H4.07841L3.97707 14.8378ZM2.63807 14.559L2.31485 15.2358L2.31485 15.2358L2.63807 14.559ZM1.59535 13.3644L2.3096 13.1356H2.3096L1.59535 13.3644ZM1.59535 10.6356L2.3096 10.8645L2.3096 10.8645L1.59535 10.6356ZM2.63807 9.44108L2.31485 8.76431H2.31485L2.63807 9.44108ZM3.97708 9.16226L4.07841 9.90538H4.07841L3.97708 9.16226ZM5.56148 8.01524L4.91224 7.63975L4.91146 7.64112L5.56148 8.01524ZM5.57823 7.98628L4.92978 7.60944L4.92899 7.61079L5.57823 7.98628ZM5.78094 6.03793L6.47527 5.75409L6.4703 5.74249L5.78094 6.03793ZM5.78094 6.03792L5.07609 6.29423C5.08089 6.30741 5.08605 6.32046 5.09158 6.33336L5.78094 6.03792ZM5.78093 6.0379L6.48577 5.7816C6.48242 5.77236 6.47888 5.7632 6.47516 5.7541L5.78093 6.0379ZM5.35291 4.7389L6.10063 4.68044V4.68044L5.35291 4.7389ZM5.86607 3.23861L5.31078 2.73447L5.86607 3.23861ZM7 2.47383L7.375 3.12335C7.38894 3.1153 7.40262 3.1068 7.41602 3.09787L7 2.47383ZM7 2.47383L6.63751 1.81724C6.61922 1.82734 6.60136 1.8382 6.58397 1.84979L7 2.47383ZM7.00001 2.47382L7.36249 3.13041C7.36669 3.12809 7.37086 3.12574 7.375 3.12334L7.00001 2.47382ZM8.22928 1.87421L8.38824 2.60717L8.22928 1.87421ZM9.78515 2.17995L10.2096 1.56164V1.56164L9.78515 2.17995ZM10.6961 3.20015L11.289 2.74083V2.74083L10.6961 3.20015ZM12.4837 4.00005L12.4829 3.25005L12.4822 3.25005L12.4837 4.00005ZM12.5 4.00004L12.5007 3.25003L12.4992 3.25004L12.5 4.00004ZM12.5161 4.00005L12.5175 3.25005L12.5168 3.25005L12.5161 4.00005ZM14.3039 3.2L14.8968 3.65932V3.65932L14.3039 3.2ZM15.2148 2.1798L14.7903 1.56149V1.56149L15.2148 2.1798ZM16.7707 1.87406L16.6118 2.60702L16.7707 1.87406ZM18 2.47368L17.625 3.1232V3.1232L18 2.47368ZM19.1339 3.23846L19.6892 2.73432L19.6892 2.73432L19.1339 3.23846ZM19.6471 4.73876L18.8994 4.68029V4.68029L19.6471 4.73876ZM19.2191 6.03776L18.5248 5.75396C18.5163 5.77469 18.5088 5.79579 18.5022 5.8172L19.2191 6.03776ZM19.219 6.03778L19.9133 6.32158C19.9218 6.30085 19.9293 6.27975 19.9359 6.25835L19.219 6.03778ZM19.4218 7.9863L20.071 7.61082L20.0702 7.60946L19.4218 7.9863ZM19.4385 8.01523L20.0885 7.64111L20.0878 7.63976L19.4385 8.01523ZM21.0229 9.16226L20.9216 9.90538L21.0229 9.16226ZM22.3619 9.44109L22.0387 10.1179L22.3619 9.44109ZM23.4046 10.6356L22.6904 10.8645V10.8645L23.4046 10.6356ZM23.4046 13.3644L22.6904 13.1356V13.1356L23.4046 13.3644ZM22.3619 14.559L22.6852 15.2358L22.6852 15.2358L22.3619 14.559ZM21.0229 14.8378L20.9216 14.0947H20.9216L21.0229 14.8378ZM19.4385 15.9849L20.0878 16.3603L20.0885 16.359L19.4385 15.9849ZM19.4218 16.0138L20.0702 16.3906L20.071 16.3892L19.4218 16.0138ZM19.2191 17.9623L19.9133 17.6785V17.6785L19.2191 17.9623ZM19.6471 19.2613L20.3948 19.2028V19.2028L19.6471 19.2613ZM19.1339 20.7616L19.6892 21.2658V21.2657L19.1339 20.7616ZM18 21.5264L18.375 22.1759L18 21.5264ZM16.7707 22.126L16.6118 21.393H16.6118L16.7707 22.126ZM15.2148 21.8203L15.6393 21.202H15.6393L15.2148 21.8203ZM14.3039 20.8001L14.8968 20.3407L14.3039 20.8001ZM12.5161 20L12.5168 20.75L12.5175 20.75L12.5161 20ZM12.5 20L12.4993 20.75L12.5007 20.75L12.5 20ZM12.4837 20L12.4822 20.75L12.483 20.75L12.4837 20ZM10.6961 20.7999L10.1032 20.3406L10.1032 20.3406L10.6961 20.7999ZM9.78515 21.8201L10.2096 22.4384L10.2096 22.4384L9.78515 21.8201ZM8.22928 22.1259L8.38824 21.3929H8.38823L8.22928 22.1259ZM5.31078 21.2656C5.61916 21.6053 6.05685 21.8477 6.625 22.1758L7.375 20.8767C6.71135 20.4936 6.53315 20.3805 6.42135 20.2573L5.31078 21.2656ZM4.60519 19.2027C4.54612 19.9582 4.80141 20.7046 5.31078 21.2656L6.42135 20.2573C6.18982 20.0023 6.07378 19.663 6.10063 19.3196L4.60519 19.2027ZM5.08671 17.6783C4.83846 18.2856 4.64096 18.7453 4.60519 19.2027L6.10063 19.3196C6.11359 19.1538 6.1852 18.9553 6.47517 18.2459L5.08671 17.6783ZM4.92978 16.3906C5.18778 16.8346 5.23859 17.3068 5.08671 17.6783L6.47517 18.2459C6.84341 17.3452 6.65931 16.3814 6.22669 15.637L4.92978 16.3906ZM4.91225 16.3603L4.929 16.3893L6.22748 15.6383L6.21073 15.6094L4.91225 16.3603ZM3.87574 15.5809C4.27258 15.6351 4.65563 15.9145 4.91147 16.359L6.21152 15.6107C5.78285 14.8659 5.04121 14.226 4.07841 14.0947L3.87574 15.5809ZM2.31485 15.2358C2.72882 15.4335 3.22572 15.4923 3.87574 15.5809L4.07841 14.0947C3.31913 13.9912 3.11138 13.9539 2.96129 13.8822L2.31485 15.2358ZM0.881112 13.5933C1.11231 14.3149 1.63104 14.9092 2.31485 15.2358L2.96129 13.8822C2.65047 13.7338 2.41468 13.4636 2.3096 13.1356L0.881112 13.5933ZM0.75 12C0.75 12.6561 0.741147 13.1564 0.881112 13.5933L2.3096 13.1356C2.25885 12.9772 2.25 12.7663 2.25 12H0.75ZM0.881112 10.4068C0.741147 10.8437 0.75 11.344 0.75 12H2.25C2.25 11.2337 2.25885 11.0229 2.3096 10.8645L0.881112 10.4068ZM2.31485 8.76431C1.63104 9.09089 1.11231 9.68516 0.881112 10.4068L2.3096 10.8645C2.41469 10.5364 2.65047 10.2663 2.96129 10.1179L2.31485 8.76431ZM3.87574 8.41913C3.22572 8.50777 2.72882 8.5666 2.31485 8.76431L2.96129 10.1179C3.11138 10.0462 3.31913 10.0089 4.07841 9.90538L3.87574 8.41913ZM4.91146 7.64112C4.65562 8.08563 4.27258 8.36502 3.87574 8.41913L4.07841 9.90538C5.04121 9.77409 5.78285 9.13415 6.21151 8.38935L4.91146 7.64112ZM4.92899 7.61079L4.91224 7.63975L6.21073 8.39072L6.22748 8.36176L4.92899 7.61079ZM5.08671 6.32173C5.23859 6.69325 5.18778 7.16547 4.92978 7.60944L6.22669 8.36311C6.65931 7.61867 6.84341 6.65491 6.47517 5.75413L5.08671 6.32173ZM5.09158 6.33336L5.09158 6.33337L6.4703 5.74249L6.47029 5.74248L5.09158 6.33336ZM5.07609 6.29421L5.07609 6.29423L6.48578 5.78161L6.48577 5.7816L5.07609 6.29421ZM4.60519 4.79737C4.64096 5.25473 4.83846 5.71447 5.0867 6.32171L6.47516 5.7541C6.18519 5.04479 6.11359 4.84625 6.10063 4.68044L4.60519 4.79737ZM5.31078 2.73447C4.80141 3.29551 4.54612 4.04189 4.60519 4.79737L6.10063 4.68044C6.07378 4.33703 6.18982 3.99777 6.42135 3.74275L5.31078 2.73447ZM6.625 1.82431C6.05685 2.15233 5.61916 2.39481 5.31078 2.73447L6.42135 3.74275C6.53315 3.61961 6.71135 3.5065 7.375 3.12335L6.625 1.82431ZM6.58397 1.84979L6.58397 1.84979L7.41602 3.09787L7.41602 3.09786L6.58397 1.84979ZM6.63752 1.81724L6.63751 1.81724L7.36249 3.13041L7.36249 3.13041L6.63752 1.81724ZM8.07032 1.14125C7.62198 1.23848 7.19315 1.49629 6.62501 1.8243L7.375 3.12334C8.03864 2.74019 8.22569 2.64242 8.38824 2.60717L8.07032 1.14125ZM10.2096 1.56164C9.58492 1.13274 8.81089 0.980637 8.07032 1.14125L8.38824 2.60717C8.72486 2.53416 9.07669 2.6033 9.36066 2.79826L10.2096 1.56164ZM11.289 2.74083C10.8872 2.22221 10.5879 1.8213 10.2096 1.56164L9.36066 2.79826C9.49777 2.89239 9.63392 3.05368 10.1032 3.65947L11.289 2.74083ZM12.4822 3.25005C11.9695 3.25108 11.5352 3.05855 11.289 2.74083L10.1032 3.65947C10.6985 4.42787 11.6239 4.75177 12.4852 4.75005L12.4822 3.25005ZM12.4992 3.25004L12.4829 3.25005L12.4844 4.75005L12.5008 4.75004L12.4992 3.25004ZM12.5168 3.25005L12.5007 3.25004L12.4993 4.75004L12.5153 4.75005L12.5168 3.25005ZM13.711 2.74068C13.4648 3.05849 13.0303 3.25106 12.5175 3.25005L12.5146 4.75005C13.3759 4.75174 14.3014 4.42781 14.8968 3.65932L13.711 2.74068ZM14.7903 1.56149C14.4121 1.82115 14.1127 2.22206 13.711 2.74068L14.8968 3.65932C15.3661 3.05353 15.5022 2.89225 15.6393 2.79811L14.7903 1.56149ZM16.9297 1.1411C16.1891 0.98049 15.4151 1.13259 14.7903 1.56149L15.6393 2.79811C15.9233 2.60315 16.2751 2.53402 16.6118 2.60702L16.9297 1.1411ZM18.375 1.82416C17.8068 1.49614 17.378 1.23833 16.9297 1.1411L16.6118 2.60702C16.7743 2.64227 16.9614 2.74005 17.625 3.1232L18.375 1.82416ZM19.6892 2.73432C19.3808 2.39466 18.9431 2.15218 18.375 1.82416L17.625 3.1232C18.2886 3.50635 18.4668 3.61946 18.5786 3.7426L19.6892 2.73432ZM20.3948 4.79722C20.4539 4.04174 20.1986 3.29537 19.6892 2.73432L18.5786 3.7426C18.8102 3.99763 18.9262 4.33689 18.8994 4.68029L20.3948 4.79722ZM19.9133 6.32157C20.1615 5.71432 20.359 5.25459 20.3948 4.79722L18.8994 4.68029C18.8864 4.8461 18.8148 5.04465 18.5248 5.75396L19.9133 6.32157ZM19.9359 6.25835L19.9359 6.25833L18.5022 5.8172L18.5022 5.81722L19.9359 6.25835ZM20.0702 7.60946C19.8122 7.16544 19.7614 6.69316 19.9133 6.32158L18.5248 5.75398C18.1566 6.65482 18.3407 7.61864 18.7733 8.36313L20.0702 7.60946ZM20.0878 7.63976L20.071 7.61082L18.7725 8.36177L18.7893 8.3907L20.0878 7.63976ZM21.1243 8.41914C20.7274 8.36502 20.3444 8.08563 20.0885 7.64111L18.7885 8.38935C19.2171 9.13415 19.9588 9.77409 20.9216 9.90538L21.1243 8.41914ZM22.6852 8.76431C22.2712 8.5666 21.7743 8.50777 21.1243 8.41914L20.9216 9.90538C21.6809 10.0089 21.8886 10.0462 22.0387 10.1179L22.6852 8.76431ZM24.1189 10.4068C23.8877 9.68516 23.369 9.09089 22.6852 8.76431L22.0387 10.1179C22.3495 10.2663 22.5853 10.5364 22.6904 10.8645L24.1189 10.4068ZM24.25 12C24.25 11.344 24.2589 10.8437 24.1189 10.4068L22.6904 10.8645C22.7411 11.0229 22.75 11.2337 22.75 12H24.25ZM24.1189 13.5933C24.2589 13.1564 24.25 12.6561 24.25 12H22.75C22.75 12.7663 22.7411 12.9772 22.6904 13.1356L24.1189 13.5933ZM22.6852 15.2358C23.369 14.9092 23.8877 14.3149 24.1189 13.5933L22.6904 13.1356C22.5853 13.4636 22.3495 13.7338 22.0387 13.8822L22.6852 15.2358ZM21.1243 15.5809C21.7743 15.4923 22.2712 15.4335 22.6852 15.2358L22.0387 13.8822C21.8886 13.9539 21.6809 13.9912 20.9216 14.0947L21.1243 15.5809ZM20.0885 16.359C20.3444 15.9145 20.7274 15.6351 21.1243 15.5809L20.9216 14.0947C19.9588 14.226 19.2171 14.8659 18.7885 15.6107L20.0885 16.359ZM20.071 16.3892L20.0878 16.3603L18.7892 15.6094L18.7725 15.6383L20.071 16.3892ZM19.9133 17.6785C19.7614 17.3069 19.8122 16.8346 20.0702 16.3906L18.7733 15.6369C18.3407 16.3814 18.1566 17.3453 18.5248 18.2461L19.9133 17.6785ZM20.3948 19.2028C20.359 18.7455 20.1615 18.2857 19.9133 17.6785L18.5248 18.2461C18.8148 18.9554 18.8864 19.154 18.8994 19.3198L20.3948 19.2028ZM19.6892 21.2657C20.1986 20.7047 20.4539 19.9583 20.3948 19.2028L18.8994 19.3198C18.9262 19.6632 18.8102 20.0024 18.5786 20.2575L19.6892 21.2657ZM18.375 22.1759C18.9431 21.8479 19.3808 21.6054 19.6892 21.2658L18.5786 20.2575C18.4668 20.3806 18.2886 20.4937 17.625 20.8769L18.375 22.1759ZM16.9297 22.859C17.378 22.7617 17.8069 22.5039 18.375 22.1759L17.625 20.8769C16.9614 21.26 16.7743 21.3578 16.6118 21.393L16.9297 22.859ZM14.7903 22.4386C15.4151 22.8675 16.1891 23.0196 16.9297 22.859L16.6118 21.393C16.2751 21.4661 15.9233 21.3969 15.6393 21.202L14.7903 22.4386ZM13.711 21.2594C14.1127 21.778 14.4121 22.1789 14.7903 22.4386L15.6393 21.202C15.5022 21.1078 15.3661 20.9465 14.8968 20.3407L13.711 21.2594ZM12.5175 20.75C13.0303 20.749 13.4648 20.9416 13.711 21.2594L14.8968 20.3407C14.3014 19.5723 13.3759 19.2483 12.5146 19.25L12.5175 20.75ZM12.5007 20.75L12.5168 20.75L12.5153 19.25L12.4993 19.25L12.5007 20.75ZM12.483 20.75L12.4993 20.75L12.5007 19.25L12.4844 19.25L12.483 20.75ZM11.289 21.2592C11.5352 20.9415 11.9695 20.749 12.4822 20.75L12.4852 19.25C11.6239 19.2483 10.6985 19.5722 10.1032 20.3406L11.289 21.2592ZM10.2096 22.4384C10.5879 22.1788 10.8872 21.7779 11.289 21.2592L10.1032 20.3406C9.63392 20.9464 9.49777 21.1077 9.36066 21.2018L10.2096 22.4384ZM8.07032 22.8588C8.81089 23.0194 9.58492 22.8673 10.2096 22.4384L9.36066 21.2018C9.07669 21.3968 8.72486 21.4659 8.38824 21.3929L8.07032 22.8588ZM6.625 22.1758C7.19314 22.5038 7.62198 22.7616 8.07032 22.8588L8.38823 21.3929C8.22569 21.3576 8.03864 21.2599 7.375 20.8767L6.625 22.1758ZM14.75 12C14.75 13.2426 13.7426 14.25 12.5 14.25V15.75C14.5711 15.75 16.25 14.0711 16.25 12H14.75ZM12.5 9.75C13.7426 9.75 14.75 10.7574 14.75 12H16.25C16.25 9.92893 14.5711 8.25 12.5 8.25V9.75ZM10.25 12C10.25 10.7574 11.2574 9.75 12.5 9.75V8.25C10.4289 8.25 8.75 9.92893 8.75 12H10.25ZM12.5 14.25C11.2574 14.25 10.25 13.2426 10.25 12H8.75C8.75 14.0711 10.4289 15.75 12.5 15.75V14.25Z" fill="#FFFFFF"/>
</g>
</svg>

