<svg width="16" height="17" viewBox="0 0 16 17" fill="none" xmlns="http://www.w3.org/2000/svg">
<path fill-rule="evenodd" clip-rule="evenodd" d="M0.802678 1.30268C1.09557 1.00979 1.57044 1.00979 1.86334 1.30268L3.44415 2.88349L12.9696 12.4089L14.53 13.9693C14.8229 14.2622 14.8229 14.7371 14.53 15.03C14.2371 15.3229 13.7622 15.3229 13.4693 15.03L12.3965 13.9571C11.7802 14.4148 11.0533 14.7782 10.1589 15.2253C10.1321 15.2387 10.1052 15.2522 10.0782 15.2657C9.3981 15.6058 8.63276 15.9163 7.99968 15.9163C7.36659 15.9163 6.60125 15.6058 5.9212 15.2657C5.89283 15.2515 5.86464 15.2374 5.83663 15.2234C4.19422 14.4023 3.17343 13.892 2.27791 12.5543C2.20827 12.4503 2.10704 12.2865 2.04515 12.1777C1.24887 10.7777 1.24917 9.3115 1.24965 6.93299C1.24966 6.8737 1.24968 6.81384 1.24968 6.7534C1.24968 6.69843 1.24963 6.6441 1.24959 6.59039C1.24863 5.3457 1.24792 4.43338 1.77694 3.59511C1.80585 3.5493 1.84393 3.49271 1.88039 3.44105L0.802678 2.36334C0.509785 2.07045 0.509784 1.59557 0.802678 1.30268ZM2.96934 4.53C2.76946 4.92866 2.74968 5.42649 2.74968 6.7534C2.74968 9.37155 2.77034 10.4187 3.349 11.4361C3.3929 11.5133 3.47498 11.6461 3.52437 11.7199C4.18306 12.7038 4.85654 13.0562 6.59212 13.9241C7.27342 14.2648 7.75523 14.4163 7.99968 14.4163C8.24412 14.4163 8.72594 14.2648 9.40724 13.9241C10.273 13.4912 10.8627 13.1926 11.3214 12.882L2.96934 4.53ZM7.99968 2.58301C7.24619 2.58301 6.39646 2.7683 5.56619 3.03989C5.1725 3.16867 4.74896 2.95392 4.62018 2.56024C4.4914 2.16655 4.70615 1.74301 5.09983 1.61423C6.00583 1.31786 7.02465 1.08301 7.99968 1.08301C9.23784 1.08301 10.5553 1.46233 11.6354 1.87583C11.6714 1.8896 11.707 1.90322 11.7423 1.91671C12.7377 2.29706 13.4759 2.57917 14.069 3.37208C14.1169 3.43618 14.1797 3.52741 14.2224 3.5951C14.7514 4.43337 14.7507 5.34569 14.7498 6.59038C14.7497 6.6441 14.7497 6.69843 14.7497 6.7534L14.7497 6.83996C14.7497 8.45276 14.7498 9.65333 14.53 10.6597C14.4416 11.0644 14.0419 11.3208 13.6372 11.2324C13.2325 11.144 12.9761 10.7443 13.0645 10.3396C13.2456 9.51046 13.2497 8.47568 13.2497 6.7534C13.2497 5.27431 13.2251 4.82538 12.9539 4.39564C12.9323 4.36146 12.892 4.3029 12.8678 4.27053C12.5582 3.85663 12.2352 3.7116 11.0991 3.27668C10.0833 2.88779 8.96714 2.58301 7.99968 2.58301Z" fill="#5F6989"/>
</svg>
