<svg width="26" height="26" viewBox="0 0 26 26" fill="none" xmlns="http://www.w3.org/2000/svg">
<g id="leading-icon">
<path id="Icon" fill-rule="evenodd" clip-rule="evenodd" d="M7.08933 4.93148C8.85917 4.18342 11.018 3.49072 12.8889 3.49072C14.7598 3.49072 16.9187 4.18342 18.6885 4.93148C19.6782 5.34978 20.0348 5.5087 20.4403 5.88739C20.7574 6.1835 21.1245 6.73713 21.2738 7.1445C21.4627 7.65992 21.4722 8.15159 21.4722 9.47544V11.9935C21.4722 14.3356 21.4646 15.355 21.1206 16.4188C20.8516 17.2506 20.2089 18.37 19.6261 19.0216C18.8763 19.8598 18.2011 20.2605 16.6272 21.1791C15.8557 21.6294 15.1019 22.0256 14.4329 22.3071C13.7442 22.5969 13.2223 22.7314 12.8889 22.7314C12.5555 22.7314 12.0336 22.5969 11.3449 22.3071C10.676 22.0256 9.92212 21.6294 9.15063 21.1791C7.57672 20.2605 6.90151 19.8598 6.15175 19.0216C5.56894 18.37 4.92621 17.2506 4.65725 16.4188C4.31326 15.355 4.30558 14.3356 4.30558 11.9935L4.30558 9.47544C4.30558 8.15159 4.31515 7.65992 4.50403 7.1445C4.65332 6.73714 5.02037 6.1835 5.33748 5.88739C5.74303 5.5087 6.09967 5.34978 7.08933 4.93148ZM12.8889 1.99072C10.7105 1.99072 8.32602 2.78029 6.50535 3.54983L6.43686 3.57877C5.52806 3.9627 4.93049 4.21515 4.31374 4.79105C3.82469 5.24772 3.32587 6.00011 3.09563 6.62837C2.8051 7.42115 2.80528 8.18798 2.80556 9.36382L2.80558 9.47544L2.80558 11.9935L2.80557 12.1101C2.80544 14.3038 2.80537 15.5671 3.23001 16.8803C3.56335 17.9113 4.3114 19.214 5.03372 20.0216C5.95363 21.0501 6.82697 21.5598 8.33514 22.44L8.39449 22.4746C9.19571 22.9423 10.0114 23.3734 10.7632 23.6897C11.4952 23.9977 12.2451 24.2314 12.8889 24.2314C13.5327 24.2314 14.2826 23.9977 15.0146 23.6897C15.7664 23.3734 16.5821 22.9423 17.3833 22.4746L17.4427 22.44C18.9509 21.5598 19.8242 21.0501 20.7441 20.0216C21.4664 19.214 22.2145 17.9112 22.5478 16.8803C22.9725 15.5671 22.9724 14.3038 22.9722 12.1102L22.9722 11.9935V9.47544L22.9723 9.36382V9.36378C22.9725 8.18797 22.9727 7.42114 22.6822 6.62836C22.452 6.00011 21.9531 5.24772 21.4641 4.79105C20.8473 4.21514 20.2498 3.9627 19.341 3.57876L19.2725 3.54983C17.4518 2.78029 15.0673 1.99072 12.8889 1.99072ZM17.0489 11.0488C17.3418 10.7559 17.3418 10.2811 17.0489 9.98817C16.756 9.69528 16.2811 9.69528 15.9882 9.98817L11.8519 14.1245L10.3081 12.5808C10.0152 12.2879 9.54036 12.2879 9.24747 12.5808C8.95458 12.8737 8.95458 13.3485 9.24747 13.6414L11.3215 15.7155C11.4622 15.8561 11.653 15.9352 11.8519 15.9352C12.0508 15.9352 12.2416 15.8561 12.3822 15.7155L17.0489 11.0488Z" fill="#00B012"/>
</g>
</svg>
