<!--<svg xmlns="http://www.w3.org/2000/svg" viewBox="0 0 26 22.5" fill="none" x="0px" y="0px"><path d="M24.444 7.239C22.905 5.062 18.708 0 13 0C7.29205 0 3.10005 5.062 1.55505 7.24C1.19242 7.75525 0.997803 8.36994 0.997803 9C0.997803 9.63006 1.19242 10.2447 1.55505 10.76C3.10005 12.938 7.29205 18 13 18C18.708 18 22.905 12.938 24.445 10.76C24.8078 10.2445 25.0023 9.62962 25.0021 8.99934C25.002 8.36907 24.807 7.75425 24.444 7.239ZM13 14C12.0111 14 11.0444 13.7068 10.2222 13.1573C9.39995 12.6079 8.75909 11.827 8.38065 10.9134C8.00221 9.99979 7.9032 8.99445 8.09612 8.02455C8.28905 7.05464 8.76525 6.16373 9.46452 5.46447C10.1638 4.7652 11.0547 4.289 12.0246 4.09607C12.9945 3.90315 13.9998 4.00216 14.9135 4.3806C15.8271 4.75904 16.608 5.3999 17.1574 6.22215C17.7068 7.04439 18 8.01109 18 9C18 10.3261 17.4733 11.5979 16.5356 12.5355C15.5979 13.4732 14.3261 14 13 14Z" fill="black"/><text x="0" y="33" fill="#000000" font-size="5px" font-weight="bold" font-family="'Helvetica Neue', Helvetica, Arial-Unicode, Arial, Sans-serif">Created by Nazanin Chekini Pour</text><text x="0" y="38" fill="#000000" font-size="5px" font-weight="bold" font-family="'Helvetica Neue', Helvetica, Arial-Unicode, Arial, Sans-serif">from the Noun Project</text></svg>-->
<svg width="22" height="18" viewBox="0 0 22 18" fill="none" xmlns="http://www.w3.org/2000/svg">
    <path fill-rule="evenodd" clip-rule="evenodd"
        d="M1.75 9.00098C1.75 7.98593 2.39346 6.16402 3.91524 4.58371C5.4072 3.03436 7.71554 1.75098 11 1.75098C14.2845 1.75098 16.5928 3.03436 18.0848 4.58371C19.6065 6.16402 20.25 7.98593 20.25 9.00098C20.25 10.016 19.6065 11.8379 18.0848 13.4182C16.5928 14.9676 14.2845 16.251 11 16.251C7.71554 16.251 5.4072 14.9676 3.91524 13.4182C2.39346 11.8379 1.75 10.016 1.75 9.00098ZM11 0.250977C7.28446 0.250977 4.5928 1.71759 2.83476 3.54325C1.10654 5.33793 0.25 7.51602 0.25 9.00098C0.25 10.4859 1.10654 12.664 2.83476 14.4587C4.5928 16.2844 7.28446 17.751 11 17.751C14.7155 17.751 17.4072 16.2844 19.1652 14.4587C20.8935 12.664 21.75 10.4859 21.75 9.00098C21.75 7.51602 20.8935 5.33793 19.1652 3.54325C17.4072 1.71759 14.7155 0.250977 11 0.250977ZM8.74991 9.00098C8.74991 7.75834 9.75727 6.75098 10.9999 6.75098C12.2425 6.75098 13.2499 7.75834 13.2499 9.00098C13.2499 10.2436 12.2425 11.251 10.9999 11.251C9.75727 11.251 8.74991 10.2436 8.74991 9.00098ZM10.9999 5.25098C8.92884 5.25098 7.24991 6.92991 7.24991 9.00098C7.24991 11.072 8.92884 12.751 10.9999 12.751C13.071 12.751 14.7499 11.072 14.7499 9.00098C14.7499 6.92991 13.071 5.25098 10.9999 5.25098Z"
        fill="#111111" />
</svg>
