<svg width="21" height="20" viewBox="0 0 21 20" fill="none" xmlns="http://www.w3.org/2000/svg">
<g id="small-caps">
<path id="Icon" fill-rule="evenodd" clip-rule="evenodd" d="M4.34961 1.75L4.25174 1.74992C3.8074 1.74937 3.42345 1.7489 3.08968 1.85413C2.38956 2.07488 1.84115 2.62329 1.62041 3.32341C1.51517 3.65718 1.51564 4.04112 1.51619 4.48547L1.51627 4.58333V5C1.51627 5.41421 1.85206 5.75 2.26627 5.75C2.68048 5.75 3.01627 5.41421 3.01627 5V4.58333C3.01627 3.98385 3.02502 3.85681 3.05098 3.77447C3.12457 3.5411 3.30737 3.35829 3.54074 3.28471C3.62308 3.25875 3.75012 3.25 4.34961 3.25H7.3496V16.75H6.43294C6.01872 16.75 5.68294 17.0858 5.68294 17.5C5.68294 17.9142 6.01872 18.25 6.43294 18.25H8.0996H9.76627C10.1805 18.25 10.5163 17.9142 10.5163 17.5C10.5163 17.0858 10.1805 16.75 9.76627 16.75H8.8496V3.25H11.8496C12.4491 3.25 12.5761 3.25875 12.6585 3.28471C12.8918 3.35829 13.0746 3.5411 13.1482 3.77447C13.1742 3.85681 13.1829 3.98385 13.1829 4.58333V5C13.1829 5.41421 13.5187 5.75 13.9329 5.75C14.3472 5.75 14.6829 5.41421 14.6829 5V4.58333L14.683 4.48547C14.6836 4.04112 14.684 3.65718 14.5788 3.32341C14.3581 2.62329 13.8096 2.07488 13.1095 1.85413C12.7758 1.7489 12.3918 1.74937 11.9475 1.74992L11.8496 1.75H8.0996H4.34961ZM13.0663 10.0833L13.0461 10.0833C12.9239 10.0833 12.7914 10.0833 12.6768 10.0926C12.547 10.1032 12.3756 10.1295 12.1988 10.2196C11.9636 10.3394 11.7724 10.5306 11.6525 10.7658C11.5624 10.9427 11.5362 11.1141 11.5256 11.2439C11.5162 11.3585 11.5162 11.491 11.5163 11.6131L11.5163 11.6333V12.0833C11.5163 12.4975 11.8521 12.8333 12.2663 12.8333C12.6805 12.8333 13.0163 12.4975 13.0163 12.0833V11.6333L13.0163 11.5833L13.0663 11.5833H14.8496V16.75H14.3496C13.9354 16.75 13.5996 17.0858 13.5996 17.5C13.5996 17.9142 13.9354 18.25 14.3496 18.25H15.5996H16.8496C17.2638 18.25 17.5996 17.9142 17.5996 17.5C17.5996 17.0858 17.2638 16.75 16.8496 16.75H16.3496V11.5833H18.1329L18.1829 11.5833L18.1829 11.6333V12.0833C18.1829 12.4975 18.5187 12.8333 18.9329 12.8333C19.3472 12.8333 19.6829 12.4975 19.6829 12.0833V11.6333L19.6829 11.6131V11.6131C19.683 11.4909 19.683 11.3585 19.6736 11.2439C19.663 11.1141 19.6368 10.9427 19.5467 10.7658C19.4269 10.5306 19.2356 10.3394 19.0004 10.2196C18.8236 10.1295 18.6522 10.1032 18.5224 10.0926C18.4078 10.0833 18.2753 10.0833 18.1532 10.0833L18.1329 10.0833H15.5996H13.0663Z" fill="#111111"/>
</g>
</svg>
