<!--<svg width="125" height="95" viewBox="0 0 125 95" fill="none" xmlns="http://www.w3.org/2000/svg">-->
<!--    <path fill-rule="evenodd" clip-rule="evenodd" d="M71.1025 87.6041C56.2225 96.4562 36.0874 97.3599 16.5816 84.34V84.3323C13.9037 82.5495 11.5994 80.2453 9.81666 77.5673C-15.1958 39.9981 11.3658 0 47.0978 0C56.1257 0 64.5647 2.55367 71.7345 6.97606C78.6796 2.79195 86.6486 0.389238 95.7529 0.389238C106.574 0.389238 116.546 4.06364 124.502 10.2214C121.622 12.5101 119.014 15.1336 116.741 18.0217C110.816 13.7868 103.577 11.2879 95.7529 11.2879C90.4993 11.2879 85.5049 12.4193 80.9959 14.4449C84.3271 17.9044 87.136 21.8706 89.2947 26.2149C109.707 20.4056 127.66 43.3022 111.976 63.7104C88.334 81.8878 61.3599 54.9059 79.5295 31.2636L79.6152 31.1979C73.7195 19.1852 61.3602 10.8987 47.0978 10.8987C19.3063 10.8987 -1.26883 42.3724 19.1428 71.5497C20.077 72.8809 21.2369 74.0408 22.5603 74.975C36.3557 84.6828 50.614 85.2023 61.8569 80.151C58.5823 76.7531 55.812 72.8658 53.6677 68.611C33.0506 74.9426 14.6733 51.8385 30.4855 31.2636C54.0022 13.1828 80.8153 39.7826 63.2183 63.3332C69.1019 75.371 81.4711 83.6861 95.7529 83.6861C103.74 83.6861 111.136 81.0782 117.13 76.6721H117.138C119.45 79.5291 122.089 82.1136 125 84.3634C116.959 90.7547 106.799 94.5848 95.7529 94.5848C86.7208 94.5848 78.2763 92.0295 71.1025 87.6041ZM38.4571 55.7388C50.4846 64.9871 64.2091 51.2626 54.9608 39.2352C42.9333 29.9869 29.2088 43.7114 38.4571 55.7388ZM87.5011 55.7388C99.5285 64.9871 113.253 51.2626 104.005 39.2352C91.9773 29.9869 78.2528 43.7114 87.5011 55.7388Z" fill="url(#paint0_linear_3637_11925)"/>-->
<!--    <defs>-->
<!--        <linearGradient id="paint0_linear_3637_11925" x1="2.82106" y1="7.22899" x2="72.4693" y2="109.662" gradientUnits="userSpaceOnUse">-->
<!--            <stop stop-color="#DD0000"/>-->
<!--            <stop offset="1" stop-color="#DD0000" stop-opacity="0.46"/>-->
<!--        </linearGradient>-->
<!--    </defs>-->
<!--</svg>-->
<svg width="125" height="93" viewBox="0 0 125 93" fill="none" xmlns="http://www.w3.org/2000/svg">
    <g clip-path="url(#clip0_4231_18504)">
        <path d="M114.23 76.1351C110.975 78.3059 107.346 79.96 103.459 80.9759C100.545 81.74 97.4849 82.1459 94.3318 82.1459C88.9492 82.1459 83.8426 80.9629 79.2596 78.842C75.987 77.3269 72.9795 75.3341 70.3306 72.9528C66.7668 69.7509 63.8484 65.8479 61.7948 61.4586C65.6433 57.5469 68.0184 52.1851 68.0184 46.2828C68.0184 40.3805 65.6433 35.0187 61.7948 31.107C59.3393 28.6085 56.284 26.7025 52.8636 25.6237C50.8014 24.9681 48.6066 24.6164 46.3315 24.6164C34.371 24.6164 24.6423 34.3371 24.6423 46.2828C24.6423 58.2285 34.371 67.9492 46.3315 67.9492C48.6066 67.9492 50.8014 67.5975 52.8636 66.9419C55.0541 71.3334 57.9203 75.3254 61.4037 78.842C56.8208 80.9629 51.7141 82.1459 46.3315 82.1459C26.5046 82.1459 10.4306 66.0888 10.4306 46.2828C10.4306 26.4768 26.5046 10.4197 46.3315 10.4197C51.7141 10.4197 56.8208 11.6027 61.4037 13.7236C64.6763 15.2387 67.6816 17.2315 70.3306 19.6128C73.8944 22.8147 76.8128 26.7199 78.8685 31.1092C78.5077 31.476 78.1622 31.8537 77.8276 32.2445C77.8254 32.2467 77.8232 32.251 77.821 32.2532C77.7146 32.3769 77.6124 32.5006 77.5081 32.6287C77.4951 32.6461 77.4821 32.6613 77.469 32.6786C77.3777 32.7915 77.2865 32.9066 77.1974 33.0216C77.1757 33.0498 77.1517 33.0802 77.13 33.1106C77.0496 33.2148 76.9714 33.319 76.8932 33.4232C76.8627 33.4645 76.8323 33.5057 76.8019 33.5469C76.7324 33.6425 76.6628 33.7358 76.5955 33.8335C76.5585 33.8856 76.5216 33.9398 76.4846 33.9919C76.426 34.0788 76.3651 34.1634 76.3064 34.2524C76.263 34.3154 76.2217 34.3805 76.1782 34.4456C76.1283 34.5238 76.0761 34.6019 76.0261 34.6801C75.9783 34.7539 75.9327 34.8299 75.8849 34.9058C75.8414 34.9753 75.7979 35.0448 75.7545 35.1164C75.7023 35.2011 75.6524 35.2857 75.6024 35.3704C75.5654 35.4333 75.5285 35.4941 75.4915 35.5571C75.4372 35.6504 75.3851 35.7459 75.3329 35.8393C75.3025 35.8957 75.2699 35.9521 75.2395 36.0086C75.183 36.1106 75.1286 36.2148 75.0765 36.319C75.0504 36.3689 75.0243 36.4167 75.0004 36.4666C74.9439 36.5795 74.8874 36.6902 74.8331 36.8053C74.8114 36.8487 74.7918 36.8899 74.7701 36.9333C74.7114 37.0527 74.6571 37.1743 74.6006 37.2958C74.5832 37.3327 74.5658 37.3697 74.5506 37.4066C74.492 37.5346 74.4354 37.6627 74.3811 37.793C74.3681 37.8233 74.355 37.8537 74.342 37.8841C74.2855 38.0187 74.229 38.1555 74.1747 38.2944C74.1638 38.3204 74.153 38.3443 74.1443 38.3704C74.0878 38.5136 74.0334 38.6591 73.9791 38.8045C73.9726 38.8241 73.9639 38.8414 73.9574 38.861C73.9009 39.0129 73.8465 39.167 73.7944 39.3212C73.7901 39.3342 73.7857 39.345 73.7814 39.3581C73.727 39.5187 73.6749 39.6793 73.6249 39.8421C73.6249 39.8487 73.6206 39.8552 73.6184 39.8617C72.9839 41.8957 72.6427 44.0556 72.6427 46.2936C72.6427 48.1583 72.8795 49.9709 73.3272 51.6988C73.3272 51.7054 73.3315 51.7119 73.3315 51.7184C73.375 51.8834 73.4185 52.0483 73.4663 52.2111C73.4706 52.2263 73.475 52.2415 73.4793 52.2567C73.5228 52.4109 73.5684 52.565 73.6162 52.7191C73.6227 52.7408 73.6314 52.7647 73.6379 52.7864C73.6836 52.9318 73.7314 53.0773 73.7792 53.2206C73.7879 53.2488 73.7987 53.277 73.8096 53.3052C73.8574 53.442 73.9052 53.5809 73.9552 53.7155C73.9682 53.7502 73.9813 53.7849 73.9943 53.8197C74.0421 53.9478 74.0899 54.078 74.1421 54.2039C74.1573 54.2451 74.1747 54.2864 74.1921 54.3276C74.2399 54.4492 74.2899 54.5686 74.3398 54.6902C74.3594 54.7357 74.3811 54.7835 74.4007 54.8291C74.4485 54.942 74.4985 55.0548 74.5484 55.1677C74.5723 55.2198 74.5984 55.2741 74.6223 55.3262C74.6701 55.4304 74.7179 55.5346 74.7679 55.6388C74.7962 55.6974 74.8266 55.756 74.8548 55.8146C74.9026 55.9101 74.9505 56.0078 74.9983 56.1033C75.0309 56.1684 75.0656 56.2336 75.1004 56.2987C75.146 56.3855 75.1917 56.4723 75.2373 56.5592C75.2764 56.6308 75.3177 56.7046 75.3568 56.7763C75.4003 56.8544 75.4437 56.9325 75.4872 57.0085C75.5328 57.0888 75.5785 57.167 75.6263 57.2451C75.6676 57.3146 75.7067 57.3819 75.748 57.4514C75.8001 57.5382 75.8544 57.625 75.9088 57.7118C75.9457 57.7705 75.9805 57.8291 76.0174 57.8855C76.0783 57.981 76.1391 58.0744 76.2021 58.1699C76.2326 58.2176 76.2652 58.2654 76.2956 58.311C76.3651 58.4152 76.4368 58.5172 76.5064 58.6192C76.5324 58.6561 76.5563 58.693 76.5824 58.7278C76.6606 58.8407 76.7432 58.9514 76.8236 59.0621C76.841 59.0859 76.8606 59.112 76.8779 59.1359C76.967 59.2574 77.0605 59.379 77.1518 59.4984C77.1626 59.5114 77.1713 59.5244 77.1822 59.5375C78.1079 60.7314 79.1553 61.8254 80.307 62.8023C80.307 62.8023 80.3114 62.8045 80.3114 62.8066C80.4743 62.9434 80.6373 63.0802 80.8046 63.2126C80.8112 63.2169 80.8177 63.2234 80.8242 63.2278C81.1632 63.4969 81.5087 63.7574 81.8629 64.0071C81.8716 64.0136 81.8803 64.0179 81.889 64.0244C82.0476 64.1351 82.2084 64.2458 82.3692 64.3522C82.4018 64.3739 82.4344 64.3956 82.4648 64.4152C82.6126 64.5128 82.7626 64.6084 82.9125 64.7017C82.9407 64.7191 82.9668 64.7364 82.9951 64.7538C83.3514 64.973 83.7165 65.1836 84.0859 65.3812C84.1164 65.3985 84.149 65.4137 84.1794 65.4311C84.3315 65.5114 84.4836 65.5895 84.6379 65.6677C84.6814 65.6894 84.7248 65.7111 84.7661 65.7328C84.9226 65.8088 85.079 65.8848 85.2355 65.9564C85.2659 65.9716 85.2963 65.9846 85.3267 65.9998C85.7092 66.1757 86.0982 66.3385 86.4915 66.4926C86.5263 66.5056 86.5632 66.5208 86.598 66.5338C86.761 66.5968 86.9239 66.6554 87.0891 66.714C87.1304 66.7292 87.1695 66.7422 87.2108 66.7574C87.3911 66.8204 87.5737 66.8811 87.7562 66.9398C87.7692 66.9441 87.7801 66.9484 87.791 66.9506C87.7953 66.9506 87.7975 66.9506 87.8018 66.9528C88.0387 67.0288 88.2799 67.0982 88.5189 67.1655C88.5624 67.1785 88.608 67.1894 88.6515 67.2024C88.8623 67.2589 89.0731 67.3131 89.2839 67.3631C89.3186 67.3717 89.3534 67.3804 89.3882 67.3891C89.6163 67.4434 89.8488 67.4911 90.0792 67.5367C90.1444 67.5497 90.2096 67.5628 90.2748 67.5736C90.4725 67.6105 90.6724 67.6453 90.8724 67.6778C90.9158 67.6843 90.9614 67.693 91.0049 67.6995C91.2331 67.7343 91.4634 67.7646 91.6959 67.7929C91.7698 67.8016 91.8437 67.8102 91.9176 67.8189C92.1218 67.8406 92.3261 67.8623 92.5304 67.8775C92.5717 67.8819 92.613 67.8862 92.6564 67.8884C92.8889 67.9057 93.1236 67.9188 93.3583 67.9296C93.4344 67.934 93.5126 67.9361 93.5908 67.9383C93.8103 67.9448 94.0276 67.9513 94.2493 67.9513C94.2732 67.9513 94.2971 67.9513 94.321 67.9513C98.3607 67.9513 102.144 66.8421 105.386 64.9123C108.061 63.3211 110.365 61.1721 112.136 58.6257C114.576 55.1221 116.008 50.8674 116.008 46.285C116.008 34.3393 106.277 24.6186 94.3188 24.6186C94.2688 24.6186 94.221 24.6208 94.1732 24.6208C93.9863 24.6208 93.8016 24.6251 93.6169 24.6316C93.5213 24.6338 93.4257 24.6381 93.3322 24.6425C93.141 24.6512 92.9498 24.662 92.7586 24.675C92.6564 24.6816 92.5543 24.6902 92.4522 24.6989C92.2848 24.7141 92.1197 24.7293 91.9545 24.7467C91.8567 24.7575 91.7589 24.7684 91.6612 24.7792C91.4656 24.8031 91.2722 24.8292 91.0788 24.8574C90.9788 24.8726 90.8789 24.8899 90.7789 24.9051C90.6268 24.9312 90.4747 24.9572 90.3226 24.9855C90.227 25.0028 90.1313 25.0224 90.0357 25.0397C89.8293 25.081 89.6229 25.1244 89.4164 25.1721C89.3382 25.1895 89.26 25.2112 89.1839 25.2286C89.0253 25.2677 88.8688 25.3067 88.7123 25.348C88.6319 25.3697 88.5494 25.3914 88.469 25.4131C88.256 25.4717 88.0452 25.5347 87.8344 25.5998C87.8171 25.6041 87.7997 25.6106 87.7823 25.615C85.5919 21.2235 82.7278 17.2337 79.2444 13.717C83.8273 11.5962 88.934 10.4131 94.3166 10.4131C97.4719 10.4131 100.532 10.8191 103.446 11.5832C107.331 12.6013 110.962 14.2532 114.215 16.424C117.468 14.2532 121.097 12.6013 124.983 11.5832C121.736 8.71126 118.129 6.32994 114.215 4.47177C113.602 4.18089 112.981 3.90086 112.353 3.63602C106.651 1.22648 100.582 0 94.3318 0C88.0822 0 82.0129 1.22648 76.2956 3.64254C74.2247 4.51735 72.2342 5.53327 70.3306 6.68594C68.427 5.53327 66.4365 4.51735 64.3677 3.64254C58.6483 1.22648 52.5811 0 46.3315 0C40.0818 0 34.0125 1.22648 28.293 3.64254C22.7757 5.97393 17.8211 9.31039 13.5707 13.5564C9.31801 17.8046 5.98022 22.7517 3.64419 28.2655C1.2256 33.9768 0 40.0397 0 46.2828C0 52.5259 1.2256 58.5888 3.64419 64.3023C5.98022 69.8139 9.31801 74.7632 13.5707 79.0092C17.8211 83.2574 22.7757 86.5917 28.293 88.9231C34.0125 91.3391 40.0796 92.5656 46.3315 92.5656C52.5833 92.5656 58.6483 91.3391 64.3677 88.9231C66.4365 88.0482 68.427 87.0323 70.3306 85.8796C72.2342 87.0323 74.2247 88.0482 76.2956 88.9231C82.0129 91.3391 88.0822 92.5656 94.3318 92.5656C100.582 92.5656 106.651 91.3391 112.368 88.9231C112.996 88.6582 113.618 88.3782 114.23 88.0873C118.146 86.2291 121.751 83.8478 125 80.9759C121.115 79.9578 117.483 78.3059 114.23 76.1351ZM49.2825 57.1388C48.3415 57.3928 47.3528 57.5295 46.3315 57.5295C40.1122 57.5295 35.0729 52.4933 35.0729 46.2828C35.0729 40.0723 40.1122 35.0361 46.3315 35.0361C47.3528 35.0361 48.3415 35.1728 49.2825 35.4268C54.0675 36.7228 57.5878 41.0925 57.5878 46.2828C57.5878 51.4731 54.0675 55.8428 49.2825 57.1388ZM86.724 37.9948C86.7588 37.9623 86.7935 37.9319 86.8283 37.9015C86.9196 37.819 87.013 37.7387 87.1086 37.6584C87.1478 37.6258 87.1847 37.5932 87.2238 37.5628C87.3216 37.4825 87.4216 37.4044 87.5215 37.3284C87.5563 37.3024 87.591 37.2763 87.6258 37.2503C87.754 37.1547 87.8822 37.0636 88.0148 36.9746C88.0235 36.9702 88.03 36.9637 88.0387 36.9572C88.1821 36.8595 88.3299 36.7662 88.4798 36.675C88.5037 36.6598 88.5276 36.6468 88.5494 36.6338C88.6711 36.56 88.7949 36.4905 88.9188 36.421C88.9601 36.3972 89.0035 36.3754 89.0448 36.3537C89.1535 36.2951 89.2643 36.2387 89.3751 36.1844C89.4208 36.1605 89.4686 36.1388 89.5164 36.1171C89.6294 36.0629 89.7445 36.0108 89.8597 35.9608C89.901 35.9435 89.9445 35.9239 89.9857 35.9066C90.1292 35.8458 90.2748 35.7893 90.4204 35.7351C90.4334 35.7307 90.4486 35.7242 90.4616 35.7199C90.629 35.6591 90.7985 35.6026 90.968 35.5484C90.9875 35.5419 91.0049 35.5375 91.0245 35.531C91.1744 35.4854 91.3265 35.442 91.4808 35.4008C91.5047 35.3943 91.5308 35.3877 91.5547 35.3812C91.7177 35.34 91.8806 35.3031 92.0458 35.2684C92.0501 35.2684 92.0545 35.2684 92.0588 35.2662C92.2283 35.2315 92.4 35.2011 92.5717 35.175C92.5977 35.1707 92.626 35.1663 92.6521 35.162C93.0019 35.1099 93.3561 35.073 93.7169 35.0556C93.7342 35.0556 93.7538 35.0556 93.7712 35.0534C93.9537 35.0448 94.1384 35.0404 94.3231 35.0404C100.54 35.0404 105.582 40.0744 105.582 46.2871C105.582 52.4999 100.542 57.5339 94.3231 57.5339C94.145 57.5339 93.9668 57.5295 93.7907 57.5208C93.7603 57.5208 93.7277 57.5187 93.6973 57.5165C93.5213 57.5078 93.3474 57.4948 93.1736 57.4774C93.1714 57.4774 93.1671 57.4774 93.1649 57.4774C92.9998 57.46 92.8368 57.4383 92.6738 57.4145C92.6347 57.4079 92.5934 57.4036 92.5543 57.3971C92.3913 57.371 92.2305 57.3428 92.0697 57.3103C92.048 57.3059 92.0262 57.2994 92.0023 57.2951C91.8589 57.2647 91.7155 57.2321 91.5742 57.1974C91.5373 57.1887 91.4982 57.1778 91.4613 57.1692C91.3309 57.1344 91.2027 57.0975 91.0744 57.0585C91.0353 57.0454 90.994 57.0367 90.9549 57.0237C90.7919 56.9716 90.629 56.9174 90.4703 56.8587C90.4334 56.8457 90.3986 56.8305 90.3617 56.8175C90.2378 56.7719 90.1161 56.7242 89.9944 56.6721C89.9379 56.6482 89.8836 56.6243 89.8293 56.6004C89.7272 56.557 89.6272 56.5114 89.5272 56.4637C89.4686 56.4354 89.4121 56.4094 89.3534 56.379C89.2556 56.3312 89.1578 56.2813 89.0622 56.2292C89.0079 56.201 88.9536 56.1728 88.9014 56.1424C88.7949 56.0838 88.6884 56.023 88.5841 55.9601C88.545 55.9362 88.5037 55.9145 88.4646 55.8906C88.3212 55.8038 88.1799 55.7126 88.0409 55.6192C88.0148 55.6019 87.9887 55.5823 87.9605 55.5628C87.8496 55.4868 87.7388 55.4087 87.6302 55.3284C87.5845 55.2958 87.5411 55.2589 87.4954 55.2263C87.4063 55.159 87.3173 55.0896 87.2303 55.0179C87.1825 54.9789 87.1369 54.9398 87.0891 54.9007C87.0043 54.8291 86.9196 54.7575 86.837 54.6836C86.7935 54.6446 86.7501 54.6077 86.7088 54.5686C86.6175 54.4839 86.5263 54.3971 86.4372 54.3103C86.4067 54.2799 86.3763 54.2517 86.3459 54.2213C86.2264 54.1019 86.109 53.9781 85.996 53.8544C85.9852 53.8436 85.9743 53.8305 85.9634 53.8175C85.8613 53.7046 85.7614 53.5896 85.6657 53.4724C85.6353 53.4355 85.6049 53.3964 85.5723 53.3573C85.4962 53.264 85.4224 53.1685 85.3485 53.0729C85.3159 53.0295 85.2833 52.9861 85.2507 52.9405C85.1812 52.845 85.1116 52.7495 85.0442 52.6518C85.0138 52.6084 84.9856 52.565 84.9552 52.5216C84.8813 52.4109 84.8096 52.3001 84.74 52.1873C84.7205 52.1569 84.7009 52.1265 84.6835 52.0961C84.5053 51.803 84.3424 51.5013 84.1902 51.1909C84.1729 51.154 84.1555 51.1171 84.1381 51.0802C84.0816 50.9608 84.0273 50.8436 83.9751 50.722C83.9556 50.6764 83.936 50.6308 83.9186 50.5852C83.8708 50.468 83.823 50.3508 83.7795 50.2314C83.7622 50.1858 83.7448 50.1424 83.7296 50.0968C83.6817 49.9644 83.6361 49.832 83.5948 49.6974C83.5861 49.667 83.5753 49.6366 83.5644 49.6062C83.4601 49.2698 83.371 48.9246 83.2993 48.5751C83.2928 48.5426 83.2863 48.5078 83.2797 48.4753C83.2515 48.3363 83.2276 48.1952 83.2037 48.0541C83.1972 48.0086 83.1906 47.963 83.1841 47.9174C83.1646 47.7828 83.1472 47.6504 83.132 47.5136C83.1276 47.468 83.1211 47.4224 83.1168 47.3769C83.1015 47.2292 83.0907 47.0816 83.082 46.9319C83.082 46.9015 83.0776 46.8711 83.0755 46.8385C83.0668 46.654 83.0624 46.4695 83.0624 46.2828C83.0624 46.0961 83.0668 45.9116 83.0755 45.7271C83.0755 45.6967 83.0798 45.6685 83.082 45.6381C83.0907 45.4883 83.1015 45.3385 83.1168 45.1887C83.1211 45.1453 83.1255 45.0997 83.1298 45.0563C83.145 44.9196 83.1624 44.7828 83.182 44.6482C83.1885 44.6048 83.195 44.5614 83.2015 44.5158C83.2254 44.3704 83.2493 44.2271 83.2776 44.0838C83.2841 44.0534 83.2884 44.023 83.2949 43.9948C83.3688 43.6432 83.4579 43.2958 83.5622 42.9572C83.5688 42.9333 83.5774 42.9094 83.5861 42.8834C83.6318 42.7423 83.6774 42.6034 83.7274 42.4644C83.7426 42.4254 83.7578 42.3841 83.773 42.345C83.8186 42.2213 83.8686 42.0976 83.9186 41.976C83.936 41.9348 83.9534 41.8957 83.9708 41.8544C84.0251 41.7264 84.0838 41.6005 84.1424 41.4746C84.1576 41.4442 84.1707 41.4138 84.1837 41.3834C84.3358 41.0686 84.5032 40.7626 84.6835 40.4652C84.6966 40.4435 84.7096 40.4217 84.7226 40.4022C84.7987 40.2785 84.8769 40.1569 84.9573 40.0375C84.9812 40.0006 85.0073 39.9659 85.0312 39.929C85.1029 39.8226 85.1768 39.7184 85.2529 39.6164C85.2811 39.5795 85.3094 39.5404 85.3354 39.5035C85.4158 39.3993 85.4962 39.2951 85.5788 39.1931C85.6027 39.1627 85.6266 39.1323 85.6505 39.1041C85.87 38.8393 86.1003 38.5853 86.3437 38.3422C86.3633 38.3226 86.3828 38.3052 86.4024 38.2857C86.5024 38.1859 86.6045 38.0882 86.7088 37.9948H86.724Z" fill="url(#paint0_linear_4231_18504)"/>
    </g>
    <defs>
        <linearGradient id="paint0_linear_4231_18504" x1="36.0877" y1="-2.73733" x2="103.277" y2="96.1826" gradientUnits="userSpaceOnUse">
            <stop stop-color="#DD0000"/>
            <stop offset="1" stop-color="#DD0000" stop-opacity="0.46"/>
        </linearGradient>
        <clipPath id="clip0_4231_18504">
            <rect width="125" height="92.5656" fill="white"/>
        </clipPath>
    </defs>
</svg>
