<svg width="21" height="20" viewBox="0 0 21 20" fill="none" xmlns="http://www.w3.org/2000/svg">
<g id="text-italic">
<path id="Icon" fill-rule="evenodd" clip-rule="evenodd" d="M12.4816 1.75016L16.6335 1.75016C17.0477 1.75016 17.3835 2.08595 17.3835 2.50016C17.3835 2.91438 17.0477 3.25016 16.6335 3.25016L13.0684 3.25016L10.0684 16.7502L13.3001 16.7502C13.7143 16.7502 14.0501 17.0859 14.0501 17.5002C14.0501 17.9144 13.7143 18.2502 13.3001 18.2502L9.14952 18.2502C9.13931 18.2504 9.12907 18.2504 9.11881 18.2502L4.96679 18.2502C4.55258 18.2502 4.21679 17.9144 4.21679 17.5002C4.21679 17.0859 4.55258 16.7502 4.96679 16.7502L8.53183 16.7502L11.5318 3.25016L8.30013 3.25016C7.88591 3.25016 7.55013 2.91438 7.55013 2.50016C7.55013 2.08595 7.88591 1.75016 8.30013 1.75016L12.4506 1.75016C12.4609 1.74995 12.4712 1.74995 12.4816 1.75016Z" fill="#6D6D6D"/>
</g>
</svg>
