<svg width="21" height="20" viewBox="0 0 21 20" fill="none" xmlns="http://www.w3.org/2000/svg">
<g id="text-bold">
<path id="Icon" fill-rule="evenodd" clip-rule="evenodd" d="M4.73691 1.75C3.65791 1.75 2.7832 2.6247 2.7832 3.70371L2.7832 9.99957C2.7832 9.99972 2.7832 9.99986 2.7832 10L2.7832 16.0185C2.7832 17.2509 3.78227 18.25 5.01468 18.25L13.1165 18.25C15.6018 18.25 17.6165 16.2353 17.6165 13.75C17.6165 11.5345 16.0155 9.69302 13.9074 9.31927C14.6575 8.51535 15.1165 7.43628 15.1165 6.25C15.1165 3.76472 13.1018 1.75 10.6165 1.75L4.73691 1.75ZM10.6165 10.75L4.2832 10.75L4.2832 16.0185C4.2832 16.4225 4.6107 16.75 5.01468 16.75L13.1165 16.75C14.7734 16.75 16.1165 15.4069 16.1165 13.75C16.1165 12.0931 14.7734 10.75 13.1165 10.75L10.6165 10.75ZM10.6165 9.25C12.2734 9.25 13.6165 7.90686 13.6165 6.25C13.6165 4.59315 12.2734 3.25 10.6165 3.25L4.73691 3.25C4.48633 3.25 4.2832 3.45313 4.2832 3.70371L4.2832 9.25L10.6165 9.25Z" fill="#6D6D6D"/>
</g>
</svg>
