<svg width="21" height="20" viewBox="0 0 21 20" fill="none" xmlns="http://www.w3.org/2000/svg">
<g id="text">
<path id="Icon" fill-rule="evenodd" clip-rule="evenodd" d="M5.91886 1.74992C5.95116 1.74996 5.98377 1.75 6.01672 1.75H10.6001H15.1834C15.2163 1.75 15.2489 1.74996 15.2812 1.74992C15.7256 1.74937 16.1095 1.7489 16.4433 1.85414C17.1434 2.07488 17.6918 2.62329 17.9126 3.32341C18.0178 3.65718 18.0173 4.04113 18.0168 4.48547C18.0168 4.51777 18.0167 4.55039 18.0167 4.58333V5C18.0167 5.41421 17.6809 5.75 17.2667 5.75C16.8525 5.75 16.5167 5.41421 16.5167 5V4.58333C16.5167 3.98385 16.508 3.85681 16.482 3.77447C16.4084 3.5411 16.2256 3.3583 15.9922 3.28471C15.9099 3.25875 15.7829 3.25 15.1834 3.25H11.3501V16.75H14.7667C15.1809 16.75 15.5167 17.0858 15.5167 17.5C15.5167 17.9142 15.1809 18.25 14.7667 18.25H10.6001H6.43339C6.01917 18.25 5.68339 17.9142 5.68339 17.5C5.68339 17.0858 6.01917 16.75 6.43339 16.75H9.85005V3.25H6.01672C5.41724 3.25 5.2902 3.25875 5.20786 3.28471C4.97448 3.3583 4.79168 3.5411 4.7181 3.77447C4.69214 3.85681 4.68339 3.98385 4.68339 4.58333V5C4.68339 5.41421 4.3476 5.75 3.93339 5.75C3.51917 5.75 3.18339 5.41421 3.18339 5V4.58333C3.18339 4.55039 3.18335 4.51777 3.18331 4.48547C3.18276 4.04113 3.18228 3.65718 3.28752 3.32341C3.50827 2.62329 4.05668 2.07488 4.7568 1.85414C5.09057 1.7489 5.47451 1.74937 5.91886 1.74992Z" fill="#1855F4"/>
</g>
</svg>
