<svg width="21" height="20" viewBox="0 0 21 20" fill="none" xmlns="http://www.w3.org/2000/svg">
<g id="text-underline">
<path id="Icon" fill-rule="evenodd" clip-rule="evenodd" d="M6.1499 2.5C6.1499 2.08579 5.81412 1.75 5.3999 1.75C4.98569 1.75 4.6499 2.08579 4.6499 2.5L4.6499 9.16667C4.6499 12.3423 7.22426 14.9167 10.3999 14.9167C13.5755 14.9167 16.1499 12.3423 16.1499 9.16667L16.1499 2.5C16.1499 2.08579 15.8141 1.75 15.3999 1.75C14.9857 1.75 14.6499 2.08579 14.6499 2.5L14.6499 9.16667C14.6499 11.5139 12.7471 13.4167 10.3999 13.4167C8.05269 13.4167 6.1499 11.5139 6.1499 9.16667L6.1499 2.5ZM5.3999 16.75C4.98569 16.75 4.6499 17.0858 4.6499 17.5C4.6499 17.9142 4.98569 18.25 5.3999 18.25L15.3999 18.25C15.8141 18.25 16.1499 17.9142 16.1499 17.5C16.1499 17.0858 15.8141 16.75 15.3999 16.75L5.3999 16.75Z" fill="#6D6D6D"/>
</g>
</svg>
