<svg width="24" height="24" viewBox="0 0 24 24" fill="none" xmlns="http://www.w3.org/2000/svg">
<path fill-rule="evenodd" clip-rule="evenodd" d="M6.75 8C6.75 5.10051 9.1005 2.75 12 2.75C14.8995 2.75 17.25 5.1005 17.25 8C17.25 10.8995 14.8995 13.25 12 13.25C9.10051 13.25 6.75 10.8995 6.75 8ZM12 1.25C8.27208 1.25 5.25 4.27208 5.25 8C5.25 8.56284 5.31889 9.10959 5.44869 9.63228C2.98325 10.6485 1.25 13.0914 1.25 15.9394C1.25 19.6937 4.26499 22.75 8 22.75C9.45989 22.75 10.8098 22.2831 11.9126 21.49C13.0347 22.2834 14.4081 22.7501 15.8891 22.7501C19.6724 22.7501 22.75 19.7067 22.75 15.9394C22.75 13.1087 21.0116 10.687 18.5449 9.65804C18.6788 9.12756 18.75 8.57209 18.75 8C18.75 4.27208 15.7279 1.25 12 1.25ZM18.0165 11.0632C17.2826 12.5019 16.0477 13.6425 14.5418 14.2551C14.6778 14.7944 14.75 15.3589 14.75 15.9394C14.75 17.6674 14.1113 19.2475 13.0576 20.4498C13.8789 20.957 14.8486 21.2501 15.8891 21.2501C18.8557 21.2501 21.25 18.8666 21.25 15.9394C21.25 13.7592 19.9225 11.8803 18.0165 11.0632ZM13.0971 14.6613C12.7401 14.7197 12.3736 14.75 12 14.75C9.36545 14.75 7.08342 13.2407 5.97144 11.0395C4.08144 11.8412 2.75 13.7314 2.75 15.9394C2.75 18.8795 5.1076 21.25 8 21.25C10.8924 21.25 13.25 18.8795 13.25 15.9394C13.25 15.498 13.1969 15.07 13.0971 14.6613Z" fill="#AAB0C6"/>
</svg>
