<svg width="24" height="24" viewBox="0 0 24 24" fill="none" xmlns="http://www.w3.org/2000/svg">
<g id="inactive.icon">
<path id="Icon" fill-rule="evenodd" clip-rule="evenodd" d="M9.96644 1.25L10 1.25H14L14.0336 1.25C15.4053 1.25 16.4807 1.24999 17.3451 1.32061C18.2252 1.39252 18.9523 1.54138 19.6104 1.87671C20.6924 2.42798 21.572 3.30762 22.1233 4.38955C22.4586 5.04769 22.6075 5.77479 22.6794 6.65494C22.75 7.51928 22.75 8.59471 22.75 9.96642V10V19.1708V19.1978C22.75 19.6879 22.75 20.0941 22.7279 20.4165C22.7057 20.74 22.6574 21.0718 22.5059 21.37C22.0963 22.1761 21.2439 22.6586 20.342 22.5952C20.0084 22.5717 19.699 22.4424 19.4102 22.295C19.1224 22.1481 18.774 21.9391 18.3538 21.6869L18.3306 21.673C17.7908 21.3491 17.5727 21.2197 17.3484 21.1195C16.9599 20.946 16.5476 20.8318 16.1253 20.7807C15.8814 20.7512 15.6277 20.75 14.9983 20.75H10H9.96642C8.59471 20.75 7.51928 20.75 6.65494 20.6794C5.77479 20.6075 5.04769 20.4586 4.38955 20.1233C3.30762 19.572 2.42798 18.6924 1.87671 17.6104C1.54138 16.9523 1.39252 16.2252 1.32061 15.3451C1.24999 14.4807 1.25 13.4053 1.25 12.0336L1.25 12V10L1.25 9.96644C1.25 8.59472 1.24999 7.51929 1.32061 6.65494C1.39252 5.77479 1.54138 5.04769 1.87671 4.38955C2.42798 3.30762 3.30762 2.42798 4.38955 1.87671C5.04769 1.54138 5.77479 1.39252 6.65494 1.32061C7.51929 1.24999 8.59472 1.25 9.96644 1.25ZM6.77708 2.81563C5.9897 2.87996 5.48197 3.00359 5.07054 3.21322C4.27085 3.62068 3.62068 4.27085 3.21322 5.07054C3.00359 5.48197 2.87996 5.9897 2.81563 6.77708C2.75058 7.57322 2.75 8.58749 2.75 10V12C2.75 13.4125 2.75058 14.4268 2.81563 15.2229C2.87996 16.0103 3.00359 16.518 3.21322 16.9295C3.62068 17.7291 4.27085 18.3793 5.07054 18.7868C5.48197 18.9964 5.9897 19.12 6.77708 19.1844C7.57322 19.2494 8.58749 19.25 10 19.25H14.9983L15.0473 19.25C15.6128 19.25 15.961 19.2499 16.3054 19.2916C16.8768 19.3607 17.4346 19.5152 17.9601 19.7499C18.2768 19.8914 18.5754 20.0706 19.0603 20.3615L19.1023 20.3868C19.5516 20.6563 19.8557 20.8383 20.0921 20.9589C20.3328 21.0818 20.4226 21.0971 20.4473 21.0989C20.748 21.12 21.0321 20.9592 21.1686 20.6905C21.1799 20.6684 21.2129 20.5835 21.2314 20.3139C21.2496 20.0491 21.25 19.6948 21.25 19.1708V10C21.25 8.58749 21.2494 7.57322 21.1844 6.77708C21.12 5.9897 20.9964 5.48197 20.7868 5.07054C20.3793 4.27085 19.7291 3.62068 18.9295 3.21322C18.518 3.00359 18.0103 2.87996 17.2229 2.81563C16.4268 2.75058 15.4125 2.75 14 2.75H10C8.58749 2.75 7.57322 2.75058 6.77708 2.81563Z" fill="white"/>
<path id="&#227;&#129;&#130;" d="M11.9518 6.35171C11.8798 6.57971 11.8318 6.79571 11.7838 6.98771C11.5558 8.10371 11.3518 9.83171 11.3518 11.3197C11.3518 13.2157 11.6998 14.5597 12.0958 15.7717L10.7158 16.1797C10.3558 15.0997 10.0078 13.3237 10.0078 11.5597C10.0078 9.98771 10.2238 8.22371 10.3558 7.03571C10.3798 6.79571 10.4038 6.51971 10.3918 6.30371L11.9518 6.35171ZM9.8038 7.67171C12.0838 7.67171 13.8958 7.56371 15.7318 7.11971L15.7438 8.49971C14.0998 8.79971 11.5798 8.97971 9.7678 8.97971C9.1318 8.97971 8.1958 8.91971 7.6318 8.89571L7.5958 7.51571C8.0278 7.57571 9.0718 7.67171 9.8038 7.67171ZM14.9878 9.43571C14.8918 9.65171 14.7118 10.2037 14.6278 10.4557C13.9438 12.6157 12.7078 14.2357 11.5678 15.0757C10.7878 15.6517 9.7438 16.1797 8.6998 16.1797C7.8238 16.1797 7.0918 15.6517 7.0918 14.4277C7.0918 12.7357 8.6038 10.9717 10.5118 10.2757C11.3038 9.98771 12.2878 9.80771 13.1878 9.80771C15.4318 9.80771 17.0878 11.1037 17.0878 12.9757C17.0878 14.6797 16.0798 16.3237 13.1398 16.7797L12.3358 15.5077C14.6518 15.2557 15.5998 14.0917 15.5998 12.9037C15.5998 11.8837 14.7238 11.0197 13.1038 11.0197C12.0118 11.0197 11.1478 11.3317 10.5598 11.5957C9.3598 12.1597 8.5078 13.3117 8.5078 14.1157C8.5078 14.5117 8.6638 14.7157 9.0598 14.7157C9.6238 14.7157 10.4278 14.3197 11.1598 13.6357C12.0358 12.8317 12.8518 11.7637 13.3318 10.1077C13.4158 9.85571 13.4998 9.33971 13.5118 9.07571L14.9878 9.43571Z" fill="white"/>
</g>
</svg>
