<svg width="20" height="20" viewBox="0 0 20 20" fill="none" xmlns="http://www.w3.org/2000/svg">
<path fill-rule="evenodd" clip-rule="evenodd" d="M5.53066 1.13642C5.82355 1.42931 5.82355 1.90418 5.53066 2.19708L3.47765 4.25008H12.5003C16.1362 4.25008 19.0837 7.19754 19.0837 10.8334C19.0837 14.4693 16.1362 17.4167 12.5003 17.4167H8.33366C7.91945 17.4167 7.58366 17.081 7.58366 16.6667C7.58366 16.2525 7.91945 15.9167 8.33366 15.9167H12.5003C15.3078 15.9167 17.5837 13.6409 17.5837 10.8334C17.5837 8.02597 15.3078 5.75008 12.5003 5.75008H3.47765L5.53066 7.80308C5.82355 8.09598 5.82355 8.57085 5.53066 8.86374C5.23776 9.15664 4.76289 9.15664 4.47 8.86374L1.13666 5.53041C0.99601 5.38976 0.916992 5.19899 0.916992 5.00008C0.916992 4.80117 0.99601 4.6104 1.13666 4.46975L4.47 1.13642C4.76289 0.843525 5.23776 0.843525 5.53066 1.13642Z" fill="white"/>
</svg>
