<svg width="20" height="20" viewBox="0 0 20 20" fill="none" xmlns="http://www.w3.org/2000/svg">
<g id="leading-icon">
<path id="Icon" fill-rule="evenodd" clip-rule="evenodd" d="M7.5 2.4165C6.07326 2.4165 4.91667 3.5731 4.91667 4.99984C4.91667 6.42657 6.07326 7.58317 7.5 7.58317C8.92673 7.58317 10.0833 6.42657 10.0833 4.99984C10.0833 3.5731 8.92673 2.4165 7.5 2.4165ZM3.41667 4.99984C3.41667 2.74467 5.24484 0.916504 7.5 0.916504C9.75516 0.916504 11.5833 2.74467 11.5833 4.99984C11.5833 7.255 9.75516 9.08317 7.5 9.08317C5.24484 9.08317 3.41667 7.255 3.41667 4.99984ZM14.25 5.83317C14.25 5.41896 14.5858 5.08317 15 5.08317H18.3333C18.7475 5.08317 19.0833 5.41896 19.0833 5.83317V9.1665C19.0833 9.58072 18.7475 9.9165 18.3333 9.9165C17.9191 9.9165 17.5833 9.58072 17.5833 9.1665V7.64383L14.697 10.5302C14.4041 10.8231 13.9292 10.8231 13.6363 10.5302C13.3434 10.2373 13.3434 9.7624 13.6363 9.46951L16.5227 6.58317H15C14.5858 6.58317 14.25 6.24738 14.25 5.83317ZM5.66667 10.9165C3.04331 10.9165 0.916666 13.0432 0.916666 15.6665C0.916666 17.5535 2.44636 19.0832 4.33334 19.0832H10.6667C12.5536 19.0832 14.0833 17.5535 14.0833 15.6665C14.0833 13.0431 11.9567 10.9165 9.33333 10.9165H5.66667ZM9.33333 12.4165C11.1283 12.4165 12.5833 13.8716 12.5833 15.6665C12.5833 16.725 11.7252 17.5832 10.6667 17.5832H4.33334C3.27479 17.5832 2.41667 16.725 2.41667 15.6665C2.41667 13.8716 3.87174 12.4165 5.66667 12.4165H9.33333Z" fill="#6D6D6D"/>
</g>
</svg>
