<svg width="24" height="24" viewBox="0 0 24 24" fill="none" xmlns="http://www.w3.org/2000/svg">
<path fill-rule="evenodd" clip-rule="evenodd" d="M8.75 6C8.75 4.20507 10.2051 2.75 12 2.75C13.7949 2.75 15.25 4.20507 15.25 6C15.25 7.79493 13.7949 9.25 12 9.25C10.2051 9.25 8.75 7.79493 8.75 6ZM12 1.25C9.37665 1.25 7.25 3.37665 7.25 6C7.25 8.62335 9.37665 10.75 12 10.75C14.6234 10.75 16.75 8.62335 16.75 6C16.75 3.37665 14.6234 1.25 12 1.25ZM8.8 13.25C5.73482 13.25 3.25 15.7348 3.25 18.8C3.25 20.9815 5.01848 22.75 7.2 22.75H16.8C18.9815 22.75 20.75 20.9815 20.75 18.8C20.75 15.7348 18.2652 13.25 15.2 13.25H8.8ZM15.2 14.75C17.4368 14.75 19.25 16.5632 19.25 18.8C19.25 20.1531 18.1531 21.25 16.8 21.25H7.2C5.8469 21.25 4.75 20.1531 4.75 18.8C4.75 16.5632 6.56325 14.75 8.8 14.75H15.2Z" fill="#AAB0C6"/>
</svg>
